<?xml version="1.0" encoding="utf-8"?>
<!-- Generator: Adobe Illustrator 18.0.0, SVG Export Plug-In . SVG Version: 6.00 Build 0)  -->
<!DOCTYPE svg PUBLIC "-//W3C//DTD SVG 1.1//EN" "http://www.w3.org/Graphics/SVG/1.1/DTD/svg11.dtd">
<svg version="1.1" id="Camada_1" xmlns="http://www.w3.org/2000/svg" xmlns:xlink="http://www.w3.org/1999/xlink" x="0px" y="0px"
	 viewBox="0 0 170.6 55.2" enable-background="new 0 0 170.6 55.2" xml:space="preserve">
<path fill-rule="evenodd" clip-rule="evenodd" fill="#18A0BE" d="M50.6,0h110c5.5,0,10,4.5,10,10v35.2c0,5.5-4.5,10-10,10h-110
	c-5.5,0-10-4.5-10-10V10C40.6,4.5,45.1,0,50.6,0z"/>
<g>
	<path fill="#FEFEFE" d="M67.6,20.4h2.7c0.3,0,0.5,0.1,0.7,0.2c0.2,0.1,0.3,0.3,0.4,0.5l2.8,7.8c0.1,0.3,0.3,0.7,0.4,1.1
		s0.3,0.8,0.4,1.3c0.1-0.4,0.2-0.9,0.3-1.3c0.1-0.4,0.2-0.8,0.4-1.1l2.8-7.8c0.1-0.2,0.2-0.4,0.4-0.5c0.2-0.2,0.4-0.2,0.7-0.2h2.7
		L76.5,35h-3.1L67.6,20.4z"/>
	<path fill="#FEFEFE" d="M82.2,27.7c0-1.1,0.2-2,0.5-2.9c0.4-0.9,0.9-1.7,1.5-2.4s1.5-1.2,2.4-1.6s2-0.6,3.1-0.6s2.2,0.2,3.1,0.6
		c0.9,0.4,1.7,0.9,2.4,1.6c0.7,0.7,1.2,1.5,1.5,2.4s0.5,1.9,0.5,2.9c0,1.1-0.2,2-0.5,2.9s-0.9,1.7-1.5,2.4c-0.7,0.7-1.5,1.2-2.4,1.6
		c-0.9,0.4-2,0.6-3.1,0.6s-2.2-0.2-3.1-0.6c-0.9-0.4-1.7-0.9-2.4-1.6c-0.7-0.7-1.2-1.5-1.5-2.4S82.2,28.8,82.2,27.7z M85.6,27.7
		c0,0.7,0.1,1.4,0.3,2s0.5,1.1,0.8,1.5c0.3,0.4,0.8,0.7,1.3,0.9c0.5,0.2,1.1,0.3,1.7,0.3c0.6,0,1.2-0.1,1.7-0.3
		c0.5-0.2,0.9-0.5,1.3-0.9c0.4-0.4,0.6-0.9,0.8-1.5c0.2-0.6,0.3-1.2,0.3-1.9s-0.1-1.4-0.3-1.9c-0.2-0.6-0.5-1.1-0.8-1.5
		c-0.4-0.4-0.8-0.7-1.3-0.9c-0.5-0.2-1.1-0.3-1.7-0.3s-1.2,0.1-1.7,0.3c-0.5,0.2-0.9,0.5-1.3,0.9c-0.3,0.4-0.6,0.9-0.8,1.5
		C85.7,26.3,85.6,27,85.6,27.7z"/>
	<path fill="#FEFEFE" d="M98.9,35V20.4h3.4v11.9h5.4V35H98.9z"/>
	<path fill="#FEFEFE" d="M106.5,23.1v-2.7h11.6v2.7H114V35h-3.4V23.1H106.5z"/>
	<path fill="#FEFEFE" d="M116.7,35l5.6-14.6h3.5l5.6,14.6h-2.6c-0.3,0-0.5-0.1-0.7-0.2c-0.2-0.1-0.3-0.3-0.4-0.5l-0.9-2.5h-5.5
		l-0.9,2.5c-0.1,0.2-0.2,0.4-0.4,0.5c-0.2,0.1-0.4,0.2-0.7,0.2H116.7z M122.1,29.4h4l-1.3-4c-0.1-0.3-0.2-0.6-0.3-0.9
		s-0.2-0.7-0.3-1.1c-0.1,0.4-0.2,0.8-0.3,1.1c-0.1,0.3-0.2,0.6-0.3,0.9L122.1,29.4z"/>
	<path fill="#FEFEFE" d="M132.6,35V20.4h4.8c1.1,0,2,0.1,2.7,0.3s1.4,0.5,1.8,0.9s0.8,0.8,1,1.4c0.2,0.5,0.3,1.1,0.3,1.7
		c0,0.5-0.1,0.9-0.2,1.3s-0.3,0.8-0.6,1.2c-0.3,0.4-0.6,0.7-0.9,1c-0.4,0.3-0.8,0.5-1.3,0.7c0.2,0.1,0.4,0.3,0.6,0.4
		s0.4,0.4,0.5,0.6l3.1,5.1h-3.1c-0.6,0-1-0.2-1.2-0.6l-2.4-4.2c-0.1-0.2-0.2-0.3-0.4-0.4c-0.1-0.1-0.3-0.1-0.6-0.1H136V35H132.6z
		 M136,27.3h1.4c0.5,0,0.9-0.1,1.2-0.2c0.3-0.1,0.6-0.3,0.8-0.5s0.4-0.4,0.4-0.7s0.1-0.6,0.1-0.9c0-0.6-0.2-1.1-0.6-1.5
		c-0.4-0.4-1.1-0.5-1.9-0.5H136V27.3z"/>
</g>
<g>
	<path fill="#3F5E70" d="M29.3,27.8c0-0.7,0.6-1.3,1.3-1.3c0.7,0,1.3,0.6,1.3,1.3c0,0.7-0.6,1.3-1.3,1.3
		C29.9,29.1,29.3,28.5,29.3,27.8z"/>
	<path fill="#3F5E70" d="M24,27.8c0-0.7,0.6-1.3,1.3-1.3c0.7,0,1.3,0.6,1.3,1.3c0,0.7-0.6,1.3-1.3,1.3C24.6,29.1,24,28.5,24,27.8z"
		/>
	<path fill="#3F5E70" d="M18.7,27.8c0-0.7,0.6-1.3,1.3-1.3c0.7,0,1.3,0.6,1.3,1.3c0,0.7-0.6,1.3-1.3,1.3
		C19.3,29.1,18.7,28.5,18.7,27.8z"/>
	<path fill="#3F5E70" d="M13.4,27.8c0-0.7,0.6-1.3,1.3-1.3c0.7,0,1.3,0.6,1.3,1.3c0,0.7-0.6,1.3-1.3,1.3
		C14,29.1,13.4,28.5,13.4,27.8z"/>
	<path fill="#3F5E70" d="M8.1,27.8c0-0.7,0.6-1.3,1.3-1.3c0.7,0,1.3,0.6,1.3,1.3c0,0.7-0.6,1.3-1.3,1.3C8.7,29.1,8.1,28.5,8.1,27.8z
		"/>
	<path fill="#3F5E70" d="M0.6,27.8c0-0.7,0.6-1.3,1.3-1.3c0.7,0,1.3,0.6,1.3,1.3c0,0.7-0.6,1.3-1.3,1.3C1.2,29.1,0.6,28.5,0.6,27.8z
		"/>
	<path fill="#3F5E70" d="M8.5,21.3c-0.5-0.5-0.5-1.4,0-1.9c0.5-0.5,1.4-0.5,1.9,0c0.5,0.5,0.5,1.4,0,1.9C9.8,21.8,9,21.8,8.5,21.3z"
		/>
	<path fill="#3F5E70" d="M4.7,25c-0.5-0.5-0.5-1.4,0-1.9c0.5-0.5,1.4-0.5,1.9,0c0.5,0.5,0.5,1.4,0,1.9C6.1,25.5,5.2,25.5,4.7,25z"/>
	<path fill="#3F5E70" d="M6.6,32.5c-0.5,0.5-1.4,0.5-1.9,0c-0.5-0.5-0.5-1.4,0-1.9c0.5-0.5,1.4-0.5,1.9,0C7.1,31.1,7.1,32,6.6,32.5z
		"/>
	<path fill="#3F5E70" d="M10.3,36.2c-0.5,0.5-1.4,0.5-1.9,0c-0.5-0.5-0.5-1.4,0-1.9c0.5-0.5,1.4-0.5,1.9,0
		C10.9,34.9,10.9,35.7,10.3,36.2z"/>
</g>
</svg>
