<?xml version="1.0" encoding="utf-8"?>
<!-- Generator: Adobe Illustrator 18.0.0, SVG Export Plug-In . SVG Version: 6.00 Build 0)  -->
<!DOCTYPE svg PUBLIC "-//W3C//DTD SVG 1.1//EN" "http://www.w3.org/Graphics/SVG/1.1/DTD/svg11.dtd">
<svg version="1.1" id="Camada_1" xmlns="http://www.w3.org/2000/svg" xmlns:xlink="http://www.w3.org/1999/xlink" x="0px" y="0px"
	 viewBox="0 0 120.3 112.2" enable-background="new 0 0 120.3 112.2" xml:space="preserve">
<path fill-rule="evenodd" clip-rule="evenodd" fill="#17A2BF" d="M31,0h63c5.5,0,10,4.5,10,10v45c0,5.5-4.5,10-10,10H31
	c-5.5,0-10-4.5-10-10V10C21,4.5,25.5,0,31,0z"/>
<g>
	<path fill="#616567" d="M16.3,92.7V84h2.9c0.6,0,1.2,0.1,1.6,0.2c0.4,0.1,0.8,0.3,1.1,0.5s0.5,0.5,0.6,0.8c0.1,0.3,0.2,0.7,0.2,1
		c0,0.3,0,0.6-0.1,0.8c-0.1,0.3-0.2,0.5-0.3,0.7c-0.2,0.2-0.3,0.4-0.6,0.6c-0.2,0.2-0.5,0.3-0.8,0.4c0.1,0.1,0.3,0.2,0.4,0.3
		s0.2,0.2,0.3,0.4l1.9,3h-1.8c-0.3,0-0.6-0.1-0.7-0.4l-1.5-2.5c-0.1-0.1-0.1-0.2-0.2-0.2s-0.2-0.1-0.4-0.1h-0.5v3.2H16.3z
		 M18.3,88.1h0.8c0.3,0,0.5,0,0.7-0.1c0.2-0.1,0.4-0.2,0.5-0.3s0.2-0.3,0.3-0.4s0.1-0.3,0.1-0.5c0-0.4-0.1-0.7-0.4-0.9
		c-0.3-0.2-0.6-0.3-1.2-0.3h-0.8V88.1z"/>
	<path fill="#616567" d="M24.2,92.7V84h5.6v1.6h-3.6v2H29v1.5h-2.8v2.1h3.6v1.6H24.2z"/>
	<path fill="#616567" d="M30.5,88.4c0-0.6,0.1-1.2,0.3-1.8c0.2-0.5,0.5-1,0.9-1.4s0.9-0.7,1.4-0.9s1.2-0.3,1.9-0.3s1.3,0.1,1.9,0.3
		c0.6,0.2,1,0.5,1.4,0.9s0.7,0.9,0.9,1.4c0.2,0.5,0.3,1.1,0.3,1.8c0,0.4,0,0.7-0.1,1.1c-0.1,0.3-0.2,0.7-0.3,1
		c-0.1,0.3-0.3,0.6-0.5,0.8s-0.5,0.5-0.7,0.7l2.2,2.4h-1.7c-0.2,0-0.5,0-0.7-0.1s-0.4-0.2-0.5-0.4l-1.1-1.2c-0.2,0-0.4,0.1-0.5,0.1
		s-0.4,0-0.6,0c-0.7,0-1.3-0.1-1.9-0.3s-1-0.5-1.4-0.9c-0.4-0.4-0.7-0.9-0.9-1.4S30.5,89,30.5,88.4z M32.6,88.4
		c0,0.4,0.1,0.8,0.2,1.2s0.3,0.6,0.5,0.9s0.5,0.4,0.8,0.5c0.3,0.1,0.7,0.2,1,0.2c0.4,0,0.7-0.1,1-0.2c0.3-0.1,0.6-0.3,0.8-0.5
		s0.4-0.5,0.5-0.9c0.1-0.3,0.2-0.7,0.2-1.2s-0.1-0.8-0.2-1.2c-0.1-0.3-0.3-0.6-0.5-0.9s-0.5-0.4-0.8-0.6s-0.6-0.2-1-0.2
		s-0.7,0.1-1,0.2s-0.6,0.3-0.8,0.6s-0.4,0.5-0.5,0.9C32.7,87.6,32.6,87.9,32.6,88.4z"/>
	<path fill="#616567" d="M40.5,89.2V84h2v5.2c0,0.3,0,0.6,0.1,0.8c0.1,0.2,0.2,0.4,0.3,0.6c0.1,0.2,0.3,0.3,0.5,0.4
		c0.2,0.1,0.5,0.1,0.7,0.1c0.3,0,0.5,0,0.7-0.1c0.2-0.1,0.4-0.2,0.5-0.4c0.1-0.2,0.3-0.4,0.3-0.6c0.1-0.2,0.1-0.5,0.1-0.8V84h2v5.2
		c0,0.5-0.1,1-0.3,1.5c-0.2,0.4-0.4,0.8-0.7,1.2c-0.3,0.3-0.7,0.6-1.2,0.8c-0.5,0.2-1,0.3-1.6,0.3c-0.6,0-1.1-0.1-1.6-0.3
		c-0.5-0.2-0.9-0.4-1.2-0.8c-0.3-0.3-0.6-0.7-0.7-1.2C40.6,90.2,40.5,89.7,40.5,89.2z"/>
	<path fill="#616567" d="M49.5,92.7V84h2v8.7H49.5z"/>
	<path fill="#616567" d="M52.5,91.7l0.6-0.9c0-0.1,0.1-0.1,0.2-0.2s0.2-0.1,0.3-0.1c0.1,0,0.2,0,0.4,0.1s0.3,0.2,0.4,0.3
		s0.3,0.2,0.5,0.3c0.2,0.1,0.4,0.1,0.7,0.1c0.4,0,0.7-0.1,0.9-0.2c0.2-0.2,0.3-0.4,0.3-0.8c0-0.2-0.1-0.4-0.2-0.5
		c-0.1-0.1-0.3-0.2-0.4-0.3c-0.2-0.1-0.4-0.2-0.6-0.2c-0.2-0.1-0.5-0.1-0.7-0.2c-0.2-0.1-0.5-0.2-0.7-0.3c-0.2-0.1-0.4-0.3-0.6-0.4
		c-0.2-0.2-0.3-0.4-0.4-0.7s-0.2-0.6-0.2-1c0-0.3,0.1-0.7,0.2-1c0.1-0.3,0.3-0.6,0.6-0.8c0.3-0.2,0.6-0.4,1-0.6
		c0.4-0.1,0.8-0.2,1.3-0.2c0.3,0,0.5,0,0.8,0.1c0.3,0,0.5,0.1,0.7,0.2s0.4,0.2,0.6,0.3s0.4,0.2,0.5,0.4L58,85.8
		C58,85.9,57.9,86,57.9,86c-0.1,0-0.2,0.1-0.3,0.1c-0.1,0-0.2,0-0.3-0.1c-0.1-0.1-0.2-0.1-0.4-0.2s-0.3-0.1-0.5-0.2
		s-0.4-0.1-0.6-0.1c-0.4,0-0.7,0.1-0.8,0.2c-0.2,0.2-0.3,0.4-0.3,0.7c0,0.2,0.1,0.3,0.2,0.4s0.3,0.2,0.4,0.3s0.4,0.2,0.6,0.2
		c0.2,0.1,0.5,0.1,0.7,0.2s0.5,0.2,0.7,0.3s0.4,0.3,0.6,0.4c0.2,0.2,0.3,0.4,0.4,0.7c0.1,0.3,0.2,0.6,0.2,0.9c0,0.4-0.1,0.8-0.2,1.1
		s-0.3,0.7-0.6,0.9c-0.3,0.3-0.6,0.5-1,0.6s-0.8,0.2-1.3,0.2c-0.3,0-0.6,0-0.8-0.1c-0.3-0.1-0.6-0.1-0.8-0.2s-0.5-0.2-0.7-0.4
		S52.7,91.9,52.5,91.7z"/>
	<path fill="#616567" d="M59.8,92.7V84h2v8.7H59.8z"/>
	<path fill="#616567" d="M63,88.4c0-0.7,0.1-1.3,0.3-1.8s0.5-1,0.9-1.4s0.9-0.7,1.4-0.9s1.2-0.3,1.9-0.3c0.3,0,0.6,0,0.9,0.1
		c0.3,0.1,0.6,0.1,0.8,0.2s0.5,0.2,0.7,0.4c0.2,0.1,0.4,0.3,0.6,0.5L69.9,86c0,0.1-0.1,0.1-0.2,0.2s-0.1,0.1-0.2,0.1
		c-0.1,0-0.1,0-0.2,0s-0.1-0.1-0.2-0.1s-0.2-0.1-0.2-0.1s-0.2-0.1-0.3-0.1s-0.3-0.1-0.4-0.1s-0.3,0-0.6,0c-0.4,0-0.7,0.1-1,0.2
		c-0.3,0.1-0.6,0.3-0.8,0.6c-0.2,0.2-0.4,0.5-0.5,0.9s-0.2,0.7-0.2,1.2c0,0.4,0.1,0.8,0.2,1.2c0.1,0.3,0.3,0.6,0.5,0.9
		c0.2,0.2,0.5,0.4,0.7,0.5c0.3,0.1,0.6,0.2,0.9,0.2c0.2,0,0.4,0,0.5,0c0.2,0,0.3,0,0.4-0.1c0.1,0,0.3-0.1,0.4-0.2s0.2-0.2,0.4-0.3
		c0,0,0.1-0.1,0.2-0.1c0.1,0,0.1,0,0.2,0c0,0,0.1,0,0.1,0c0,0,0.1,0,0.1,0.1l0.8,0.8c-0.4,0.5-0.8,0.8-1.3,1
		c-0.5,0.2-1.2,0.4-1.9,0.4c-0.7,0-1.3-0.1-1.8-0.3c-0.5-0.2-1-0.5-1.3-0.9c-0.4-0.4-0.6-0.9-0.8-1.4C63.1,89.6,63,89,63,88.4z"/>
	<path fill="#616567" d="M70.9,88.4c0-0.6,0.1-1.2,0.3-1.8c0.2-0.5,0.5-1,0.9-1.4s0.9-0.7,1.4-0.9s1.2-0.3,1.9-0.3s1.3,0.1,1.9,0.3
		c0.6,0.2,1,0.5,1.4,0.9s0.7,0.9,0.9,1.4c0.2,0.5,0.3,1.1,0.3,1.8c0,0.6-0.1,1.2-0.3,1.8s-0.5,1-0.9,1.4c-0.4,0.4-0.9,0.7-1.4,0.9
		s-1.2,0.3-1.9,0.3s-1.3-0.1-1.9-0.3s-1-0.5-1.4-0.9c-0.4-0.4-0.7-0.9-0.9-1.4S70.9,89,70.9,88.4z M73,88.4c0,0.4,0.1,0.8,0.2,1.2
		s0.3,0.6,0.5,0.9s0.5,0.4,0.8,0.5c0.3,0.1,0.7,0.2,1,0.2c0.4,0,0.7-0.1,1-0.2c0.3-0.1,0.6-0.3,0.8-0.5s0.4-0.5,0.5-0.9
		c0.1-0.3,0.2-0.7,0.2-1.2s-0.1-0.8-0.2-1.2c-0.1-0.3-0.3-0.6-0.5-0.9s-0.5-0.4-0.8-0.6s-0.6-0.2-1-0.2s-0.7,0.1-1,0.2
		s-0.6,0.3-0.8,0.6s-0.4,0.5-0.5,0.9C73,87.6,73,87.9,73,88.4z"/>
	<path fill="#616567" d="M81,92.7V84h5.6v1.6H83v2h2.8v1.5H83v2.1h3.6v1.6H81z"/>
	<path fill="#616567" d="M87.1,91.7l0.6-0.9c0-0.1,0.1-0.1,0.2-0.2s0.2-0.1,0.3-0.1c0.1,0,0.2,0,0.4,0.1s0.3,0.2,0.4,0.3
		s0.3,0.2,0.5,0.3c0.2,0.1,0.4,0.1,0.7,0.1c0.4,0,0.7-0.1,0.9-0.2c0.2-0.2,0.3-0.4,0.3-0.8c0-0.2-0.1-0.4-0.2-0.5
		c-0.1-0.1-0.3-0.2-0.4-0.3c-0.2-0.1-0.4-0.2-0.6-0.2c-0.2-0.1-0.5-0.1-0.7-0.2c-0.2-0.1-0.5-0.2-0.7-0.3c-0.2-0.1-0.4-0.3-0.6-0.4
		c-0.2-0.2-0.3-0.4-0.4-0.7s-0.2-0.6-0.2-1c0-0.3,0.1-0.7,0.2-1c0.1-0.3,0.3-0.6,0.6-0.8s0.6-0.4,1-0.6c0.4-0.1,0.8-0.2,1.3-0.2
		c0.3,0,0.5,0,0.8,0.1c0.3,0,0.5,0.1,0.7,0.2c0.2,0.1,0.4,0.2,0.6,0.3c0.2,0.1,0.4,0.2,0.5,0.4l-0.5,0.9c-0.1,0.1-0.1,0.2-0.2,0.2
		c-0.1,0-0.2,0.1-0.3,0.1c-0.1,0-0.2,0-0.3-0.1c-0.1-0.1-0.2-0.1-0.4-0.2s-0.3-0.1-0.5-0.2c-0.2-0.1-0.4-0.1-0.6-0.1
		c-0.4,0-0.7,0.1-0.8,0.2c-0.2,0.2-0.3,0.4-0.3,0.7c0,0.2,0.1,0.3,0.2,0.4c0.1,0.1,0.3,0.2,0.4,0.3c0.2,0.1,0.4,0.2,0.6,0.2
		c0.2,0.1,0.5,0.1,0.7,0.2s0.5,0.2,0.7,0.3s0.4,0.3,0.6,0.4s0.3,0.4,0.4,0.7c0.1,0.3,0.2,0.6,0.2,0.9c0,0.4-0.1,0.8-0.2,1.1
		c-0.1,0.4-0.3,0.7-0.6,0.9c-0.3,0.3-0.6,0.5-1,0.6s-0.8,0.2-1.3,0.2c-0.3,0-0.6,0-0.8-0.1c-0.3-0.1-0.6-0.1-0.8-0.2
		s-0.5-0.2-0.7-0.4S87.3,91.9,87.1,91.7z"/>
	<path fill="#616567" d="M96.6,92.7V84h3.4c0.7,0,1.3,0.1,1.9,0.3s1,0.5,1.4,0.9s0.7,0.8,0.9,1.4c0.2,0.5,0.3,1.1,0.3,1.7
		c0,0.6-0.1,1.2-0.3,1.7c-0.2,0.5-0.5,1-0.9,1.4s-0.9,0.7-1.4,0.9s-1.2,0.3-1.9,0.3H96.6z M98.6,91.2h1.4c0.4,0,0.7-0.1,1-0.2
		c0.3-0.1,0.6-0.3,0.8-0.6s0.4-0.5,0.5-0.9s0.2-0.7,0.2-1.2s-0.1-0.8-0.2-1.2s-0.3-0.6-0.5-0.9s-0.5-0.4-0.8-0.6
		c-0.3-0.1-0.7-0.2-1-0.2h-1.4V91.2z"/>
	<path fill="#616567" d="M105.5,92.7V84h5.6v1.6h-3.6v2h2.8v1.5h-2.8v2.1h3.6v1.6H105.5z"/>
	<path fill="#616567" d="M38.2,107.7V99h3.1c0.6,0,1.1,0.1,1.6,0.2c0.4,0.1,0.8,0.3,1.1,0.6c0.3,0.3,0.5,0.6,0.6,0.9
		s0.2,0.7,0.2,1.1c0,0.4-0.1,0.8-0.2,1.2c-0.1,0.4-0.4,0.7-0.6,0.9c-0.3,0.3-0.7,0.5-1.1,0.6c-0.4,0.1-1,0.2-1.6,0.2h-1.1v2.9H38.2z
		 M40.2,103.3h1.1c0.5,0,0.9-0.1,1.1-0.4s0.3-0.6,0.3-1.1c0-0.2,0-0.4-0.1-0.5c-0.1-0.2-0.2-0.3-0.3-0.4c-0.1-0.1-0.3-0.2-0.5-0.3
		c-0.2-0.1-0.4-0.1-0.7-0.1h-1.1V103.3z"/>
	<path fill="#616567" d="M45.8,107.7V99h5.6v1.6h-3.6v2h2.8v1.5h-2.8v2.1h3.6v1.6H45.8z"/>
	<path fill="#616567" d="M52.6,107.7V99H56c0.7,0,1.3,0.1,1.9,0.3s1,0.5,1.4,0.9c0.4,0.4,0.7,0.8,0.9,1.4s0.3,1.1,0.3,1.7
		c0,0.6-0.1,1.2-0.3,1.7s-0.5,1-0.9,1.4c-0.4,0.4-0.9,0.7-1.4,0.9s-1.2,0.3-1.9,0.3H52.6z M54.6,106.2H56c0.4,0,0.7-0.1,1-0.2
		c0.3-0.1,0.6-0.3,0.8-0.6c0.2-0.2,0.4-0.5,0.5-0.9c0.1-0.3,0.2-0.7,0.2-1.2s-0.1-0.8-0.2-1.2c-0.1-0.3-0.3-0.6-0.5-0.9
		c-0.2-0.2-0.5-0.4-0.8-0.6c-0.3-0.1-0.7-0.2-1-0.2h-1.4V106.2z"/>
	<path fill="#616567" d="M61.7,107.7V99h2v8.7H61.7z"/>
	<path fill="#616567" d="M65.3,107.7V99h3.4c0.7,0,1.3,0.1,1.9,0.3s1,0.5,1.4,0.9s0.7,0.8,0.9,1.4c0.2,0.5,0.3,1.1,0.3,1.7
		c0,0.6-0.1,1.2-0.3,1.7c-0.2,0.5-0.5,1-0.9,1.4s-0.9,0.7-1.4,0.9s-1.2,0.3-1.9,0.3H65.3z M67.4,106.2h1.4c0.4,0,0.7-0.1,1-0.2
		c0.3-0.1,0.6-0.3,0.8-0.6s0.4-0.5,0.5-0.9s0.2-0.7,0.2-1.2s-0.1-0.8-0.2-1.2s-0.3-0.6-0.5-0.9s-0.5-0.4-0.8-0.6
		c-0.3-0.1-0.7-0.2-1-0.2h-1.4V106.2z"/>
	<path fill="#616567" d="M73.8,103.4c0-0.6,0.1-1.2,0.3-1.8c0.2-0.5,0.5-1,0.9-1.4s0.9-0.7,1.4-0.9s1.2-0.3,1.9-0.3s1.3,0.1,1.9,0.3
		s1,0.5,1.4,0.9s0.7,0.9,0.9,1.4c0.2,0.5,0.3,1.1,0.3,1.8c0,0.6-0.1,1.2-0.3,1.8s-0.5,1-0.9,1.4s-0.9,0.7-1.4,0.9s-1.2,0.3-1.9,0.3
		s-1.3-0.1-1.9-0.3s-1-0.5-1.4-0.9s-0.7-0.9-0.9-1.4S73.8,104,73.8,103.4z M75.8,103.4c0,0.4,0.1,0.8,0.2,1.2
		c0.1,0.3,0.3,0.6,0.5,0.9s0.5,0.4,0.8,0.5s0.7,0.2,1,0.2c0.4,0,0.7-0.1,1-0.2s0.6-0.3,0.8-0.5s0.4-0.5,0.5-0.9
		c0.1-0.3,0.2-0.7,0.2-1.2s-0.1-0.8-0.2-1.2c-0.1-0.3-0.3-0.6-0.5-0.9c-0.2-0.2-0.5-0.4-0.8-0.6s-0.6-0.2-1-0.2s-0.7,0.1-1,0.2
		s-0.6,0.3-0.8,0.6c-0.2,0.2-0.4,0.5-0.5,0.9C75.9,102.6,75.8,102.9,75.8,103.4z"/>
	<path fill="#616567" d="M83.2,106.7l0.6-0.9c0-0.1,0.1-0.1,0.2-0.2s0.2-0.1,0.3-0.1c0.1,0,0.2,0,0.4,0.1s0.3,0.2,0.4,0.3
		s0.3,0.2,0.5,0.3s0.4,0.1,0.7,0.1c0.4,0,0.7-0.1,0.9-0.2c0.2-0.2,0.3-0.4,0.3-0.8c0-0.2-0.1-0.4-0.2-0.5c-0.1-0.1-0.3-0.2-0.4-0.3
		c-0.2-0.1-0.4-0.2-0.6-0.2c-0.2-0.1-0.5-0.1-0.7-0.2s-0.5-0.2-0.7-0.3c-0.2-0.1-0.4-0.3-0.6-0.4c-0.2-0.2-0.3-0.4-0.4-0.7
		c-0.1-0.3-0.2-0.6-0.2-1c0-0.3,0.1-0.7,0.2-1s0.3-0.6,0.6-0.8s0.6-0.4,1-0.6c0.4-0.1,0.8-0.2,1.3-0.2c0.3,0,0.5,0,0.8,0.1
		c0.3,0,0.5,0.1,0.7,0.2c0.2,0.1,0.4,0.2,0.6,0.3c0.2,0.1,0.4,0.2,0.5,0.4l-0.5,0.9c-0.1,0.1-0.1,0.2-0.2,0.2
		c-0.1,0-0.2,0.1-0.3,0.1c-0.1,0-0.2,0-0.3-0.1c-0.1-0.1-0.2-0.1-0.4-0.2c-0.1-0.1-0.3-0.1-0.5-0.2c-0.2-0.1-0.4-0.1-0.6-0.1
		c-0.4,0-0.7,0.1-0.8,0.2c-0.2,0.2-0.3,0.4-0.3,0.7c0,0.2,0.1,0.3,0.2,0.4c0.1,0.1,0.3,0.2,0.4,0.3c0.2,0.1,0.4,0.2,0.6,0.2
		c0.2,0.1,0.5,0.1,0.7,0.2c0.2,0.1,0.5,0.2,0.7,0.3s0.4,0.3,0.6,0.4s0.3,0.4,0.4,0.7c0.1,0.3,0.2,0.6,0.2,0.9c0,0.4-0.1,0.8-0.2,1.1
		c-0.1,0.4-0.3,0.7-0.6,0.9c-0.3,0.3-0.6,0.5-1,0.6s-0.8,0.2-1.3,0.2c-0.3,0-0.6,0-0.8-0.1c-0.3-0.1-0.6-0.1-0.8-0.2
		s-0.5-0.2-0.7-0.4S83.4,106.9,83.2,106.7z"/>
</g>
<g>
	<path fill="#616567" d="M78.1,81.6c0.1,0.1,0.2,0.1,0.3,0.2c0.1,0.1,0.1,0.2,0.2,0.2c0,0.1,0.1,0.2,0.1,0.2c0,0.1-0.1,0.3-0.2,0.4
		s-0.3,0.2-0.5,0.3c-0.2,0.1-0.4,0.1-0.7,0.2c-0.3,0-0.5,0.1-0.8,0.1c-0.3,0-0.5,0-0.7,0c-0.2,0-0.4-0.1-0.5-0.1
		c-0.1-0.1-0.2-0.1-0.3-0.2c-0.1-0.1-0.2-0.1-0.2-0.2c-0.1-0.1-0.1-0.1-0.2-0.2c0-0.1-0.1-0.1-0.2-0.2c-0.1-0.1-0.1-0.1-0.2-0.1
		c-0.1,0-0.2,0-0.3,0c-0.2,0-0.4,0-0.5,0.1c-0.1,0.1-0.2,0.1-0.2,0.2c0,0.1,0,0.1,0.1,0.2c0,0,0.1,0.1,0.1,0.1s0.1,0.1,0.1,0.1
		c0,0,0.1,0.1,0.1,0.1c0,0,0,0.1-0.1,0.1c0,0-0.1,0-0.2,0.1l-0.7,0.1c-0.1,0-0.2-0.1-0.3-0.2c-0.1-0.1-0.2-0.1-0.2-0.2
		c-0.1-0.1-0.1-0.1-0.1-0.2c0-0.1,0-0.1,0-0.2c0-0.1,0.1-0.3,0.2-0.4c0.1-0.1,0.3-0.2,0.4-0.3c0.2-0.1,0.4-0.1,0.6-0.2
		c0.2,0,0.5-0.1,0.7-0.1c0.3,0,0.6,0,0.8,0c0.2,0,0.4,0.1,0.5,0.1c0.1,0.1,0.2,0.1,0.3,0.2c0.1,0.1,0.1,0.1,0.2,0.2
		c0.1,0.1,0.1,0.1,0.1,0.2c0,0.1,0.1,0.1,0.2,0.2c0.1,0.1,0.1,0.1,0.2,0.1c0.1,0,0.2,0,0.4,0c0.3,0,0.5,0,0.6-0.1
		c0.1-0.1,0.2-0.1,0.2-0.2c0-0.1,0-0.1-0.1-0.2c-0.1-0.1-0.1-0.1-0.2-0.2c-0.1,0-0.1-0.1-0.2-0.1c-0.1,0-0.1-0.1-0.1-0.1
		c0,0,0-0.1,0.1-0.1c0,0,0.1,0,0.1-0.1l0.7-0.2C77.8,81.4,78,81.5,78.1,81.6z"/>
</g>
<g>
	<path fill="#616567" d="M66,92.2c-0.1,0.1-0.2,0.1-0.4,0.2c0.1,0,0.2,0.1,0.2,0.1l0.1,1.3c0,0.2,0.1,0.3,0.2,0.5s0.2,0.3,0.4,0.4
		l1,0.8l-0.2-2.6c0.3,0,0.5,0,0.8-0.1c0,0,0,0,0,0c0,0,0,0,0,0C67.3,92.8,66.6,92.6,66,92.2z"/>
</g>
<path fill-rule="evenodd" clip-rule="evenodd" fill="#FFFFFF" d="M60.4,17.4L53.9,24l-6.6,6.5l-3,3c-1,1-1.5,1.9-1.5,2.9
	c0,0.8,0.2,1.4,0.7,1.8l-0.8-0.9l-0.8-0.9c-0.3-0.4-0.4-0.9-0.4-1.5c0-0.8,0.2-1.3,0.5-1.6l6.7-6.8l3.9-3.9l3-3l7.7-7.6
	c0.3-0.4,0.9-0.5,1.6-0.5c0.7,0,1.2,0.1,1.5,0.4l0.9,0.8l0.9,0.8c-0.4-0.4-1-0.5-1.8-0.5c-1.3,0-2.3,0.4-3.1,1.3L60.4,17.4z
	 M62.9,20l-6.6,6.6l-6.6,6.6l-3,3c-1,1-1.5,1.9-1.5,2.9c0,0.7,0.2,1.3,0.7,1.8l-0.8-0.9L44.4,39c-0.3-0.3-0.4-0.8-0.4-1.5
	c0-0.8,0.2-1.3,0.5-1.6l7.3-7.4l3.2-3.2l3-3l7.7-7.7c0.3-0.3,0.9-0.5,1.6-0.5c0.7,0,1.2,0.1,1.5,0.4l0.9,0.8l0.9,0.8
	c-0.5-0.3-1.1-0.5-1.8-0.5c-1.3,0-2.3,0.4-3,1.3L62.9,20z M58.2,26.9l9.9-9.8c0.4-0.4,0.9-0.6,1.5-0.6c0.5,0,1.1,0.2,1.8,0.7
	l3.8,3.8l4.8,4.8l3.8,3.8c0.5,0.4,0.7,0.9,0.7,1.7c0,0.6-0.2,1.2-0.7,1.8l-6.4,6.4l-8.2,8.1l-6.4,6.4c-0.5,0.5-1.1,0.8-1.8,0.8
	c-0.7,0-1.3-0.3-1.6-0.8L55.5,50l-5-4.7l-3.8-3.8c-0.3-0.3-0.4-0.7-0.4-1.4c0-0.8,0.2-1.4,0.6-1.8L58.2,26.9z M48.7,40
	c0,0.7,0.1,1.2,0.4,1.4l3.1,3.1l3.9,3.9l3.1,3.1c0.3,0.4,0.8,0.7,1.5,0.7c0.7,0,1.3-0.2,1.6-0.7l5.7-5.7l7.4-7.3l5.8-5.8
	c0.4-0.4,0.7-1,0.7-1.6c0-0.7-0.2-1.2-0.7-1.5l-3-3.1l-4-3.9l-3-3.1c-0.5-0.4-1-0.6-1.6-0.6c-0.5,0-1,0.2-1.5,0.5l-2.9,3L58.8,29
	l-6.6,6.5l-3,3C48.8,38.8,48.7,39.2,48.7,40z M52.1,37.8l5,5l-1.3,1.1l-4.9-4.9L52.1,37.8z M67.8,26l7.4,7.2l-1.3,1.2l-7.4-7.2
	L67.8,26z M70.3,21.2l9.5,9.7L78.6,32l-9.5-9.6L70.3,21.2z"/>
</svg>
