<?xml version="1.0" encoding="utf-8"?>
<!-- Generator: Adobe Illustrator 18.0.0, SVG Export Plug-In . SVG Version: 6.00 Build 0)  -->
<!DOCTYPE svg PUBLIC "-//W3C//DTD SVG 1.1//EN" "http://www.w3.org/Graphics/SVG/1.1/DTD/svg11.dtd">
<svg version="1.1" id="Camada_1" xmlns="http://www.w3.org/2000/svg" xmlns:xlink="http://www.w3.org/1999/xlink" x="0px" y="0px"
	 viewBox="0 0 179.5 140.7" enable-background="new 0 0 179.5 140.7" xml:space="preserve">
<path fill-rule="evenodd" clip-rule="evenodd" fill="#16A5C4" d="M33.5,0h110c5.5,0,10,4.5,10,10v82c0,5.5-4.5,10-10,10h-110
	c-5.5,0-10-4.5-10-10V10C23.5,4.5,28,0,33.5,0z"/>
<path fill-rule="evenodd" clip-rule="evenodd" fill="#FFFFFF" d="M72.1,29.2v-1.3h-0.5v33.5h12v12.2h23.9V27.9h-1v1.3
	c0,0.4-0.1,0.8-0.3,1.1c-0.1,0.3-0.3,0.5-0.5,0.7l0,0l0,0c-0.5,0.4-1.1,0.7-1.7,0.7H74.6C73.2,31.7,72.1,30.6,72.1,29.2z
	 M103.9,29.1v-1.6c0,0,0-0.1,0-0.1c0,0,0-0.1,0-0.1l0-0.1l0,0l0,0l0,0l0-0.1c0-0.1,0-0.1-0.1-0.1c0,0,0-0.1,0-0.1
	c0-0.1-0.1-0.1-0.1-0.2l0,0l0,0c0-0.1-0.1-0.1-0.2-0.2c-0.4-0.4-0.9-0.6-1.5-0.7c-0.2,0-0.3,0-0.5,0h-7.6v-1l0-4.2l0-0.2
	c0-2.3-1.9-4.2-4.2-4.2c-2.3,0-4.2,1.9-4.2,4.2c0,0.1,0,0.1,0,0.2l0,0v5.2H77c-0.2,0-0.3,0-0.5,0l0,0l0,0c-0.5,0.1-0.9,0.3-1.2,0.5
	c-0.1,0.1-0.2,0.1-0.2,0.2c0,0,0,0.1-0.1,0.1c0,0.1-0.1,0.1-0.1,0.1c0,0,0,0.1-0.1,0.1l0,0.1l0,0.1l0,0.1l0,0.1l0,0.1
	c0,0,0,0.1,0,0.1l0,0.1c0,0,0,0.1,0,0.1c0,0,0,0.1,0,0.1v1.6H103.9z M105.4,24.8c0.2,0.2,0.3,0.4,0.4,0.6h4.1v50.7H81.7l-0.3-0.3
	l-0.1-0.1L69.5,63.6l-0.1-0.2L69,63.1V25.4h3.6c0.1-0.2,0.3-0.4,0.5-0.6h-5.6V77h44V24.8H105.4z M81,63.9h-7.7l7.7,7.9V63.9z"/>
<g>
	<path fill="#616567" d="M3.9,136.5v-14.6H9c1,0,1.9,0.1,2.6,0.4c0.7,0.2,1.3,0.6,1.8,1c0.5,0.4,0.8,0.9,1.1,1.5s0.3,1.2,0.3,1.9
		c0,0.7-0.1,1.4-0.3,2s-0.6,1.1-1.1,1.6s-1.1,0.8-1.8,1c-0.7,0.2-1.6,0.4-2.6,0.4H7.2v4.9H3.9z M7.2,129.1H9c0.9,0,1.5-0.2,1.9-0.6
		c0.4-0.4,0.6-1,0.6-1.8c0-0.3-0.1-0.6-0.2-0.9s-0.3-0.5-0.5-0.7s-0.5-0.3-0.8-0.5c-0.3-0.1-0.7-0.2-1.1-0.2H7.2V129.1z"/>
	<path fill="#616567" d="M16.6,136.5v-14.6h4.8c1.1,0,2,0.1,2.7,0.3s1.4,0.5,1.8,0.9s0.8,0.8,1,1.4c0.2,0.5,0.3,1.1,0.3,1.7
		c0,0.5-0.1,0.9-0.2,1.3s-0.3,0.8-0.6,1.2c-0.3,0.4-0.6,0.7-0.9,1c-0.4,0.3-0.8,0.5-1.3,0.7c0.2,0.1,0.4,0.3,0.6,0.4
		s0.4,0.4,0.5,0.6l3.1,5.1h-3.1c-0.6,0-1-0.2-1.2-0.6l-2.4-4.2c-0.1-0.2-0.2-0.3-0.4-0.4c-0.1-0.1-0.3-0.1-0.6-0.1H20v5.4H16.6z
		 M20,128.8h1.4c0.5,0,0.9-0.1,1.2-0.2c0.3-0.1,0.6-0.3,0.8-0.5c0.2-0.2,0.4-0.4,0.4-0.7s0.1-0.6,0.1-0.9c0-0.6-0.2-1.1-0.6-1.5
		c-0.4-0.4-1.1-0.5-1.9-0.5H20V128.8z"/>
	<path fill="#616567" d="M29.9,136.5v-14.6h9.4v2.6h-6v3.3h4.6v2.5h-4.6v3.5h6v2.6H29.9z"/>
	<path fill="#616567" d="M41,131.6v-2.5h5.4v2.5H41z"/>
	<path fill="#616567" d="M47.8,129.2c0-1.1,0.2-2,0.5-2.9c0.4-0.9,0.9-1.7,1.5-2.4s1.5-1.2,2.4-1.6s2-0.6,3.1-0.6s2.2,0.2,3.1,0.6
		c0.9,0.4,1.7,0.9,2.4,1.6c0.7,0.7,1.2,1.5,1.5,2.4s0.5,1.9,0.5,2.9c0,1.1-0.2,2-0.5,2.9s-0.9,1.7-1.5,2.4c-0.7,0.7-1.5,1.2-2.4,1.6
		c-0.9,0.4-2,0.6-3.1,0.6s-2.2-0.2-3.1-0.6c-0.9-0.4-1.7-0.9-2.4-1.6c-0.7-0.7-1.2-1.5-1.5-2.4S47.8,130.3,47.8,129.2z M51.3,129.2
		c0,0.7,0.1,1.4,0.3,2s0.5,1.1,0.8,1.5c0.3,0.4,0.8,0.7,1.3,0.9c0.5,0.2,1.1,0.3,1.7,0.3c0.6,0,1.2-0.1,1.7-0.3
		c0.5-0.2,0.9-0.5,1.3-0.9c0.4-0.4,0.6-0.9,0.8-1.5c0.2-0.6,0.3-1.2,0.3-1.9s-0.1-1.4-0.3-1.9c-0.2-0.6-0.5-1.1-0.8-1.5
		c-0.4-0.4-0.8-0.7-1.3-0.9c-0.5-0.2-1.1-0.3-1.7-0.3s-1.2,0.1-1.7,0.3c-0.5,0.2-0.9,0.5-1.3,0.9c-0.3,0.4-0.6,0.9-0.8,1.5
		C51.4,127.8,51.3,128.5,51.3,129.2z"/>
	<path fill="#616567" d="M64.6,136.5v-14.6h4.8c1.1,0,2,0.1,2.7,0.3s1.4,0.5,1.8,0.9s0.8,0.8,1,1.4c0.2,0.5,0.3,1.1,0.3,1.7
		c0,0.5-0.1,0.9-0.2,1.3s-0.3,0.8-0.6,1.2c-0.3,0.4-0.6,0.7-0.9,1c-0.4,0.3-0.8,0.5-1.3,0.7c0.2,0.1,0.4,0.3,0.6,0.4
		s0.4,0.4,0.5,0.6l3.1,5.1h-3.1c-0.6,0-1-0.2-1.2-0.6l-2.4-4.2c-0.1-0.2-0.2-0.3-0.4-0.4c-0.1-0.1-0.3-0.1-0.6-0.1H68v5.4H64.6z
		 M68,128.8h1.4c0.5,0,0.9-0.1,1.2-0.2c0.3-0.1,0.6-0.3,0.8-0.5c0.2-0.2,0.4-0.4,0.4-0.7s0.1-0.6,0.1-0.9c0-0.6-0.2-1.1-0.6-1.5
		c-0.4-0.4-1.1-0.5-1.9-0.5H68V128.8z"/>
	<path fill="#616567" d="M76.5,129.2c0-1.1,0.2-2.1,0.6-3s0.9-1.7,1.6-2.4c0.7-0.7,1.5-1.2,2.4-1.5c0.9-0.4,2-0.5,3.1-0.5
		c0.5,0,1.1,0,1.5,0.1s0.9,0.2,1.4,0.4c0.4,0.2,0.8,0.4,1.2,0.6s0.7,0.5,0.9,0.8l-1.1,1.5c-0.1,0.1-0.2,0.2-0.3,0.3
		s-0.2,0.1-0.4,0.1c-0.1,0-0.2,0-0.3-0.1c-0.1-0.1-0.2-0.1-0.3-0.2c-0.1-0.1-0.3-0.2-0.4-0.2s-0.3-0.2-0.5-0.2s-0.4-0.1-0.7-0.2
		c-0.3-0.1-0.6-0.1-0.9-0.1c-0.6,0-1.2,0.1-1.7,0.3c-0.5,0.2-0.9,0.5-1.3,0.9s-0.6,0.9-0.8,1.5s-0.3,1.2-0.3,1.9
		c0,0.7,0.1,1.4,0.3,2s0.5,1.1,0.8,1.5c0.3,0.4,0.8,0.7,1.2,0.9s1,0.3,1.5,0.3c0.3,0,0.6,0,0.8,0s0.5-0.1,0.7-0.2
		c0.2-0.1,0.4-0.2,0.6-0.3s0.4-0.3,0.6-0.4c0.1-0.1,0.2-0.1,0.3-0.2s0.2-0.1,0.3-0.1c0.1,0,0.2,0,0.2,0c0.1,0,0.2,0.1,0.2,0.2
		l1.3,1.4c-0.6,0.8-1.3,1.4-2.2,1.7c-0.9,0.4-1.9,0.6-3.1,0.6c-1.1,0-2.1-0.2-3-0.6c-0.9-0.4-1.6-0.9-2.2-1.6
		c-0.6-0.7-1.1-1.5-1.4-2.4C76.7,131.2,76.5,130.3,76.5,129.2z"/>
	<path fill="#616567" d="M89.3,136.5l5.6-14.6h3.5l5.6,14.6h-2.6c-0.3,0-0.5-0.1-0.7-0.2c-0.2-0.1-0.3-0.3-0.4-0.5l-0.9-2.5h-5.5
		l-0.9,2.5c-0.1,0.2-0.2,0.4-0.4,0.5c-0.2,0.1-0.4,0.2-0.7,0.2H89.3z M94.7,130.9h4l-1.3-4c-0.1-0.3-0.2-0.6-0.3-0.9
		s-0.2-0.7-0.3-1.1c-0.1,0.4-0.2,0.8-0.3,1.1c-0.1,0.3-0.2,0.6-0.3,0.9L94.7,130.9z"/>
	<path fill="#616567" d="M105.3,136.5v-14.6h2.6c0.1,0,0.3,0,0.4,0c0.1,0,0.2,0,0.3,0.1c0.1,0,0.2,0.1,0.2,0.2
		c0.1,0.1,0.1,0.2,0.2,0.3l3.8,7.4c0.1,0.3,0.3,0.5,0.4,0.8s0.2,0.6,0.4,0.8c0.1-0.3,0.2-0.6,0.4-0.9c0.1-0.3,0.3-0.5,0.4-0.8
		l3.7-7.4c0.1-0.1,0.1-0.2,0.2-0.3c0.1-0.1,0.2-0.1,0.2-0.2c0.1,0,0.2-0.1,0.3-0.1c0.1,0,0.2,0,0.4,0h2.6v14.6h-3v-8.4
		c0-0.4,0-0.8,0.1-1.3l-3.9,7.5c-0.1,0.2-0.3,0.4-0.5,0.5s-0.4,0.2-0.7,0.2h-0.5c-0.3,0-0.5-0.1-0.7-0.2s-0.4-0.3-0.5-0.5l-3.9-7.5
		c0,0.2,0,0.5,0.1,0.7c0,0.2,0,0.4,0,0.6v8.4H105.3z"/>
	<path fill="#616567" d="M124,136.5v-14.6h9.4v2.6h-6v3.3h4.6v2.5h-4.6v3.5h6v2.6H124z"/>
	<path fill="#616567" d="M135.3,136.5v-14.6h1.8c0.1,0,0.3,0,0.4,0c0.1,0,0.2,0,0.3,0.1c0.1,0,0.2,0.1,0.2,0.2s0.2,0.2,0.2,0.3
		l6.9,8.8c0-0.3,0-0.6-0.1-0.8s0-0.5,0-0.7v-7.7h3v14.6h-1.8c-0.3,0-0.5,0-0.7-0.1c-0.2-0.1-0.4-0.2-0.5-0.4l-6.9-8.7
		c0,0.3,0,0.5,0,0.7c0,0.2,0,0.5,0,0.7v7.8H135.3z"/>
	<path fill="#616567" d="M149.4,124.6v-2.7H161v2.7h-4.1v11.9h-3.4v-11.9H149.4z"/>
	<path fill="#616567" d="M161.1,129.2c0-1.1,0.2-2,0.5-2.9c0.4-0.9,0.9-1.7,1.5-2.4s1.5-1.2,2.4-1.6s2-0.6,3.1-0.6s2.2,0.2,3.1,0.6
		c0.9,0.4,1.7,0.9,2.4,1.6c0.7,0.7,1.2,1.5,1.5,2.4s0.5,1.9,0.5,2.9c0,1.1-0.2,2-0.5,2.9s-0.9,1.7-1.5,2.4c-0.7,0.7-1.5,1.2-2.4,1.6
		c-0.9,0.4-2,0.6-3.1,0.6s-2.2-0.2-3.1-0.6c-0.9-0.4-1.7-0.9-2.4-1.6c-0.7-0.7-1.2-1.5-1.5-2.4S161.1,130.3,161.1,129.2z
		 M164.5,129.2c0,0.7,0.1,1.4,0.3,2s0.5,1.1,0.8,1.5c0.3,0.4,0.8,0.7,1.3,0.9c0.5,0.2,1.1,0.3,1.7,0.3c0.6,0,1.2-0.1,1.7-0.3
		c0.5-0.2,0.9-0.5,1.3-0.9c0.4-0.4,0.6-0.9,0.8-1.5c0.2-0.6,0.3-1.2,0.3-1.9s-0.1-1.4-0.3-1.9c-0.2-0.6-0.5-1.1-0.8-1.5
		c-0.4-0.4-0.8-0.7-1.3-0.9c-0.5-0.2-1.1-0.3-1.7-0.3s-1.2,0.1-1.7,0.3c-0.5,0.2-0.9,0.5-1.3,0.9c-0.3,0.4-0.6,0.9-0.8,1.5
		C164.6,127.8,164.5,128.5,164.5,129.2z"/>
</g>
<g>
	<path fill="#616567" d="M37.8,117.6l0.2-0.3l0.6-1c-0.8-0.1-1.6-0.3-2.4-0.3l-2.9,4.2l2,0.3c0.2,0,0.4,0,0.6-0.1
		c0.2-0.1,0.3-0.2,0.3-0.3l0.9-1.4l0.2-0.3C37.7,118,37.6,118,37.8,117.6z"/>
</g>
<g>
	<path fill="#616567" d="M84.6,135c-0.2-0.2-0.4-0.4-0.7-0.5c-0.3-0.1-0.5-0.3-0.6-0.5c0,0-0.1,0-0.1,0c-0.4,0-0.8,0-1.2-0.2
		c-0.4-0.1-0.8-0.4-1.1-0.7c0,0,0,0,0,0c-0.4,0.4-0.8,0.8-1.1,1.3c-0.1,0.1-0.1,0.3-0.2,0.4c0.1,0.1,0.3,0.2,0.4,0.3
		c0.2,0.1,0.4,0.3,0.6,0.4l-0.1,2c0,0.3,0,0.5,0.2,0.8c0.1,0.2,0.3,0.4,0.5,0.6l1.5,1.4l0.1-4.1c0.4,0,0.8,0,1.3,0
		c0.3,0,0.7-0.1,1-0.2C84.8,135.6,84.7,135.3,84.6,135z"/>
</g>
</svg>
