<?xml version="1.0" encoding="utf-8"?>
<!-- Generator: Adobe Illustrator 18.0.0, SVG Export Plug-In . SVG Version: 6.00 Build 0)  -->
<!DOCTYPE svg PUBLIC "-//W3C//DTD SVG 1.1//EN" "http://www.w3.org/Graphics/SVG/1.1/DTD/svg11.dtd">
<svg version="1.1" id="Camada_1" xmlns="http://www.w3.org/2000/svg" xmlns:xlink="http://www.w3.org/1999/xlink" x="0px" y="0px"
	 viewBox="0 0 31 32" enable-background="new 0 0 31 32" xml:space="preserve">
<path fill="#583218" d="M18.7,16.4c0-1.7-1.4-3.1-3.1-3.1c-1.7,0-3.1,1.4-3.1,3.1c0,1.7,1.4,3.1,3.1,3.1
	C17.3,19.5,18.7,18.1,18.7,16.4z"/>
<path fill="#7A3709" d="M15.7,8.8c1.6,0,3.1,0.5,4.3,1.4h5.8H31V8c0-4.4-3.5-8-7.7-8H7.7C3.5,0,0,3.6,0,8v2.2h11.4
	C12.6,9.3,14.1,8.8,15.7,8.8z M22,4.8C22,4.4,22.4,4,22.9,4h2.7c0.5,0,0.9,0.4,0.9,0.9v2.7c0,0.5-0.4,0.9-0.9,0.9h-2.7
	c-0.5,0-0.9-0.4-0.9-0.9V4.8z"/>
<path fill="#53311B" d="M23,16.4c0,4.2-3.3,7.6-7.4,7.6c-4.1,0-7.4-3.4-7.4-7.6c0-1.1,0.3-2.2,0.7-3.2H0V24c0,4.4,3.5,8,7.7,8h15.5
	c4.3,0,7.7-3.6,7.7-8V13.1h-8.7C22.8,14.1,23,15.2,23,16.4z"/>
</svg>
