<?xml version="1.0" encoding="utf-8"?>
<!-- Generator: Adobe Illustrator 18.0.0, SVG Export Plug-In . SVG Version: 6.00 Build 0)  -->
<!DOCTYPE svg PUBLIC "-//W3C//DTD SVG 1.1//EN" "http://www.w3.org/Graphics/SVG/1.1/DTD/svg11.dtd">
<svg version="1.1" id="Camada_1" xmlns="http://www.w3.org/2000/svg" xmlns:xlink="http://www.w3.org/1999/xlink" x="0px" y="0px"
	 viewBox="0 0 26 26" enable-background="new 0 0 26 26" xml:space="preserve">
<path fill-rule="evenodd" clip-rule="evenodd" fill="#CCDCDC" d="M13,0C5.8,0,0,5.8,0,13c0,7.2,5.8,13,13,13s13-5.8,13-13
	C26,5.8,20.2,0,13,0z M13,24.4C6.7,24.4,1.6,19.3,1.6,13C1.6,6.7,6.7,1.6,13,1.6c6.3,0,11.4,5.1,11.4,11.4
	C24.4,19.3,19.3,24.4,13,24.4z"/>
<path fill-rule="evenodd" clip-rule="evenodd" fill="#0E4550" d="M20.3,5.9c-2-2-4.5-3-7.3-3c-2.8,0-5.3,1.1-7.3,3
	c-2,1.9-3,4.5-3,7.3c0,2.8,1.1,5.3,3,7.3c2,1.9,4.5,3,7.3,3c2.8,0,5.3-1.1,7.3-3c2-2,3-4.5,3-7.3C23.3,10.4,22.3,7.8,20.3,5.9z
	 M17.7,19.2l-0.1,0.3h-0.3c-0.3,0-0.5-0.2-0.6-0.3l-2.9-3.9c-0.2,0.1-0.5,0.2-0.8,0.2c-0.6,0-1.1-0.3-1.4-0.7l-1.9,0.6
	c0,0-0.1,0-0.2,0c-0.2,0-0.4-0.1-0.5-0.4l0,0c0-0.1,0-0.3,0-0.4c0.1-0.1,0.2-0.2,0.3-0.3l1.9-0.6c0,0,0,0,0,0c0-0.9,0.7-1.7,1.6-1.8
	l0.6-4.5c0-0.3,0.3-0.5,0.5-0.5h0l0,0l0,0c0.1,0,0.3,0.1,0.4,0.2c0.1,0.1,0.1,0.3,0.1,0.4l-0.6,4.5c0.6,0.3,0.9,0.9,0.9,1.6
	c0,0.3-0.1,0.7-0.3,1l3,3.9C17.7,18.8,17.7,19,17.7,19.2z"/>
<path fill="#5F99A3" d="M13,13c-0.4,0-0.7,0.3-0.7,0.7c0,0.4,0.3,0.7,0.7,0.7c0.4,0,0.7-0.3,0.7-0.7C13.7,13.3,13.4,13,13,13z"/>
</svg>
