<?xml version="1.0" encoding="utf-8"?>
<!-- Generator: Adobe Illustrator 18.0.0, SVG Export Plug-In . SVG Version: 6.00 Build 0)  -->
<!DOCTYPE svg PUBLIC "-//W3C//DTD SVG 1.1//EN" "http://www.w3.org/Graphics/SVG/1.1/DTD/svg11.dtd">
<svg version="1.1" id="Camada_1" xmlns="http://www.w3.org/2000/svg" xmlns:xlink="http://www.w3.org/1999/xlink" x="0px" y="0px"
	 viewBox="0 0 179.5 140.7" enable-background="new 0 0 179.5 140.7" xml:space="preserve">
<path fill-rule="evenodd" clip-rule="evenodd" fill="#16A5C4" d="M33.5,0h110c5.5,0,10,4.5,10,10v82c0,5.5-4.5,10-10,10h-110
	c-5.5,0-10-4.5-10-10V10C23.5,4.5,28,0,33.5,0z"/>
<g>
	<path fill="#FFFFFF" d="M70.1,76.8c0,0.2,0,0.3,0.1,0.4c0.1,0,0.2,0,0.4-0.2l13.9-9.4H70.1V76.8z"/>
	<path fill-rule="evenodd" clip-rule="evenodd" fill="#FFFFFF" d="M111.7,29H64.4c-0.8,0-1.4,0.7-1.4,1.5v33.4
		c0,0.8,0.6,1.5,1.4,1.5h47.4c0.8,0,1.4-0.7,1.4-1.5V30.5C113.1,29.7,112.5,29,111.7,29z M76.8,51L76.8,51c-2.1,0-3.7-1.8-3.7-4
		c0-2.2,1.7-4,3.7-4c2.1,0,3.7,1.8,3.7,4C80.6,49.2,78.9,51,76.8,51z M88.1,51L88.1,51c-2.1,0-3.7-1.8-3.7-4c0-2.2,1.7-4,3.7-4
		c2.1,0,3.7,1.8,3.7,4C91.8,49.2,90.1,51,88.1,51z M99.3,51L99.3,51c-2.1,0-3.7-1.8-3.7-4c0-2.2,1.7-4,3.7-4c2.1,0,3.7,1.8,3.7,4
		C103,49.2,101.4,51,99.3,51z"/>
</g>
<g>
	<path fill="#616567" d="M43.6,136v-14.6h5.6c1.1,0,2.2,0.2,3.1,0.6c0.9,0.4,1.7,0.9,2.4,1.5s1.2,1.4,1.5,2.3
		c0.4,0.9,0.5,1.9,0.5,2.9c0,1.1-0.2,2-0.5,2.9s-0.9,1.7-1.5,2.3c-0.7,0.6-1.5,1.2-2.4,1.5c-0.9,0.4-2,0.5-3.1,0.5H43.6z M47,133.4
		h2.3c0.6,0,1.2-0.1,1.7-0.3c0.5-0.2,0.9-0.5,1.3-0.9c0.4-0.4,0.6-0.9,0.8-1.5c0.2-0.6,0.3-1.2,0.3-2s-0.1-1.4-0.3-2
		c-0.2-0.6-0.5-1.1-0.8-1.5c-0.4-0.4-0.8-0.7-1.3-0.9c-0.5-0.2-1.1-0.3-1.7-0.3H47V133.4z"/>
	<path fill="#616567" d="M58.3,130.1v-8.6h3.4v8.6c0,0.5,0.1,1,0.2,1.4s0.3,0.7,0.6,1c0.2,0.3,0.6,0.5,0.9,0.7
		c0.4,0.2,0.8,0.2,1.2,0.2c0.5,0,0.9-0.1,1.2-0.2c0.4-0.1,0.7-0.4,0.9-0.7c0.2-0.3,0.4-0.6,0.6-1c0.1-0.4,0.2-0.9,0.2-1.4v-8.7h3.4
		v8.6c0,0.9-0.1,1.7-0.4,2.5c-0.3,0.7-0.7,1.4-1.2,1.9c-0.5,0.5-1.2,1-2,1.3s-1.6,0.4-2.6,0.4c-1,0-1.8-0.1-2.6-0.4s-1.4-0.7-2-1.3
		c-0.5-0.5-1-1.2-1.2-1.9C58.4,131.8,58.3,131,58.3,130.1z"/>
	<path fill="#616567" d="M71.8,121.5h2.7c0.3,0,0.5,0.1,0.7,0.2c0.2,0.1,0.3,0.3,0.4,0.5l2.8,7.8c0.1,0.3,0.3,0.7,0.4,1.1
		s0.3,0.8,0.4,1.3c0.1-0.4,0.2-0.9,0.3-1.3c0.1-0.4,0.2-0.8,0.4-1.1l2.8-7.8c0.1-0.2,0.2-0.4,0.4-0.5c0.2-0.2,0.4-0.2,0.7-0.2h2.7
		L80.7,136h-3.1L71.8,121.5z"/>
	<path fill="#616567" d="M88,136v-14.6h3.4V136H88z"/>
	<path fill="#616567" d="M94.1,136v-14.6h5.6c1.1,0,2.2,0.2,3.1,0.6c0.9,0.4,1.7,0.9,2.4,1.5s1.2,1.4,1.5,2.3
		c0.4,0.9,0.5,1.9,0.5,2.9c0,1.1-0.2,2-0.5,2.9s-0.9,1.7-1.5,2.3c-0.7,0.6-1.5,1.2-2.4,1.5c-0.9,0.4-2,0.5-3.1,0.5H94.1z
		 M97.5,133.4h2.3c0.6,0,1.2-0.1,1.7-0.3c0.5-0.2,0.9-0.5,1.3-0.9c0.4-0.4,0.6-0.9,0.8-1.5c0.2-0.6,0.3-1.2,0.3-2s-0.1-1.4-0.3-2
		c-0.2-0.6-0.5-1.1-0.8-1.5c-0.4-0.4-0.8-0.7-1.3-0.9c-0.5-0.2-1.1-0.3-1.7-0.3h-2.3V133.4z"/>
	<path fill="#616567" d="M107.2,136l5.6-14.6h3.5l5.6,14.6h-2.6c-0.3,0-0.5-0.1-0.7-0.2c-0.2-0.1-0.3-0.3-0.4-0.5l-0.9-2.5h-5.5
		l-0.9,2.5c-0.1,0.2-0.2,0.4-0.4,0.5c-0.2,0.1-0.4,0.2-0.7,0.2H107.2z M112.5,130.5h4l-1.3-4c-0.1-0.3-0.2-0.6-0.3-0.9
		s-0.2-0.7-0.3-1.1c-0.1,0.4-0.2,0.8-0.3,1.1c-0.1,0.3-0.2,0.6-0.3,0.9L112.5,130.5z"/>
	<path fill="#616567" d="M122,134.3l1-1.6c0.1-0.1,0.2-0.2,0.3-0.3c0.1-0.1,0.3-0.1,0.4-0.1c0.2,0,0.4,0.1,0.6,0.2s0.4,0.3,0.7,0.4
		s0.6,0.3,0.9,0.4c0.3,0.1,0.7,0.2,1.2,0.2c0.6,0,1.1-0.1,1.4-0.4c0.3-0.3,0.5-0.7,0.5-1.3c0-0.3-0.1-0.6-0.3-0.8
		c-0.2-0.2-0.4-0.4-0.7-0.5s-0.6-0.3-1-0.4c-0.4-0.1-0.8-0.2-1.2-0.4c-0.4-0.1-0.8-0.3-1.2-0.5c-0.4-0.2-0.7-0.4-1-0.7
		c-0.3-0.3-0.6-0.7-0.7-1.2c-0.2-0.5-0.3-1-0.3-1.7c0-0.5,0.1-1.1,0.3-1.6c0.2-0.5,0.5-1,1-1.4c0.4-0.4,1-0.7,1.6-1
		c0.6-0.2,1.3-0.4,2.2-0.4c0.5,0,0.9,0,1.3,0.1c0.4,0.1,0.8,0.2,1.2,0.3c0.4,0.1,0.7,0.3,1.1,0.5s0.6,0.4,0.9,0.6l-0.8,1.6
		c-0.1,0.2-0.2,0.3-0.3,0.4c-0.1,0.1-0.3,0.1-0.4,0.1c-0.2,0-0.3,0-0.5-0.1c-0.2-0.1-0.4-0.2-0.6-0.3s-0.5-0.2-0.8-0.3
		c-0.3-0.1-0.6-0.1-1-0.1c-0.6,0-1.1,0.1-1.4,0.4s-0.5,0.6-0.5,1.1c0,0.3,0.1,0.5,0.3,0.7s0.4,0.4,0.7,0.5s0.6,0.3,1,0.4
		c0.4,0.1,0.8,0.2,1.2,0.4c0.4,0.1,0.8,0.3,1.2,0.5c0.4,0.2,0.7,0.4,1,0.7s0.6,0.7,0.7,1.1s0.3,0.9,0.3,1.5c0,0.7-0.1,1.3-0.4,1.9
		c-0.2,0.6-0.6,1.1-1,1.5c-0.4,0.4-1,0.8-1.6,1c-0.7,0.2-1.4,0.4-2.2,0.4c-0.5,0-0.9,0-1.4-0.1c-0.5-0.1-0.9-0.2-1.4-0.4
		c-0.4-0.2-0.9-0.4-1.2-0.6C122.7,134.8,122.3,134.5,122,134.3z"/>
</g>
<g>
	<path fill="#616567" d="M65.1,116.8l-3,3h3.4l3.3-3.3C67.5,116.7,66.3,116.8,65.1,116.8z"/>
</g>
</svg>
