<?xml version="1.0" encoding="utf-8"?>
<!-- Generator: Adobe Illustrator 18.0.0, SVG Export Plug-In . SVG Version: 6.00 Build 0)  -->
<!DOCTYPE svg PUBLIC "-//W3C//DTD SVG 1.1//EN" "http://www.w3.org/Graphics/SVG/1.1/DTD/svg11.dtd">
<svg version="1.1" id="Camada_1" xmlns="http://www.w3.org/2000/svg" xmlns:xlink="http://www.w3.org/1999/xlink" x="0px" y="0px"
	 viewBox="0 0 120.3 112.2" enable-background="new 0 0 120.3 112.2" xml:space="preserve">
<path fill-rule="evenodd" clip-rule="evenodd" fill="#17A2BF" d="M31,0h63c5.5,0,10,4.5,10,10v45c0,5.5-4.5,10-10,10H31
	c-5.5,0-10-4.5-10-10V10C21,4.5,25.5,0,31,0z"/>
<g>
	<path fill="#616567" d="M36.7,91.7l0.6-0.9c0-0.1,0.1-0.1,0.2-0.2s0.2-0.1,0.3-0.1c0.1,0,0.2,0,0.4,0.1s0.3,0.2,0.4,0.3
		s0.3,0.2,0.5,0.3c0.2,0.1,0.4,0.1,0.7,0.1c0.4,0,0.7-0.1,0.9-0.2c0.2-0.2,0.3-0.4,0.3-0.8c0-0.2-0.1-0.4-0.2-0.5
		c-0.1-0.1-0.3-0.2-0.4-0.3c-0.2-0.1-0.4-0.2-0.6-0.2c-0.2-0.1-0.5-0.1-0.7-0.2c-0.2-0.1-0.5-0.2-0.7-0.3c-0.2-0.1-0.4-0.3-0.6-0.4
		c-0.2-0.2-0.3-0.4-0.4-0.7s-0.2-0.6-0.2-1c0-0.3,0.1-0.7,0.2-1c0.1-0.3,0.3-0.6,0.6-0.8c0.3-0.2,0.6-0.4,1-0.6
		c0.4-0.1,0.8-0.2,1.3-0.2c0.3,0,0.5,0,0.8,0.1c0.3,0,0.5,0.1,0.7,0.2s0.4,0.2,0.6,0.3s0.4,0.2,0.5,0.4l-0.5,0.9
		C42.2,85.9,42.1,86,42,86c-0.1,0-0.2,0.1-0.3,0.1c-0.1,0-0.2,0-0.3-0.1c-0.1-0.1-0.2-0.1-0.4-0.2s-0.3-0.1-0.5-0.2
		s-0.4-0.1-0.6-0.1c-0.4,0-0.7,0.1-0.8,0.2c-0.2,0.2-0.3,0.4-0.3,0.7c0,0.2,0.1,0.3,0.2,0.4s0.3,0.2,0.4,0.3s0.4,0.2,0.6,0.2
		c0.2,0.1,0.5,0.1,0.7,0.2s0.5,0.2,0.7,0.3s0.4,0.3,0.6,0.4c0.2,0.2,0.3,0.4,0.4,0.7c0.1,0.3,0.2,0.6,0.2,0.9c0,0.4-0.1,0.8-0.2,1.1
		S42.3,91.7,42,92c-0.3,0.3-0.6,0.5-1,0.6s-0.8,0.2-1.3,0.2c-0.3,0-0.6,0-0.8-0.1c-0.3-0.1-0.6-0.1-0.8-0.2s-0.5-0.2-0.7-0.4
		S36.9,91.9,36.7,91.7z"/>
	<path fill="#616567" d="M43.4,88.4c0-0.6,0.1-1.2,0.3-1.8c0.2-0.5,0.5-1,0.9-1.4s0.9-0.7,1.4-0.9s1.2-0.3,1.9-0.3s1.3,0.1,1.9,0.3
		c0.6,0.2,1,0.5,1.4,0.9s0.7,0.9,0.9,1.4c0.2,0.5,0.3,1.1,0.3,1.8c0,0.6-0.1,1.2-0.3,1.8s-0.5,1-0.9,1.4c-0.4,0.4-0.9,0.7-1.4,0.9
		s-1.2,0.3-1.9,0.3s-1.3-0.1-1.9-0.3s-1-0.5-1.4-0.9c-0.4-0.4-0.7-0.9-0.9-1.4S43.4,89,43.4,88.4z M45.4,88.4c0,0.4,0.1,0.8,0.2,1.2
		s0.3,0.6,0.5,0.9s0.5,0.4,0.8,0.5c0.3,0.1,0.7,0.2,1,0.2c0.4,0,0.7-0.1,1-0.2c0.3-0.1,0.6-0.3,0.8-0.5s0.4-0.5,0.5-0.9
		c0.1-0.3,0.2-0.7,0.2-1.2s-0.1-0.8-0.2-1.2c-0.1-0.3-0.3-0.6-0.5-0.9s-0.5-0.4-0.8-0.6s-0.6-0.2-1-0.2s-0.7,0.1-1,0.2
		s-0.6,0.3-0.8,0.6s-0.4,0.5-0.5,0.9C45.5,87.6,45.4,87.9,45.4,88.4z"/>
	<path fill="#616567" d="M53.4,92.7V84h2v7.1h3.2v1.6H53.4z"/>
	<path fill="#616567" d="M59.8,92.7V84h2v8.7H59.8z"/>
	<path fill="#616567" d="M63,88.4c0-0.7,0.1-1.3,0.3-1.8s0.5-1,0.9-1.4s0.9-0.7,1.4-0.9s1.2-0.3,1.9-0.3c0.3,0,0.6,0,0.9,0.1
		c0.3,0.1,0.6,0.1,0.8,0.2s0.5,0.2,0.7,0.4c0.2,0.1,0.4,0.3,0.6,0.5L69.9,86c0,0.1-0.1,0.1-0.2,0.2s-0.1,0.1-0.2,0.1
		c-0.1,0-0.1,0-0.2,0s-0.1-0.1-0.2-0.1s-0.2-0.1-0.2-0.1s-0.2-0.1-0.3-0.1s-0.3-0.1-0.4-0.1s-0.3,0-0.6,0c-0.4,0-0.7,0.1-1,0.2
		c-0.3,0.1-0.6,0.3-0.8,0.6c-0.2,0.2-0.4,0.5-0.5,0.9s-0.2,0.7-0.2,1.2c0,0.4,0.1,0.8,0.2,1.2c0.1,0.3,0.3,0.6,0.5,0.9
		c0.2,0.2,0.5,0.4,0.7,0.5c0.3,0.1,0.6,0.2,0.9,0.2c0.2,0,0.4,0,0.5,0c0.2,0,0.3,0,0.4-0.1c0.1,0,0.3-0.1,0.4-0.2s0.2-0.2,0.4-0.3
		c0,0,0.1-0.1,0.2-0.1c0.1,0,0.1,0,0.2,0c0,0,0.1,0,0.1,0c0,0,0.1,0,0.1,0.1l0.8,0.8c-0.4,0.5-0.8,0.8-1.3,1
		c-0.5,0.2-1.2,0.4-1.9,0.4c-0.7,0-1.3-0.1-1.8-0.3c-0.5-0.2-1-0.5-1.3-0.9c-0.4-0.4-0.6-0.9-0.8-1.4C63.1,89.6,63,89,63,88.4z"/>
	<path fill="#616567" d="M71.6,92.7V84h2v8.7H71.6z"/>
	<path fill="#616567" d="M74.6,85.6V84h6.9v1.6h-2.5v7.1h-2v-7.1H74.6z"/>
	<path fill="#616567" d="M82.4,92.7V84H88v1.6h-3.6v2h2.8v1.5h-2.8v2.1H88v1.6H82.4z"/>
	<path fill="#616567" d="M28.5,104.2V99h2v5.2c0,0.3,0,0.6,0.1,0.8c0.1,0.2,0.2,0.4,0.3,0.6c0.1,0.2,0.3,0.3,0.5,0.4
		c0.2,0.1,0.5,0.1,0.7,0.1c0.3,0,0.5,0,0.7-0.1c0.2-0.1,0.4-0.2,0.5-0.4c0.1-0.2,0.3-0.4,0.3-0.6c0.1-0.2,0.1-0.5,0.1-0.8V99h2v5.2
		c0,0.5-0.1,1-0.3,1.5c-0.2,0.4-0.4,0.8-0.7,1.2c-0.3,0.3-0.7,0.6-1.2,0.8c-0.5,0.2-1,0.3-1.6,0.3c-0.6,0-1.1-0.1-1.6-0.3
		c-0.5-0.2-0.9-0.4-1.2-0.8c-0.3-0.3-0.6-0.7-0.7-1.2C28.6,105.2,28.5,104.7,28.5,104.2z"/>
	<path fill="#616567" d="M37.3,107.7V99h1.5c0.1,0,0.2,0,0.2,0s0.1,0,0.2,0s0.1,0.1,0.1,0.1s0.1,0.1,0.1,0.2l2.3,4.4
		c0.1,0.2,0.2,0.3,0.2,0.5s0.1,0.3,0.2,0.5c0.1-0.2,0.1-0.3,0.2-0.5s0.2-0.3,0.2-0.5l2.2-4.4c0-0.1,0.1-0.1,0.1-0.2s0.1-0.1,0.1-0.1
		s0.1,0,0.2,0s0.1,0,0.2,0h1.5v8.7h-1.8v-5c0-0.2,0-0.5,0-0.8l-2.3,4.5c-0.1,0.1-0.2,0.2-0.3,0.3s-0.3,0.1-0.4,0.1h-0.3
		c-0.2,0-0.3,0-0.4-0.1s-0.2-0.2-0.3-0.3l-2.3-4.5c0,0.1,0,0.3,0,0.4s0,0.3,0,0.4v5H37.3z"/>
	<path fill="#616567" d="M47.9,107.7l3.4-8.7h2.1l3.4,8.7h-1.6c-0.2,0-0.3,0-0.4-0.1c-0.1-0.1-0.2-0.2-0.2-0.3l-0.5-1.5h-3.3
		l-0.5,1.5c0,0.1-0.1,0.2-0.2,0.3c-0.1,0.1-0.3,0.1-0.4,0.1H47.9z M51.1,104.4h2.4l-0.8-2.4c-0.1-0.2-0.1-0.3-0.2-0.5
		s-0.1-0.4-0.2-0.7c-0.1,0.2-0.1,0.5-0.2,0.7s-0.1,0.4-0.2,0.5L51.1,104.4z"/>
	<path fill="#616567" d="M59,99h1.6c0.2,0,0.3,0,0.4,0.1s0.2,0.2,0.2,0.3l1.7,4.7c0.1,0.2,0.2,0.4,0.2,0.7s0.2,0.5,0.2,0.8
		c0.1-0.3,0.1-0.5,0.2-0.8s0.1-0.5,0.2-0.7l1.7-4.7c0-0.1,0.1-0.2,0.2-0.3s0.3-0.1,0.4-0.1h1.6l-3.5,8.7h-1.8L59,99z"/>
	<path fill="#616567" d="M68.8,107.7V99h2v8.7H68.8z"/>
	<path fill="#616567" d="M71.8,106.7l0.6-0.9c0-0.1,0.1-0.1,0.2-0.2s0.2-0.1,0.3-0.1c0.1,0,0.2,0,0.4,0.1s0.3,0.2,0.4,0.3
		s0.3,0.2,0.5,0.3s0.4,0.1,0.7,0.1c0.4,0,0.7-0.1,0.9-0.2c0.2-0.2,0.3-0.4,0.3-0.8c0-0.2-0.1-0.4-0.2-0.5c-0.1-0.1-0.3-0.2-0.4-0.3
		c-0.2-0.1-0.4-0.2-0.6-0.2c-0.2-0.1-0.5-0.1-0.7-0.2s-0.5-0.2-0.7-0.3c-0.2-0.1-0.4-0.3-0.6-0.4c-0.2-0.2-0.3-0.4-0.4-0.7
		c-0.1-0.3-0.2-0.6-0.2-1c0-0.3,0.1-0.7,0.2-1s0.3-0.6,0.6-0.8s0.6-0.4,1-0.6c0.4-0.1,0.8-0.2,1.3-0.2c0.3,0,0.5,0,0.8,0.1
		c0.3,0,0.5,0.1,0.7,0.2c0.2,0.1,0.4,0.2,0.6,0.3c0.2,0.1,0.4,0.2,0.5,0.4l-0.5,0.9c-0.1,0.1-0.1,0.2-0.2,0.2
		c-0.1,0-0.2,0.1-0.3,0.1c-0.1,0-0.2,0-0.3-0.1c-0.1-0.1-0.2-0.1-0.4-0.2c-0.1-0.1-0.3-0.1-0.5-0.2c-0.2-0.1-0.4-0.1-0.6-0.1
		c-0.4,0-0.7,0.1-0.8,0.2c-0.2,0.2-0.3,0.4-0.3,0.7c0,0.2,0.1,0.3,0.2,0.4c0.1,0.1,0.3,0.2,0.4,0.3c0.2,0.1,0.4,0.2,0.6,0.2
		c0.2,0.1,0.5,0.1,0.7,0.2c0.2,0.1,0.5,0.2,0.7,0.3s0.4,0.3,0.6,0.4s0.3,0.4,0.4,0.7c0.1,0.3,0.2,0.6,0.2,0.9c0,0.4-0.1,0.8-0.2,1.1
		c-0.1,0.4-0.3,0.7-0.6,0.9c-0.3,0.3-0.6,0.5-1,0.6s-0.8,0.2-1.3,0.2c-0.3,0-0.6,0-0.8-0.1c-0.3-0.1-0.6-0.1-0.8-0.2
		s-0.5-0.2-0.7-0.4S72,106.9,71.8,106.7z"/>
	<path fill="#616567" d="M79.1,107.7V99h2v8.7H79.1z"/>
	<path fill="#616567" d="M82.2,100.6V99h6.9v1.6h-2.5v7.1h-2v-7.1H82.2z"/>
	<path fill="#616567" d="M88.3,107.7l3.4-8.7h2.1l3.4,8.7h-1.6c-0.2,0-0.3,0-0.4-0.1c-0.1-0.1-0.2-0.2-0.2-0.3l-0.5-1.5h-3.3
		l-0.5,1.5c0,0.1-0.1,0.2-0.2,0.3c-0.1,0.1-0.3,0.1-0.4,0.1H88.3z M91.5,104.4h2.4l-0.8-2.4c-0.1-0.2-0.1-0.3-0.2-0.5
		s-0.1-0.4-0.2-0.7c-0.1,0.2-0.1,0.5-0.2,0.7s-0.1,0.4-0.2,0.5L91.5,104.4z"/>
</g>
<path fill="#FFFFFF" d="M77,36.5c-0.8-1.3-3.7-2.1-6.5-3.3C67.7,32,67,31.6,67,31.6l0-2.7c0,0,1-0.8,1.4-3.3c0.7,0.2,1.3-1,1.4-1.6
	c0-0.6-0.1-2.2-0.9-2.1c0.2-1.2,0.3-2.4,0.2-2.9c-0.2-2.2-2.3-4.4-5.6-4.4c-3.3,0-5.4,2.3-5.6,4.4c-0.1,0.6,0.1,1.7,0.2,2.9
	c-0.8-0.2-0.9,1.5-0.9,2.1c0,0.6,0.7,1.8,1.4,1.6c0.3,2.5,1.4,3.3,1.4,3.3l0,2.7c0,0-0.7,0.4-3.5,1.6c-2.8,1.2-5.6,2-6.5,3.3
	c-0.8,1.2-0.5,10-0.5,10h27.9C77.5,46.5,77.7,37.6,77,36.5z"/>
</svg>
