<?xml version="1.0" encoding="utf-8"?>
<!-- Generator: Adobe Illustrator 18.0.0, SVG Export Plug-In . SVG Version: 6.00 Build 0)  -->
<!DOCTYPE svg PUBLIC "-//W3C//DTD SVG 1.1//EN" "http://www.w3.org/Graphics/SVG/1.1/DTD/svg11.dtd">
<svg version="1.1" id="Camada_1" xmlns="http://www.w3.org/2000/svg" xmlns:xlink="http://www.w3.org/1999/xlink" x="0px" y="0px"
	 viewBox="0 0 120.3 112.2" enable-background="new 0 0 120.3 112.2" xml:space="preserve">
<path fill-rule="evenodd" clip-rule="evenodd" fill="#17A2BF" d="M31,0h63c5.5,0,10,4.5,10,10v45c0,5.5-4.5,10-10,10H31
	c-5.5,0-10-4.5-10-10V10C21,4.5,25.5,0,31,0z"/>
<g>
	<path fill="#616567" d="M29.7,84h1.7c0.2,0,0.3,0,0.4,0.1s0.2,0.2,0.2,0.3l1.2,4.6c0,0.1,0.1,0.3,0.1,0.5s0.1,0.3,0.1,0.5
		c0-0.2,0.1-0.4,0.1-0.6c0.1-0.2,0.1-0.3,0.1-0.5l1.4-4.6c0-0.1,0.1-0.2,0.2-0.3c0.1-0.1,0.3-0.1,0.5-0.1h0.6c0.2,0,0.3,0,0.5,0.1
		s0.2,0.2,0.2,0.3l1.4,4.6c0,0.1,0.1,0.3,0.1,0.4c0,0.2,0.1,0.3,0.1,0.5c0-0.2,0.1-0.3,0.1-0.5s0.1-0.3,0.1-0.5l1.2-4.6
		c0-0.1,0.1-0.2,0.2-0.3s0.3-0.1,0.4-0.1h1.6l-2.7,8.7H38l-1.7-5.4c0-0.1-0.1-0.2-0.1-0.3c0-0.1-0.1-0.2-0.1-0.3
		c0,0.1-0.1,0.2-0.1,0.3S36,87.2,36,87.3l-1.7,5.4h-1.9L29.7,84z"/>
	<path fill="#616567" d="M43.3,92.7V84h2v3.7h3.6V84h2v8.7h-2v-3.7h-3.6v3.7H43.3z"/>
	<path fill="#616567" d="M51.6,92.7L55,84h2.1l3.4,8.7h-1.6c-0.2,0-0.3,0-0.4-0.1s-0.2-0.2-0.2-0.3l-0.5-1.5h-3.3l-0.5,1.5
		c0,0.1-0.1,0.2-0.2,0.3c-0.1,0.1-0.3,0.1-0.4,0.1H51.6z M54.9,89.4h2.4L56.5,87c-0.1-0.2-0.1-0.3-0.2-0.5s-0.1-0.4-0.2-0.7
		c-0.1,0.2-0.1,0.5-0.2,0.7s-0.1,0.4-0.2,0.5L54.9,89.4z"/>
	<path fill="#616567" d="M59.6,85.6V84h6.9v1.6h-2.5v7.1h-2v-7.1H59.6z"/>
	<path fill="#616567" d="M66.8,91.7l0.6-0.9c0-0.1,0.1-0.1,0.2-0.2s0.2-0.1,0.3-0.1c0.1,0,0.2,0,0.4,0.1s0.3,0.2,0.4,0.3
		s0.3,0.2,0.5,0.3c0.2,0.1,0.4,0.1,0.7,0.1c0.4,0,0.7-0.1,0.9-0.2c0.2-0.2,0.3-0.4,0.3-0.8c0-0.2-0.1-0.4-0.2-0.5
		c-0.1-0.1-0.3-0.2-0.4-0.3c-0.2-0.1-0.4-0.2-0.6-0.2c-0.2-0.1-0.5-0.1-0.7-0.2c-0.2-0.1-0.5-0.2-0.7-0.3c-0.2-0.1-0.4-0.3-0.6-0.4
		c-0.2-0.2-0.3-0.4-0.4-0.7s-0.2-0.6-0.2-1c0-0.3,0.1-0.7,0.2-1c0.1-0.3,0.3-0.6,0.6-0.8s0.6-0.4,1-0.6c0.4-0.1,0.8-0.2,1.3-0.2
		c0.3,0,0.5,0,0.8,0.1c0.3,0,0.5,0.1,0.7,0.2c0.2,0.1,0.4,0.2,0.6,0.3c0.2,0.1,0.4,0.2,0.5,0.4l-0.5,0.9c-0.1,0.1-0.1,0.2-0.2,0.2
		c-0.1,0-0.2,0.1-0.3,0.1c-0.1,0-0.2,0-0.3-0.1c-0.1-0.1-0.2-0.1-0.4-0.2s-0.3-0.1-0.5-0.2c-0.2-0.1-0.4-0.1-0.6-0.1
		c-0.4,0-0.7,0.1-0.8,0.2c-0.2,0.2-0.3,0.4-0.3,0.7c0,0.2,0.1,0.3,0.2,0.4c0.1,0.1,0.3,0.2,0.4,0.3c0.2,0.1,0.4,0.2,0.6,0.2
		c0.2,0.1,0.5,0.1,0.7,0.2s0.5,0.2,0.7,0.3s0.4,0.3,0.6,0.4s0.3,0.4,0.4,0.7c0.1,0.3,0.2,0.6,0.2,0.9c0,0.4-0.1,0.8-0.2,1.1
		c-0.1,0.4-0.3,0.7-0.6,0.9c-0.3,0.3-0.6,0.5-1,0.6s-0.8,0.2-1.3,0.2c-0.3,0-0.6,0-0.8-0.1c-0.3-0.1-0.6-0.1-0.8-0.2
		s-0.5-0.2-0.7-0.4S67,91.9,66.8,91.7z"/>
	<path fill="#616567" d="M73.2,92.7l3.4-8.7h2.1l3.4,8.7h-1.6c-0.2,0-0.3,0-0.4-0.1s-0.2-0.2-0.2-0.3l-0.5-1.5H76l-0.5,1.5
		c0,0.1-0.1,0.2-0.2,0.3c-0.1,0.1-0.3,0.1-0.4,0.1H73.2z M76.4,89.4h2.4L78,87c-0.1-0.2-0.1-0.3-0.2-0.5s-0.1-0.4-0.2-0.7
		c-0.1,0.2-0.1,0.5-0.2,0.7s-0.1,0.4-0.2,0.5L76.4,89.4z"/>
	<path fill="#616567" d="M82.8,92.7V84h3.1c0.6,0,1.1,0.1,1.6,0.2c0.4,0.1,0.8,0.3,1.1,0.6s0.5,0.6,0.6,0.9c0.1,0.3,0.2,0.7,0.2,1.1
		c0,0.4-0.1,0.8-0.2,1.2c-0.1,0.4-0.4,0.7-0.6,0.9c-0.3,0.3-0.7,0.5-1.1,0.6c-0.4,0.1-1,0.2-1.6,0.2h-1.1v2.9H82.8z M84.8,88.3h1.1
		c0.5,0,0.9-0.1,1.1-0.4c0.2-0.3,0.3-0.6,0.3-1.1c0-0.2,0-0.4-0.1-0.5c-0.1-0.2-0.2-0.3-0.3-0.4c-0.1-0.1-0.3-0.2-0.5-0.3
		c-0.2-0.1-0.4-0.1-0.7-0.1h-1.1V88.3z"/>
	<path fill="#616567" d="M90.4,92.7V84h3.1c0.6,0,1.1,0.1,1.6,0.2c0.4,0.1,0.8,0.3,1.1,0.6s0.5,0.6,0.6,0.9c0.1,0.3,0.2,0.7,0.2,1.1
		c0,0.4-0.1,0.8-0.2,1.2c-0.1,0.4-0.4,0.7-0.6,0.9c-0.3,0.3-0.7,0.5-1.1,0.6c-0.4,0.1-1,0.2-1.6,0.2h-1.1v2.9H90.4z M92.4,88.3h1.1
		c0.5,0,0.9-0.1,1.1-0.4c0.2-0.3,0.3-0.6,0.3-1.1c0-0.2,0-0.4-0.1-0.5c-0.1-0.2-0.2-0.3-0.3-0.4c-0.1-0.1-0.3-0.2-0.5-0.3
		c-0.2-0.1-0.4-0.1-0.7-0.1h-1.1V88.3z"/>
	<path fill="#616567" d="M25.8,104.7c0-0.4,0.1-0.9,0.3-1.3c0.2-0.4,0.4-0.9,0.7-1.3l2-2.7c0.1-0.1,0.2-0.2,0.4-0.3
		c0.2-0.1,0.4-0.1,0.6-0.1h1.7l-2.6,3.1c0,0-0.1,0.1-0.1,0.1c0,0-0.1,0.1-0.1,0.1c0.1-0.1,0.3-0.1,0.4-0.1s0.3,0,0.5,0
		c0.3,0,0.6,0.1,0.9,0.2c0.3,0.1,0.6,0.3,0.8,0.5c0.2,0.2,0.4,0.5,0.6,0.8c0.1,0.3,0.2,0.7,0.2,1.2c0,0.4-0.1,0.8-0.2,1.2
		c-0.2,0.4-0.4,0.7-0.6,1c-0.3,0.3-0.6,0.5-1,0.6c-0.4,0.2-0.8,0.2-1.3,0.2c-0.5,0-0.9-0.1-1.3-0.2s-0.7-0.4-1-0.6s-0.5-0.6-0.6-1
		S25.8,105.2,25.8,104.7z M27.6,105c0,0.2,0,0.4,0.1,0.6c0.1,0.2,0.1,0.3,0.2,0.5s0.2,0.2,0.4,0.3s0.4,0.1,0.6,0.1
		c0.2,0,0.4,0,0.5-0.1c0.2-0.1,0.3-0.2,0.4-0.3c0.1-0.1,0.2-0.3,0.3-0.5s0.1-0.4,0.1-0.6c0-0.2,0-0.4-0.1-0.6
		c-0.1-0.2-0.2-0.3-0.3-0.5c-0.1-0.1-0.3-0.2-0.4-0.3s-0.4-0.1-0.6-0.1c-0.2,0-0.4,0-0.5,0.1c-0.2,0.1-0.3,0.2-0.4,0.3
		c-0.1,0.1-0.2,0.3-0.3,0.5C27.6,104.6,27.6,104.8,27.6,105z"/>
	<path fill="#616567" d="M32.7,107.7v-0.6c0-0.1,0-0.2,0.1-0.4c0-0.1,0.1-0.3,0.3-0.4l2.5-2.5c0.2-0.2,0.4-0.4,0.6-0.6
		s0.3-0.4,0.4-0.6c0.1-0.2,0.2-0.4,0.2-0.6c0.1-0.2,0.1-0.4,0.1-0.6c0-0.3-0.1-0.6-0.2-0.8s-0.4-0.3-0.8-0.3c-0.1,0-0.3,0-0.4,0.1
		c-0.1,0-0.2,0.1-0.3,0.2s-0.2,0.1-0.2,0.2s-0.1,0.2-0.2,0.3c-0.1,0.2-0.1,0.3-0.2,0.4s-0.2,0.1-0.4,0.1c0,0-0.1,0-0.1,0
		c0,0-0.1,0-0.1,0l-1-0.2c0.1-0.4,0.2-0.8,0.4-1.1s0.4-0.6,0.7-0.8s0.6-0.4,0.9-0.5c0.3-0.1,0.7-0.2,1.1-0.2c0.4,0,0.8,0.1,1.2,0.2
		c0.3,0.1,0.6,0.3,0.9,0.5c0.2,0.2,0.4,0.5,0.6,0.8c0.1,0.3,0.2,0.7,0.2,1c0,0.3,0,0.6-0.1,0.9s-0.2,0.5-0.4,0.8s-0.3,0.5-0.5,0.7
		s-0.4,0.5-0.7,0.7l-1.7,1.8c0.2-0.1,0.4-0.1,0.7-0.2s0.4-0.1,0.6-0.1h1.6c0.2,0,0.4,0.1,0.5,0.2c0.1,0.1,0.2,0.3,0.2,0.4v1.1H32.7z
		"/>
	<path fill="#616567" d="M42.3,101.8c0-0.4,0.1-0.8,0.2-1.1c0.1-0.4,0.4-0.7,0.6-0.9c0.3-0.3,0.6-0.5,1-0.6c0.4-0.2,0.8-0.2,1.3-0.2
		c0.5,0,0.9,0.1,1.3,0.2s0.7,0.3,0.9,0.6c0.3,0.3,0.5,0.6,0.6,0.9c0.1,0.4,0.2,0.8,0.2,1.2c0,0.3,0,0.6-0.1,0.8
		c0,0.3-0.1,0.5-0.2,0.7c-0.1,0.2-0.2,0.4-0.3,0.7c-0.1,0.2-0.2,0.4-0.4,0.6l-1.9,2.7c-0.1,0.1-0.2,0.2-0.4,0.3
		c-0.2,0.1-0.4,0.1-0.6,0.1h-1.7l2.8-3.3c0.1-0.1,0.1-0.1,0.2-0.2c0.1-0.1,0.1-0.1,0.1-0.2c-0.2,0.1-0.4,0.2-0.6,0.2
		c-0.2,0-0.4,0.1-0.7,0.1c-0.3,0-0.6-0.1-0.9-0.2s-0.5-0.3-0.8-0.5c-0.2-0.2-0.4-0.5-0.6-0.8C42.3,102.7,42.3,102.3,42.3,101.8z
		 M44.1,101.7c0,0.9,0.4,1.3,1.2,1.3c0.4,0,0.7-0.1,0.9-0.3c0.2-0.2,0.3-0.5,0.3-0.9c0-0.2,0-0.4-0.1-0.5s-0.1-0.3-0.3-0.4
		c-0.1-0.1-0.2-0.2-0.4-0.2s-0.3-0.1-0.5-0.1c-0.2,0-0.4,0-0.5,0.1c-0.1,0.1-0.3,0.2-0.4,0.3c-0.1,0.1-0.2,0.3-0.2,0.4
		S44.1,101.5,44.1,101.7z"/>
	<path fill="#616567" d="M49,105.5l0.8-0.3c0.1,0,0.1-0.1,0.2-0.1c0.1,0,0.1,0,0.2,0c0.1,0,0.2,0,0.3,0.1c0.1,0.1,0.2,0.1,0.2,0.2
		c0.2,0.3,0.4,0.6,0.6,0.7c0.2,0.1,0.4,0.2,0.7,0.2c0.2,0,0.4,0,0.5-0.1c0.2-0.1,0.3-0.2,0.4-0.3c0.1-0.1,0.2-0.2,0.2-0.4
		c0.1-0.1,0.1-0.3,0.1-0.4c0-0.2,0-0.4,0-0.5c0-0.1-0.1-0.3-0.2-0.4c-0.1-0.1-0.3-0.2-0.6-0.2c-0.2-0.1-0.6-0.1-1-0.1v-1.3
		c0.4,0,0.7,0,0.9-0.1c0.2-0.1,0.4-0.1,0.5-0.2c0.1-0.1,0.2-0.2,0.2-0.4c0-0.1,0.1-0.3,0.1-0.5c0-0.3-0.1-0.6-0.2-0.8
		c-0.2-0.2-0.4-0.3-0.8-0.3c-0.1,0-0.3,0-0.4,0.1c-0.1,0-0.2,0.1-0.3,0.2s-0.2,0.1-0.2,0.2s-0.1,0.2-0.2,0.3
		c-0.1,0.2-0.1,0.3-0.2,0.4s-0.2,0.1-0.4,0.1c0,0-0.1,0-0.1,0c0,0-0.1,0-0.1,0l-1-0.2c0.1-0.4,0.2-0.8,0.4-1.1
		c0.2-0.3,0.4-0.6,0.7-0.8s0.6-0.4,0.9-0.5s0.7-0.2,1.1-0.2c0.4,0,0.8,0.1,1.1,0.2c0.3,0.1,0.6,0.3,0.8,0.5c0.2,0.2,0.4,0.5,0.5,0.7
		c0.1,0.3,0.2,0.6,0.2,0.9c0,0.3,0,0.5-0.1,0.7c-0.1,0.2-0.1,0.4-0.2,0.5s-0.2,0.3-0.4,0.4c-0.2,0.1-0.3,0.2-0.5,0.3
		c1,0.3,1.5,1,1.5,2c0,0.5-0.1,0.9-0.3,1.2c-0.2,0.3-0.4,0.6-0.7,0.9c-0.3,0.2-0.6,0.4-1,0.5c-0.4,0.1-0.8,0.2-1.2,0.2
		c-0.4,0-0.8,0-1.1-0.1c-0.3-0.1-0.6-0.2-0.9-0.4s-0.5-0.4-0.7-0.7S49.1,105.9,49,105.5z"/>
	<path fill="#616567" d="M55.8,106.7l0.6-0.8c0.1-0.1,0.1-0.1,0.2-0.2s0.2-0.1,0.3-0.1c0.1,0,0.2,0,0.3,0.1c0.1,0.1,0.2,0.1,0.3,0.2
		c0.1,0.1,0.3,0.1,0.4,0.2c0.2,0.1,0.4,0.1,0.6,0.1s0.5,0,0.6-0.1s0.3-0.2,0.4-0.3s0.2-0.3,0.2-0.5s0.1-0.4,0.1-0.6
		c0-0.4-0.1-0.7-0.4-1s-0.6-0.3-1-0.3c-0.4,0-0.8,0.1-1.1,0.2l-1.2-0.3L57,99h4.5v0.8c0,0.1,0,0.2-0.1,0.3c0,0.1-0.1,0.2-0.2,0.3
		c-0.1,0.1-0.2,0.1-0.3,0.2s-0.3,0.1-0.5,0.1h-2.1l-0.2,1.4c0.2,0,0.3,0,0.5-0.1c0.2,0,0.3,0,0.4,0c0.5,0,0.9,0.1,1.2,0.2
		s0.6,0.3,0.9,0.6c0.2,0.2,0.4,0.5,0.5,0.9c0.1,0.3,0.2,0.7,0.2,1.1c0,0.5-0.1,0.9-0.2,1.3s-0.4,0.7-0.7,1s-0.6,0.5-1.1,0.7
		c-0.4,0.2-0.9,0.2-1.3,0.2c-0.3,0-0.6,0-0.8-0.1s-0.5-0.1-0.7-0.2c-0.2-0.1-0.4-0.2-0.6-0.4S55.9,106.9,55.8,106.7z"/>
	<path fill="#616567" d="M62.9,105.5l0.8-0.3c0.1,0,0.1-0.1,0.2-0.1c0.1,0,0.1,0,0.2,0c0.1,0,0.2,0,0.3,0.1c0.1,0.1,0.2,0.1,0.2,0.2
		c0.2,0.3,0.4,0.6,0.6,0.7c0.2,0.1,0.4,0.2,0.7,0.2c0.2,0,0.4,0,0.5-0.1c0.2-0.1,0.3-0.2,0.4-0.3c0.1-0.1,0.2-0.2,0.2-0.4
		c0.1-0.1,0.1-0.3,0.1-0.4c0-0.2,0-0.4,0-0.5c0-0.1-0.1-0.3-0.2-0.4c-0.1-0.1-0.3-0.2-0.6-0.2c-0.2-0.1-0.6-0.1-1-0.1v-1.3
		c0.4,0,0.7,0,0.9-0.1c0.2-0.1,0.4-0.1,0.5-0.2c0.1-0.1,0.2-0.2,0.2-0.4c0-0.1,0.1-0.3,0.1-0.5c0-0.3-0.1-0.6-0.2-0.8
		c-0.2-0.2-0.4-0.3-0.8-0.3c-0.1,0-0.3,0-0.4,0.1c-0.1,0-0.2,0.1-0.3,0.2s-0.2,0.1-0.2,0.2s-0.1,0.2-0.2,0.3
		c-0.1,0.2-0.1,0.3-0.2,0.4s-0.2,0.1-0.4,0.1c0,0-0.1,0-0.1,0c0,0-0.1,0-0.1,0l-1-0.2c0.1-0.4,0.2-0.8,0.4-1.1
		c0.2-0.3,0.4-0.6,0.7-0.8s0.6-0.4,0.9-0.5s0.7-0.2,1.1-0.2c0.4,0,0.8,0.1,1.1,0.2c0.3,0.1,0.6,0.3,0.8,0.5c0.2,0.2,0.4,0.5,0.5,0.7
		c0.1,0.3,0.2,0.6,0.2,0.9c0,0.3,0,0.5-0.1,0.7c-0.1,0.2-0.1,0.4-0.2,0.5c-0.1,0.2-0.2,0.3-0.4,0.4c-0.2,0.1-0.3,0.2-0.5,0.3
		c1,0.3,1.5,1,1.5,2c0,0.5-0.1,0.9-0.3,1.2c-0.2,0.3-0.4,0.6-0.7,0.9c-0.3,0.2-0.6,0.4-1,0.5c-0.4,0.1-0.8,0.2-1.2,0.2
		c-0.4,0-0.8,0-1.1-0.1c-0.3-0.1-0.6-0.2-0.9-0.4s-0.5-0.4-0.7-0.7S63.1,105.9,62.9,105.5z"/>
	<path fill="#616567" d="M70,104.8v-1.5h3.2v1.5H70z"/>
	<path fill="#616567" d="M74.1,106.7l0.6-0.8c0.1-0.1,0.1-0.1,0.2-0.2s0.2-0.1,0.3-0.1c0.1,0,0.2,0,0.3,0.1c0.1,0.1,0.2,0.1,0.3,0.2
		c0.1,0.1,0.3,0.1,0.4,0.2c0.2,0.1,0.4,0.1,0.6,0.1s0.5,0,0.6-0.1s0.3-0.2,0.4-0.3s0.2-0.3,0.2-0.5s0.1-0.4,0.1-0.6
		c0-0.4-0.1-0.7-0.4-1s-0.6-0.3-1-0.3c-0.4,0-0.8,0.1-1.1,0.2l-1.2-0.3l0.7-4.4h4.5v0.8c0,0.1,0,0.2-0.1,0.3c0,0.1-0.1,0.2-0.2,0.3
		c-0.1,0.1-0.2,0.1-0.3,0.2s-0.3,0.1-0.5,0.1h-2.1l-0.2,1.4c0.2,0,0.3,0,0.5-0.1c0.2,0,0.3,0,0.4,0c0.5,0,0.9,0.1,1.2,0.2
		s0.6,0.3,0.9,0.6c0.2,0.2,0.4,0.5,0.5,0.9c0.1,0.3,0.2,0.7,0.2,1.1c0,0.5-0.1,0.9-0.2,1.3s-0.4,0.7-0.7,1s-0.6,0.5-1.1,0.7
		c-0.4,0.2-0.9,0.2-1.3,0.2c-0.3,0-0.6,0-0.8-0.1s-0.5-0.1-0.7-0.2c-0.2-0.1-0.4-0.2-0.6-0.4S74.3,106.9,74.1,106.7z"/>
	<path fill="#616567" d="M81.5,101.8c0-0.4,0.1-0.8,0.2-1.1c0.1-0.4,0.4-0.7,0.6-0.9c0.3-0.3,0.6-0.5,1-0.6c0.4-0.2,0.8-0.2,1.3-0.2
		c0.5,0,0.9,0.1,1.3,0.2s0.7,0.3,0.9,0.6c0.3,0.3,0.5,0.6,0.6,0.9c0.1,0.4,0.2,0.8,0.2,1.2c0,0.3,0,0.6-0.1,0.8s-0.1,0.5-0.2,0.7
		c-0.1,0.2-0.2,0.4-0.3,0.7c-0.1,0.2-0.2,0.4-0.4,0.6l-1.9,2.7c-0.1,0.1-0.2,0.2-0.4,0.3c-0.2,0.1-0.4,0.1-0.6,0.1h-1.7l2.8-3.3
		c0.1-0.1,0.1-0.1,0.2-0.2c0.1-0.1,0.1-0.1,0.1-0.2c-0.2,0.1-0.4,0.2-0.6,0.2c-0.2,0-0.4,0.1-0.7,0.1c-0.3,0-0.6-0.1-0.9-0.2
		s-0.5-0.3-0.8-0.5c-0.2-0.2-0.4-0.5-0.6-0.8C81.6,102.7,81.5,102.3,81.5,101.8z M83.3,101.7c0,0.9,0.4,1.3,1.2,1.3
		c0.4,0,0.7-0.1,0.9-0.3c0.2-0.2,0.3-0.5,0.3-0.9c0-0.2,0-0.4-0.1-0.5s-0.1-0.3-0.3-0.4c-0.1-0.1-0.2-0.2-0.4-0.2s-0.3-0.1-0.5-0.1
		c-0.2,0-0.4,0-0.5,0.1c-0.1,0.1-0.3,0.2-0.4,0.3c-0.1,0.1-0.2,0.3-0.2,0.4S83.3,101.5,83.3,101.7z"/>
	<path fill="#616567" d="M88.2,104.7c0-0.4,0.1-0.9,0.3-1.3s0.4-0.9,0.7-1.3l2-2.7c0.1-0.1,0.2-0.2,0.4-0.3c0.2-0.1,0.4-0.1,0.6-0.1
		h1.7l-2.6,3.1c0,0-0.1,0.1-0.1,0.1c0,0-0.1,0.1-0.1,0.1c0.1-0.1,0.3-0.1,0.4-0.1s0.3,0,0.5,0c0.3,0,0.6,0.1,0.9,0.2
		c0.3,0.1,0.6,0.3,0.8,0.5c0.2,0.2,0.4,0.5,0.6,0.8c0.2,0.3,0.2,0.7,0.2,1.2c0,0.4-0.1,0.8-0.2,1.2c-0.2,0.4-0.4,0.7-0.6,1
		c-0.3,0.3-0.6,0.5-1,0.6c-0.4,0.2-0.8,0.2-1.3,0.2c-0.5,0-0.9-0.1-1.3-0.2s-0.7-0.4-1-0.6s-0.5-0.6-0.6-1S88.2,105.2,88.2,104.7z
		 M90,105c0,0.2,0,0.4,0.1,0.6c0.1,0.2,0.1,0.3,0.2,0.5s0.2,0.2,0.4,0.3s0.4,0.1,0.6,0.1c0.2,0,0.4,0,0.5-0.1
		c0.2-0.1,0.3-0.2,0.4-0.3c0.1-0.1,0.2-0.3,0.3-0.5s0.1-0.4,0.1-0.6c0-0.2,0-0.4-0.1-0.6c-0.1-0.2-0.2-0.3-0.3-0.5
		c-0.1-0.1-0.3-0.2-0.4-0.3s-0.4-0.1-0.6-0.1c-0.2,0-0.4,0-0.5,0.1c-0.2,0.1-0.3,0.2-0.4,0.3c-0.1,0.1-0.2,0.3-0.3,0.5
		C90,104.6,90,104.8,90,105z"/>
	<path fill="#616567" d="M95,103.4c0-0.8,0.1-1.4,0.2-2s0.4-1,0.7-1.4s0.6-0.6,1-0.8s0.8-0.3,1.3-0.3s0.9,0.1,1.3,0.3s0.7,0.5,1,0.8
		s0.5,0.8,0.7,1.4s0.2,1.2,0.2,2s-0.1,1.4-0.2,2s-0.4,1-0.7,1.4s-0.6,0.6-1,0.8s-0.8,0.3-1.3,0.3s-0.9-0.1-1.3-0.3s-0.7-0.5-1-0.8
		s-0.5-0.8-0.7-1.4S95,104.1,95,103.4z M96.9,103.4c0,0.6,0,1.1,0.1,1.5s0.2,0.7,0.3,0.9s0.3,0.4,0.4,0.4s0.3,0.1,0.5,0.1
		s0.3,0,0.5-0.1s0.3-0.2,0.4-0.4s0.2-0.5,0.3-0.9s0.1-0.9,0.1-1.5s0-1.1-0.1-1.5s-0.2-0.7-0.3-0.9s-0.3-0.4-0.4-0.4
		c-0.2-0.1-0.3-0.1-0.5-0.1s-0.3,0-0.5,0.1c-0.2,0.1-0.3,0.2-0.4,0.4s-0.2,0.5-0.3,0.9S96.9,102.8,96.9,103.4z"/>
</g>
<g>
	<path fill="#FFFFFF" d="M45.4,49.7l-1.2-4.9h0L43,49.7h-1.6l-1.9-7.2h1.6l1.1,4.9h0l1.2-4.9H45l1.2,5h0l1.2-5h1.5L47,49.7H45.4z"/>
	<path fill="#FFFFFF" d="M50.7,42.5v2.7h0c0.2-0.3,0.4-0.5,0.7-0.7c0.3-0.1,0.6-0.2,0.8-0.2c0.4,0,0.7,0.1,0.9,0.2
		c0.2,0.1,0.4,0.2,0.6,0.4c0.1,0.2,0.2,0.4,0.3,0.7c0.1,0.3,0.1,0.6,0.1,0.9v3.2h-1.4v-2.9c0-0.4-0.1-0.8-0.2-1
		c-0.1-0.2-0.4-0.3-0.7-0.3c-0.4,0-0.7,0.1-0.8,0.3c-0.2,0.2-0.3,0.6-0.3,1.1v2.7h-1.4v-7.2H50.7z"/>
	<path fill="#FFFFFF" d="M55.1,45.2c0.1-0.2,0.3-0.4,0.6-0.5c0.2-0.1,0.5-0.2,0.8-0.3c0.3-0.1,0.6-0.1,0.9-0.1c0.3,0,0.5,0,0.8,0.1
		c0.3,0,0.5,0.1,0.7,0.2c0.2,0.1,0.4,0.3,0.5,0.4c0.1,0.2,0.2,0.4,0.2,0.8v2.7c0,0.2,0,0.5,0,0.7c0,0.2,0.1,0.4,0.1,0.5h-1.4
		c0-0.1,0-0.2-0.1-0.2c0-0.1,0-0.2,0-0.3c-0.2,0.2-0.5,0.4-0.8,0.5c-0.3,0.1-0.6,0.1-0.9,0.1c-0.2,0-0.5,0-0.7-0.1
		c-0.2-0.1-0.4-0.2-0.6-0.3c-0.2-0.1-0.3-0.3-0.4-0.5c-0.1-0.2-0.1-0.4-0.1-0.7c0-0.3,0.1-0.5,0.2-0.7c0.1-0.2,0.2-0.3,0.4-0.5
		c0.2-0.1,0.4-0.2,0.6-0.3c0.2-0.1,0.4-0.1,0.6-0.1c0.2,0,0.4-0.1,0.6-0.1c0.2,0,0.4-0.1,0.6-0.1c0.2,0,0.3-0.1,0.4-0.2
		c0.1-0.1,0.1-0.2,0.1-0.3c0-0.2,0-0.3-0.1-0.4c-0.1-0.1-0.1-0.2-0.2-0.2c-0.1-0.1-0.2-0.1-0.3-0.1c-0.1,0-0.2,0-0.4,0
		c-0.3,0-0.5,0.1-0.7,0.2c-0.2,0.1-0.3,0.3-0.3,0.6h-1.4C54.9,45.7,55,45.4,55.1,45.2z M58,47.2c-0.1,0-0.2,0.1-0.3,0.1
		c-0.1,0-0.2,0-0.3,0.1c-0.1,0-0.2,0-0.3,0.1c-0.1,0-0.2,0-0.3,0.1c-0.1,0-0.2,0.1-0.3,0.1c-0.1,0.1-0.1,0.1-0.2,0.2
		c0,0.1-0.1,0.2-0.1,0.3c0,0.1,0,0.2,0.1,0.3c0,0.1,0.1,0.2,0.2,0.2c0.1,0.1,0.2,0.1,0.3,0.1c0.1,0,0.2,0,0.3,0c0.3,0,0.5,0,0.7-0.1
		c0.2-0.1,0.3-0.2,0.3-0.3c0.1-0.1,0.1-0.3,0.1-0.4c0-0.1,0-0.2,0-0.3v-0.5C58.1,47.2,58.1,47.2,58,47.2z"/>
	<path fill="#FFFFFF" d="M63.3,44.5v1h-1V48c0,0.2,0,0.4,0.1,0.5c0.1,0.1,0.2,0.1,0.5,0.1c0.1,0,0.2,0,0.2,0c0.1,0,0.1,0,0.2,0v1.1
		c-0.1,0-0.3,0-0.4,0c-0.1,0-0.3,0-0.4,0c-0.2,0-0.4,0-0.6,0c-0.2,0-0.4-0.1-0.5-0.2c-0.2-0.1-0.3-0.2-0.4-0.4
		c-0.1-0.2-0.1-0.4-0.1-0.6v-3.1H60v-1h0.9v-1.6h1.4v1.6H63.3z"/>
	<path fill="#FFFFFF" d="M65,48.4c0.1,0.1,0.1,0.2,0.2,0.3c0.1,0.1,0.2,0.1,0.3,0.2c0.1,0,0.3,0.1,0.4,0.1c0.1,0,0.2,0,0.3,0
		c0.1,0,0.2-0.1,0.3-0.1c0.1-0.1,0.2-0.1,0.2-0.2c0.1-0.1,0.1-0.2,0.1-0.3c0-0.2-0.1-0.4-0.4-0.5c-0.3-0.1-0.7-0.2-1.2-0.3
		c-0.2,0-0.4-0.1-0.6-0.2c-0.2-0.1-0.4-0.1-0.5-0.3c-0.2-0.1-0.3-0.2-0.4-0.4c-0.1-0.2-0.1-0.4-0.1-0.6c0-0.3,0.1-0.6,0.2-0.8
		c0.1-0.2,0.3-0.4,0.5-0.5c0.2-0.1,0.5-0.2,0.7-0.3c0.3,0,0.5-0.1,0.8-0.1c0.3,0,0.6,0,0.8,0.1c0.3,0.1,0.5,0.1,0.7,0.3
		c0.2,0.1,0.4,0.3,0.5,0.5c0.1,0.2,0.2,0.5,0.2,0.8h-1.4c0-0.3-0.1-0.5-0.3-0.6c-0.2-0.1-0.4-0.1-0.7-0.1c-0.1,0-0.2,0-0.3,0
		c-0.1,0-0.2,0-0.3,0.1c-0.1,0-0.1,0.1-0.2,0.1c-0.1,0.1-0.1,0.1-0.1,0.3c0,0.1,0,0.2,0.1,0.3c0.1,0.1,0.2,0.1,0.4,0.2
		c0.2,0.1,0.3,0.1,0.5,0.1c0.2,0,0.4,0.1,0.6,0.1c0.2,0,0.4,0.1,0.6,0.2c0.2,0.1,0.4,0.2,0.5,0.3c0.2,0.1,0.3,0.2,0.4,0.4
		c0.1,0.2,0.1,0.4,0.1,0.6c0,0.3-0.1,0.6-0.2,0.9c-0.1,0.2-0.3,0.4-0.5,0.6c-0.2,0.1-0.5,0.2-0.8,0.3c-0.3,0.1-0.6,0.1-0.9,0.1
		c-0.3,0-0.6,0-0.9-0.1c-0.3-0.1-0.5-0.2-0.8-0.3c-0.2-0.1-0.4-0.3-0.6-0.6c-0.1-0.2-0.2-0.5-0.2-0.9h1.4
		C64.9,48.1,64.9,48.3,65,48.4z"/>
	<path fill="#FFFFFF" d="M72.7,46.9l-0.9-2.6h0l-0.9,2.6H72.7z M72.6,42.5l2.7,7.2h-1.6l-0.5-1.6h-2.7l-0.6,1.6h-1.6l2.7-7.2H72.6z"
		/>
	<path fill="#FFFFFF" d="M78.7,48.6c0.2-0.1,0.3-0.2,0.4-0.4c0.1-0.2,0.2-0.3,0.2-0.5c0-0.2,0.1-0.4,0.1-0.6c0-0.2,0-0.4-0.1-0.6
		c0-0.2-0.1-0.4-0.2-0.5c-0.1-0.2-0.2-0.3-0.4-0.4c-0.2-0.1-0.3-0.1-0.6-0.1c-0.2,0-0.4,0-0.6,0.1c-0.2,0.1-0.3,0.2-0.4,0.4
		c-0.1,0.2-0.2,0.3-0.2,0.5c0,0.2-0.1,0.4-0.1,0.6c0,0.2,0,0.4,0.1,0.6c0,0.2,0.1,0.4,0.2,0.5c0.1,0.2,0.2,0.3,0.4,0.4
		c0.2,0.1,0.4,0.1,0.6,0.1C78.4,48.7,78.6,48.7,78.7,48.6z M76.9,44.5v0.7h0c0.2-0.3,0.4-0.5,0.7-0.6c0.3-0.1,0.6-0.2,0.9-0.2
		c0.4,0,0.8,0.1,1.1,0.2c0.3,0.2,0.5,0.4,0.7,0.6c0.2,0.3,0.3,0.6,0.4,0.9c0.1,0.3,0.1,0.7,0.1,1.1c0,0.4,0,0.7-0.1,1
		c-0.1,0.3-0.2,0.6-0.4,0.9c-0.2,0.2-0.4,0.4-0.7,0.6c-0.3,0.1-0.6,0.2-1,0.2c-0.3,0-0.6-0.1-0.9-0.2c-0.3-0.1-0.5-0.3-0.7-0.6h0
		v2.5h-1.4v-7H76.9z"/>
	<path fill="#FFFFFF" d="M84.4,48.6c0.2-0.1,0.3-0.2,0.4-0.4c0.1-0.2,0.2-0.3,0.2-0.5c0-0.2,0.1-0.4,0.1-0.6c0-0.2,0-0.4-0.1-0.6
		c0-0.2-0.1-0.4-0.2-0.5c-0.1-0.2-0.2-0.3-0.4-0.4c-0.2-0.1-0.3-0.1-0.6-0.1c-0.2,0-0.4,0-0.6,0.1c-0.2,0.1-0.3,0.2-0.4,0.4
		c-0.1,0.2-0.2,0.3-0.2,0.5c0,0.2-0.1,0.4-0.1,0.6c0,0.2,0,0.4,0.1,0.6c0,0.2,0.1,0.4,0.2,0.5c0.1,0.2,0.2,0.3,0.4,0.4
		c0.2,0.1,0.4,0.1,0.6,0.1C84.1,48.7,84.3,48.7,84.4,48.6z M82.6,44.5v0.7h0c0.2-0.3,0.4-0.5,0.7-0.6c0.3-0.1,0.6-0.2,0.9-0.2
		c0.4,0,0.8,0.1,1.1,0.2c0.3,0.2,0.5,0.4,0.7,0.6c0.2,0.3,0.3,0.6,0.4,0.9c0.1,0.3,0.1,0.7,0.1,1.1c0,0.4,0,0.7-0.1,1
		c-0.1,0.3-0.2,0.6-0.4,0.9c-0.2,0.2-0.4,0.4-0.7,0.6c-0.3,0.1-0.6,0.2-1,0.2c-0.3,0-0.6-0.1-0.9-0.2c-0.3-0.1-0.5-0.3-0.7-0.6h0
		v2.5h-1.4v-7H82.6z"/>
	<path fill-rule="evenodd" clip-rule="evenodd" fill="#FFFFFF" d="M63.3,12.5c-6.9,0-12.4,5.6-12.4,12.5c0,2.4,0.7,4.6,1.8,6.4
		l-2.2,6.7l6.9-2.2c1.8,1,3.8,1.6,6,1.6c6.9,0,12.4-5.6,12.4-12.5S70.1,12.5,63.3,12.5z"/>
	<path fill-rule="evenodd" clip-rule="evenodd" fill="#17A2BF" d="M63.3,14.5c-5.8,0-10.4,4.7-10.4,10.5c0,2.3,0.7,4.4,2,6.1
		L53.5,35l4-1.3c1.6,1.1,3.6,1.7,5.7,1.7c5.8,0,10.4-4.7,10.4-10.5C73.7,19.2,69,14.5,63.3,14.5z"/>
	<path fill-rule="evenodd" clip-rule="evenodd" fill="#FFFFFF" d="M60.3,19.8c-0.2-0.5-0.4-0.5-0.7-0.5c-0.1,0-0.2,0-0.3,0
		c-0.4,0-0.8,0.1-1.1,0.4c-0.3,0.3-1.1,1-1.1,2.5c0,1.5,1.1,3,1.2,3.2c0.2,0.2,2.1,3.3,5.2,4.6c2.4,1,3.1,0.9,3.7,0.8
		c0.8-0.2,1.8-0.8,2-1.5c0.3-0.7,0.3-1.3,0.2-1.5c-0.1-0.1-0.3-0.2-0.6-0.4c-0.3-0.2-1.8-0.9-2.1-1c-0.3-0.1-0.5-0.1-0.8,0.2
		c-0.3,0.4-0.6,0.8-0.8,1.1c-0.2,0.2-0.5,0.2-0.7,0.1c-0.3-0.1-1.3-0.5-2.4-1.5c-0.9-0.8-1.5-1.8-1.7-2.1s0-0.5,0.1-0.7
		c0.2-0.2,0.3-0.3,0.5-0.5c0.2-0.2,0.2-0.3,0.3-0.5c0.1-0.2,0-0.4,0-0.6C61.2,21.9,60.6,20.4,60.3,19.8z"/>
</g>
</svg>
