<?xml version="1.0" encoding="utf-8"?>
<!-- Generator: Adobe Illustrator 18.0.0, SVG Export Plug-In . SVG Version: 6.00 Build 0)  -->
<!DOCTYPE svg PUBLIC "-//W3C//DTD SVG 1.1//EN" "http://www.w3.org/Graphics/SVG/1.1/DTD/svg11.dtd">
<svg version="1.1" id="Camada_1" xmlns="http://www.w3.org/2000/svg" xmlns:xlink="http://www.w3.org/1999/xlink" x="0px" y="0px"
	 viewBox="0 0 120.3 112.2" enable-background="new 0 0 120.3 112.2" xml:space="preserve">
<path fill-rule="evenodd" clip-rule="evenodd" fill="#17A2BF" d="M31,0h63c5.5,0,10,4.5,10,10v45c0,5.5-4.5,10-10,10H31
	c-5.5,0-10-4.5-10-10V10C21,4.5,25.5,0,31,0z"/>
<path fill-rule="evenodd" clip-rule="evenodd" fill="#FFFFFF" d="M55,44V22h33v22H55z M56.6,41.6l9.5-8.6l-9.5-8.6V41.6z M57.7,23.4
	l12,10.9c1.3,1.2,2.3,1.2,3.6,0l12-10.9H57.7z M85.3,42.5L75.9,34c-1.9,1.7-3.1,2.8-4.4,2.8c-1.3,0-2.5-1.2-4.4-2.8l-9.5,8.6H85.3z
	 M76.9,33l9.5,8.6V24.4L76.9,33z"/>
<path fill-rule="evenodd" clip-rule="evenodd" fill="#17A5C2" stroke="#FFFFFF" stroke-miterlimit="10" d="M35.5,17.6h25.1v30.9
	H35.5V17.6z"/>
<g>
	<path fill="#616567" d="M3.6,93.7V85h5.6v1.6H5.7v2h2.8v1.5H5.7v2.1h3.6v1.6H3.6z"/>
	<path fill="#616567" d="M10.4,93.7V85h1.1c0.1,0,0.2,0,0.2,0s0.1,0,0.2,0s0.1,0.1,0.1,0.1s0.1,0.1,0.1,0.2l4.1,5.3
		c0-0.2,0-0.3,0-0.5s0-0.3,0-0.4V85H18v8.7H17c-0.2,0-0.3,0-0.4-0.1s-0.2-0.1-0.3-0.3l-4.1-5.2c0,0.2,0,0.3,0,0.4s0,0.3,0,0.4v4.7
		H10.4z"/>
	<path fill="#616567" d="M18.8,85h1.6c0.2,0,0.3,0,0.4,0.1s0.2,0.2,0.2,0.3l1.7,4.7c0.1,0.2,0.2,0.4,0.2,0.7s0.2,0.5,0.2,0.8
		c0.1-0.3,0.1-0.5,0.2-0.8s0.1-0.5,0.2-0.7l1.7-4.7c0-0.1,0.1-0.2,0.2-0.3S25.8,85,26,85h1.6l-3.5,8.7h-1.8L18.8,85z"/>
	<path fill="#616567" d="M28.5,93.7V85h2v8.7H28.5z"/>
	<path fill="#616567" d="M31.7,89.4c0-0.6,0.1-1.2,0.3-1.8c0.2-0.5,0.5-1,0.9-1.4c0.4-0.4,0.9-0.7,1.4-0.9c0.6-0.2,1.2-0.3,1.9-0.3
		s1.3,0.1,1.9,0.3c0.6,0.2,1,0.5,1.4,0.9c0.4,0.4,0.7,0.9,0.9,1.4c0.2,0.5,0.3,1.1,0.3,1.8c0,0.6-0.1,1.2-0.3,1.8
		c-0.2,0.5-0.5,1-0.9,1.4c-0.4,0.4-0.9,0.7-1.4,0.9c-0.6,0.2-1.2,0.3-1.9,0.3s-1.3-0.1-1.9-0.3c-0.6-0.2-1-0.5-1.4-0.9
		c-0.4-0.4-0.7-0.9-0.9-1.4C31.8,90.6,31.7,90,31.7,89.4z M33.8,89.4c0,0.4,0.1,0.8,0.2,1.2c0.1,0.3,0.3,0.6,0.5,0.9
		c0.2,0.2,0.5,0.4,0.8,0.5c0.3,0.1,0.7,0.2,1,0.2c0.4,0,0.7-0.1,1-0.2c0.3-0.1,0.6-0.3,0.8-0.5c0.2-0.2,0.4-0.5,0.5-0.9
		c0.1-0.3,0.2-0.7,0.2-1.2s-0.1-0.8-0.2-1.2c-0.1-0.3-0.3-0.6-0.5-0.9c-0.2-0.2-0.5-0.4-0.8-0.6c-0.3-0.1-0.6-0.2-1-0.2
		s-0.7,0.1-1,0.2c-0.3,0.1-0.6,0.3-0.8,0.6c-0.2,0.2-0.4,0.5-0.5,0.9C33.8,88.6,33.8,88.9,33.8,89.4z"/>
	<path fill="#616567" d="M44.1,93.7V85h3.4c0.7,0,1.3,0.1,1.9,0.3s1,0.5,1.4,0.9c0.4,0.4,0.7,0.8,0.9,1.4s0.3,1.1,0.3,1.7
		c0,0.6-0.1,1.2-0.3,1.7s-0.5,1-0.9,1.4c-0.4,0.4-0.9,0.7-1.4,0.9s-1.2,0.3-1.9,0.3H44.1z M46.1,92.2h1.4c0.4,0,0.7-0.1,1-0.2
		c0.3-0.1,0.6-0.3,0.8-0.6c0.2-0.2,0.4-0.5,0.5-0.9c0.1-0.3,0.2-0.7,0.2-1.2s-0.1-0.8-0.2-1.2c-0.1-0.3-0.3-0.6-0.5-0.9
		c-0.2-0.2-0.5-0.4-0.8-0.6c-0.3-0.1-0.7-0.2-1-0.2h-1.4V92.2z"/>
	<path fill="#616567" d="M53,93.7V85h5.6v1.6H55v2h2.8v1.5H55v2.1h3.6v1.6H53z"/>
	<path fill="#616567" d="M62.2,93.7V85h2v8.7H62.2z"/>
	<path fill="#616567" d="M65.9,93.7V85h1.5c0.1,0,0.2,0,0.2,0s0.1,0,0.2,0s0.1,0.1,0.1,0.1s0.1,0.1,0.1,0.2l2.3,4.4
		c0.1,0.2,0.2,0.3,0.2,0.5s0.1,0.3,0.2,0.5c0.1-0.2,0.1-0.3,0.2-0.5s0.2-0.3,0.2-0.5l2.2-4.4c0-0.1,0.1-0.1,0.1-0.2s0.1-0.1,0.1-0.1
		s0.1,0,0.2,0s0.1,0,0.2,0h1.5v8.7h-1.8v-5c0-0.2,0-0.5,0-0.8l-2.3,4.5c-0.1,0.1-0.2,0.2-0.3,0.3s-0.3,0.1-0.4,0.1h-0.3
		c-0.2,0-0.3,0-0.4-0.1S70,92.6,70,92.4l-2.3-4.5c0,0.1,0,0.3,0,0.4s0,0.3,0,0.4v5H65.9z"/>
	<path fill="#616567" d="M76.5,93.7l3.4-8.7h2.1l3.4,8.7h-1.6c-0.2,0-0.3,0-0.4-0.1c-0.1-0.1-0.2-0.2-0.2-0.3l-0.5-1.5h-3.3
		l-0.5,1.5c0,0.1-0.1,0.2-0.2,0.3s-0.3,0.1-0.4,0.1H76.5z M79.7,90.4h2.4L81.3,88c-0.1-0.2-0.1-0.3-0.2-0.5S81,87,80.9,86.8
		c-0.1,0.2-0.1,0.5-0.2,0.7s-0.1,0.4-0.2,0.5L79.7,90.4z"/>
	<path fill="#616567" d="M85.2,89.4c0-0.7,0.1-1.3,0.3-1.8s0.5-1,0.9-1.4s0.9-0.7,1.5-0.9c0.6-0.2,1.2-0.3,1.9-0.3
		c0.4,0,0.7,0,1,0.1c0.3,0.1,0.6,0.1,0.9,0.2c0.3,0.1,0.5,0.2,0.7,0.4s0.4,0.3,0.6,0.5L92.4,87c-0.1,0.1-0.1,0.2-0.2,0.2
		s-0.2,0.1-0.3,0.1c-0.1,0-0.2,0-0.4-0.1c-0.2-0.1-0.3-0.2-0.5-0.3c-0.1-0.1-0.3-0.1-0.4-0.2c-0.1,0-0.3-0.1-0.5-0.1s-0.3,0-0.5,0
		c-0.4,0-0.7,0.1-1,0.2s-0.6,0.3-0.8,0.6s-0.4,0.5-0.5,0.9c-0.1,0.3-0.2,0.7-0.2,1.1c0,0.5,0.1,0.9,0.2,1.2c0.1,0.4,0.3,0.7,0.5,0.9
		s0.5,0.4,0.8,0.6c0.3,0.1,0.7,0.2,1,0.2c0.3,0,0.5,0,0.7-0.1c0.2,0,0.4-0.1,0.6-0.2v-1.3h-0.9c-0.1,0-0.2,0-0.3-0.1
		c-0.1-0.1-0.1-0.2-0.1-0.3v-1.2H93v3.7c-0.2,0.2-0.5,0.3-0.7,0.4c-0.2,0.1-0.5,0.2-0.8,0.3s-0.6,0.1-0.9,0.2c-0.3,0-0.6,0.1-1,0.1
		c-0.6,0-1.2-0.1-1.8-0.3c-0.5-0.2-1-0.5-1.4-0.9s-0.7-0.9-0.9-1.4C85.3,90.6,85.2,90,85.2,89.4z"/>
	<path fill="#616567" d="M94.2,93.7V85h5.6v1.6h-3.6v2H99v1.5h-2.8v2.1h3.6v1.6H94.2z"/>
	<path fill="#616567" d="M101,93.7V85h1.1c0.1,0,0.2,0,0.2,0s0.1,0,0.2,0s0.1,0.1,0.1,0.1s0.1,0.1,0.1,0.2l4.1,5.3
		c0-0.2,0-0.3,0-0.5s0-0.3,0-0.4V85h1.8v8.7h-1.1c-0.2,0-0.3,0-0.4-0.1s-0.2-0.1-0.3-0.3l-4.1-5.2c0,0.2,0,0.3,0,0.4s0,0.3,0,0.4
		v4.7H101z"/>
	<path fill="#616567" d="M109.4,92.7l0.6-0.9c0-0.1,0.1-0.1,0.2-0.2s0.2-0.1,0.3-0.1c0.1,0,0.2,0,0.4,0.1c0.1,0.1,0.3,0.2,0.4,0.3
		c0.2,0.1,0.3,0.2,0.5,0.3c0.2,0.1,0.4,0.1,0.7,0.1c0.4,0,0.7-0.1,0.9-0.2c0.2-0.2,0.3-0.4,0.3-0.8c0-0.2-0.1-0.4-0.2-0.5
		c-0.1-0.1-0.3-0.2-0.4-0.3c-0.2-0.1-0.4-0.2-0.6-0.2c-0.2-0.1-0.5-0.1-0.7-0.2c-0.2-0.1-0.5-0.2-0.7-0.3c-0.2-0.1-0.4-0.3-0.6-0.4
		c-0.2-0.2-0.3-0.4-0.4-0.7c-0.1-0.3-0.2-0.6-0.2-1c0-0.3,0.1-0.7,0.2-1c0.1-0.3,0.3-0.6,0.6-0.8s0.6-0.4,1-0.6
		c0.4-0.1,0.8-0.2,1.3-0.2c0.3,0,0.5,0,0.8,0.1s0.5,0.1,0.7,0.2c0.2,0.1,0.4,0.2,0.6,0.3c0.2,0.1,0.4,0.2,0.5,0.4l-0.5,0.9
		c-0.1,0.1-0.1,0.2-0.2,0.2c-0.1,0-0.2,0.1-0.3,0.1c-0.1,0-0.2,0-0.3-0.1c-0.1-0.1-0.2-0.1-0.4-0.2s-0.3-0.1-0.5-0.2
		c-0.2-0.1-0.4-0.1-0.6-0.1c-0.4,0-0.7,0.1-0.8,0.2c-0.2,0.2-0.3,0.4-0.3,0.7c0,0.2,0.1,0.3,0.2,0.4c0.1,0.1,0.3,0.2,0.4,0.3
		c0.2,0.1,0.4,0.2,0.6,0.2c0.2,0.1,0.5,0.1,0.7,0.2c0.2,0.1,0.5,0.2,0.7,0.3c0.2,0.1,0.4,0.3,0.6,0.4s0.3,0.4,0.4,0.7
		c0.1,0.3,0.2,0.6,0.2,0.9c0,0.4-0.1,0.8-0.2,1.1c-0.1,0.4-0.3,0.7-0.6,0.9c-0.3,0.3-0.6,0.5-1,0.6c-0.4,0.1-0.8,0.2-1.3,0.2
		c-0.3,0-0.6,0-0.8-0.1c-0.3-0.1-0.6-0.1-0.8-0.2s-0.5-0.2-0.7-0.4S109.6,92.9,109.4,92.7z"/>
	<path fill="#616567" d="M29,108.7V100h3.1c0.6,0,1.1,0.1,1.6,0.2c0.4,0.1,0.8,0.3,1.1,0.6c0.3,0.3,0.5,0.6,0.6,0.9s0.2,0.7,0.2,1.1
		c0,0.4-0.1,0.8-0.2,1.2c-0.1,0.4-0.4,0.7-0.6,0.9c-0.3,0.3-0.7,0.5-1.1,0.6c-0.4,0.1-1,0.2-1.6,0.2H31v2.9H29z M31,104.3h1.1
		c0.5,0,0.9-0.1,1.1-0.4s0.3-0.6,0.3-1.1c0-0.2,0-0.4-0.1-0.5c-0.1-0.2-0.2-0.3-0.3-0.4c-0.1-0.1-0.3-0.2-0.5-0.3
		c-0.2-0.1-0.4-0.1-0.7-0.1H31V104.3z"/>
	<path fill="#616567" d="M36.2,104.4c0-0.6,0.1-1.2,0.3-1.8c0.2-0.5,0.5-1,0.9-1.4s0.9-0.7,1.4-0.9s1.2-0.3,1.9-0.3s1.3,0.1,1.9,0.3
		s1,0.5,1.4,0.9s0.7,0.9,0.9,1.4c0.2,0.5,0.3,1.1,0.3,1.8c0,0.6-0.1,1.2-0.3,1.8s-0.5,1-0.9,1.4s-0.9,0.7-1.4,0.9s-1.2,0.3-1.9,0.3
		s-1.3-0.1-1.9-0.3s-1-0.5-1.4-0.9s-0.7-0.9-0.9-1.4S36.2,105,36.2,104.4z M38.3,104.4c0,0.4,0.1,0.8,0.2,1.2
		c0.1,0.3,0.3,0.6,0.5,0.9s0.5,0.4,0.8,0.5s0.7,0.2,1,0.2c0.4,0,0.7-0.1,1-0.2s0.6-0.3,0.8-0.5s0.4-0.5,0.5-0.9
		c0.1-0.3,0.2-0.7,0.2-1.2s-0.1-0.8-0.2-1.2c-0.1-0.3-0.3-0.6-0.5-0.9c-0.2-0.2-0.5-0.4-0.8-0.6s-0.6-0.2-1-0.2s-0.7,0.1-1,0.2
		s-0.6,0.3-0.8,0.6c-0.2,0.2-0.4,0.5-0.5,0.9C38.3,103.6,38.3,103.9,38.3,104.4z"/>
	<path fill="#616567" d="M46.3,108.7V100h2.9c0.6,0,1.2,0.1,1.6,0.2c0.4,0.1,0.8,0.3,1.1,0.5s0.5,0.5,0.6,0.8s0.2,0.7,0.2,1
		c0,0.3,0,0.6-0.1,0.8c-0.1,0.3-0.2,0.5-0.3,0.7c-0.2,0.2-0.3,0.4-0.6,0.6c-0.2,0.2-0.5,0.3-0.8,0.4c0.1,0.1,0.3,0.2,0.4,0.3
		s0.2,0.2,0.3,0.4l1.9,3h-1.8c-0.3,0-0.6-0.1-0.7-0.4l-1.5-2.5c-0.1-0.1-0.1-0.2-0.2-0.2s-0.2-0.1-0.4-0.1h-0.5v3.2H46.3z
		 M48.3,104.1h0.8c0.3,0,0.5,0,0.7-0.1c0.2-0.1,0.4-0.2,0.5-0.3c0.1-0.1,0.2-0.3,0.3-0.4s0.1-0.3,0.1-0.5c0-0.4-0.1-0.7-0.4-0.9
		s-0.6-0.3-1.2-0.3h-0.8V104.1z"/>
	<path fill="#616567" d="M56.5,108.7V100h5.6v1.6h-3.6v2h2.8v1.5h-2.8v2.1h3.6v1.6H56.5z"/>
	<path fill="#616567" d="M63.3,108.7V100h1.5c0.1,0,0.2,0,0.2,0s0.1,0,0.2,0s0.1,0.1,0.1,0.1s0.1,0.1,0.1,0.2l2.3,4.4
		c0.1,0.2,0.2,0.3,0.2,0.5s0.1,0.3,0.2,0.5c0.1-0.2,0.1-0.3,0.2-0.5s0.2-0.3,0.2-0.5l2.2-4.4c0-0.1,0.1-0.1,0.1-0.2s0.1-0.1,0.1-0.1
		s0.1,0,0.2,0s0.1,0,0.2,0h1.5v8.7h-1.8v-5c0-0.2,0-0.5,0-0.8l-2.3,4.5c-0.1,0.1-0.2,0.2-0.3,0.3s-0.3,0.1-0.4,0.1h-0.3
		c-0.2,0-0.3,0-0.4-0.1s-0.2-0.2-0.3-0.3l-2.3-4.5c0,0.1,0,0.3,0,0.4s0,0.3,0,0.4v5H63.3z"/>
	<path fill="#616567" d="M73.9,108.7l3.4-8.7h2.1l3.4,8.7h-1.6c-0.2,0-0.3,0-0.4-0.1c-0.1-0.1-0.2-0.2-0.2-0.3l-0.5-1.5h-3.3
		l-0.5,1.5c0,0.1-0.1,0.2-0.2,0.3c-0.1,0.1-0.3,0.1-0.4,0.1H73.9z M77.1,105.4h2.4l-0.8-2.4c-0.1-0.2-0.1-0.3-0.2-0.5
		s-0.1-0.4-0.2-0.7c-0.1,0.2-0.1,0.5-0.2,0.7s-0.1,0.4-0.2,0.5L77.1,105.4z"/>
	<path fill="#616567" d="M83.6,108.7V100h2v8.7H83.6z"/>
	<path fill="#616567" d="M87.3,108.7V100h2v7.1h3.2v1.6H87.3z"/>
</g>
</svg>
