<?xml version="1.0" encoding="utf-8"?>
<!-- Generator: Adobe Illustrator 18.0.0, SVG Export Plug-In . SVG Version: 6.00 Build 0)  -->
<!DOCTYPE svg PUBLIC "-//W3C//DTD SVG 1.1//EN" "http://www.w3.org/Graphics/SVG/1.1/DTD/svg11.dtd">
<svg version="1.1" id="Camada_1" xmlns="http://www.w3.org/2000/svg" xmlns:xlink="http://www.w3.org/1999/xlink" x="0px" y="0px"
	 viewBox="0 0 32.8 32.3" enable-background="new 0 0 32.8 32.3" xml:space="preserve">
<path fill-rule="evenodd" clip-rule="evenodd" fill="#406A9E" d="M3.6,0h25.5c2,0,3.6,1.6,3.6,3.6v25.1c0,2-1.6,3.6-3.6,3.6H3.6
	c-2,0-3.6-1.6-3.6-3.6V3.6C0,1.6,1.6,0,3.6,0z M19,13.5c0,0,0-2.2,0-3c0-2.5,1.9-4.3,4.4-4.3c1.5,0,3.5,0,3.5,0l0,4.2
	c0,0-2.2,0-2.7,0c-0.6,0-1,0.3-1,0.9c0,0.6,0,2.2,0,2.2H27l0,4.2h-3.7l0,8.8h-4.2l0-8.9l-2.6,0v-4.2L19,13.5z"/>
</svg>
