<?xml version="1.0" encoding="utf-8"?>
<!-- Generator: Adobe Illustrator 18.0.0, SVG Export Plug-In . SVG Version: 6.00 Build 0)  -->
<!DOCTYPE svg PUBLIC "-//W3C//DTD SVG 1.1//EN" "http://www.w3.org/Graphics/SVG/1.1/DTD/svg11.dtd">
<svg version="1.1" id="Camada_1" xmlns="http://www.w3.org/2000/svg" xmlns:xlink="http://www.w3.org/1999/xlink" x="0px" y="0px"
	 viewBox="0 0 120.3 112.2" enable-background="new 0 0 120.3 112.2" xml:space="preserve">
<path fill-rule="evenodd" clip-rule="evenodd" fill="#17A2BF" d="M31,0h63c5.5,0,10,4.5,10,10v45c0,5.5-4.5,10-10,10H31
	c-5.5,0-10-4.5-10-10V10C21,4.5,25.5,0,31,0z"/>
<g>
	<path fill="#616567" d="M26.2,92.7l0.6-0.9c0-0.1,0.1-0.1,0.2-0.2s0.2-0.1,0.3-0.1c0.1,0,0.2,0,0.4,0.1s0.3,0.2,0.4,0.3
		s0.3,0.2,0.5,0.3c0.2,0.1,0.4,0.1,0.7,0.1c0.4,0,0.7-0.1,0.9-0.2c0.2-0.2,0.3-0.4,0.3-0.8c0-0.2-0.1-0.4-0.2-0.5
		c-0.1-0.1-0.3-0.2-0.4-0.3c-0.2-0.1-0.4-0.2-0.6-0.2c-0.2-0.1-0.5-0.1-0.7-0.2c-0.2-0.1-0.5-0.2-0.7-0.3c-0.2-0.1-0.4-0.3-0.6-0.4
		c-0.2-0.2-0.3-0.4-0.4-0.7s-0.2-0.6-0.2-1c0-0.3,0.1-0.7,0.2-1c0.1-0.3,0.3-0.6,0.6-0.8c0.3-0.2,0.6-0.4,1-0.6
		c0.4-0.1,0.8-0.2,1.3-0.2c0.3,0,0.5,0,0.8,0.1c0.3,0,0.5,0.1,0.7,0.2s0.4,0.2,0.6,0.3s0.4,0.2,0.5,0.4l-0.5,0.9
		c-0.1,0.1-0.1,0.2-0.2,0.2c-0.1,0-0.2,0.1-0.3,0.1c-0.1,0-0.2,0-0.3-0.1c-0.1-0.1-0.2-0.1-0.4-0.2s-0.3-0.1-0.5-0.2
		s-0.4-0.1-0.6-0.1c-0.4,0-0.7,0.1-0.8,0.2c-0.2,0.2-0.3,0.4-0.3,0.7c0,0.2,0.1,0.3,0.2,0.4s0.3,0.2,0.4,0.3s0.4,0.2,0.6,0.2
		c0.2,0.1,0.5,0.1,0.7,0.2s0.5,0.2,0.7,0.3s0.4,0.3,0.6,0.4c0.2,0.2,0.3,0.4,0.4,0.7c0.1,0.3,0.2,0.6,0.2,0.9c0,0.4-0.1,0.8-0.2,1.1
		s-0.3,0.7-0.6,0.9c-0.3,0.3-0.6,0.5-1,0.6s-0.8,0.2-1.3,0.2c-0.3,0-0.6,0-0.8-0.1c-0.3-0.1-0.6-0.1-0.8-0.2s-0.5-0.2-0.7-0.4
		S26.4,92.9,26.2,92.7z"/>
	<path fill="#616567" d="M33.3,90.2V85h2v5.2c0,0.3,0,0.6,0.1,0.8c0.1,0.2,0.2,0.4,0.3,0.6c0.1,0.2,0.3,0.3,0.5,0.4
		c0.2,0.1,0.5,0.1,0.7,0.1c0.3,0,0.5,0,0.7-0.1c0.2-0.1,0.4-0.2,0.5-0.4c0.1-0.2,0.3-0.4,0.3-0.6c0.1-0.2,0.1-0.5,0.1-0.8V85h2v5.2
		c0,0.5-0.1,1-0.3,1.5c-0.2,0.4-0.4,0.8-0.7,1.2c-0.3,0.3-0.7,0.6-1.2,0.8c-0.5,0.2-1,0.3-1.6,0.3c-0.6,0-1.1-0.1-1.6-0.3
		c-0.5-0.2-0.9-0.4-1.2-0.8c-0.3-0.3-0.6-0.7-0.7-1.2C33.3,91.2,33.3,90.7,33.3,90.2z"/>
	<path fill="#616567" d="M42.1,93.7V85h3.1c0.6,0,1.1,0.1,1.6,0.2c0.4,0.1,0.8,0.3,1.1,0.6s0.5,0.6,0.6,0.9c0.1,0.3,0.2,0.7,0.2,1.1
		c0,0.4-0.1,0.8-0.2,1.2c-0.1,0.4-0.4,0.7-0.6,0.9c-0.3,0.3-0.7,0.5-1.1,0.6c-0.4,0.1-1,0.2-1.6,0.2h-1.1v2.9H42.1z M44.1,89.3h1.1
		c0.5,0,0.9-0.1,1.1-0.4c0.2-0.3,0.3-0.6,0.3-1.1c0-0.2,0-0.4-0.1-0.5c-0.1-0.2-0.2-0.3-0.3-0.4c-0.1-0.1-0.3-0.2-0.5-0.3
		c-0.2-0.1-0.4-0.1-0.7-0.1h-1.1V89.3z"/>
	<path fill="#616567" d="M49.3,89.4c0-0.6,0.1-1.2,0.3-1.8c0.2-0.5,0.5-1,0.9-1.4s0.9-0.7,1.4-0.9s1.2-0.3,1.9-0.3s1.3,0.1,1.9,0.3
		c0.6,0.2,1,0.5,1.4,0.9s0.7,0.9,0.9,1.4c0.2,0.5,0.3,1.1,0.3,1.8c0,0.6-0.1,1.2-0.3,1.8s-0.5,1-0.9,1.4c-0.4,0.4-0.9,0.7-1.4,0.9
		s-1.2,0.3-1.9,0.3s-1.3-0.1-1.9-0.3s-1-0.5-1.4-0.9c-0.4-0.4-0.7-0.9-0.9-1.4S49.3,90,49.3,89.4z M51.4,89.4c0,0.4,0.1,0.8,0.2,1.2
		s0.3,0.6,0.5,0.9s0.5,0.4,0.8,0.5c0.3,0.1,0.7,0.2,1,0.2c0.4,0,0.7-0.1,1-0.2c0.3-0.1,0.6-0.3,0.8-0.5s0.4-0.5,0.5-0.9
		c0.1-0.3,0.2-0.7,0.2-1.2s-0.1-0.8-0.2-1.2c-0.1-0.3-0.3-0.6-0.5-0.9s-0.5-0.4-0.8-0.6s-0.6-0.2-1-0.2s-0.7,0.1-1,0.2
		s-0.6,0.3-0.8,0.6s-0.4,0.5-0.5,0.9C51.4,88.6,51.4,88.9,51.4,89.4z"/>
	<path fill="#616567" d="M59.3,93.7V85h2.9c0.6,0,1.2,0.1,1.6,0.2c0.4,0.1,0.8,0.3,1.1,0.5s0.5,0.5,0.6,0.8c0.1,0.3,0.2,0.7,0.2,1
		c0,0.3,0,0.6-0.1,0.8c-0.1,0.3-0.2,0.5-0.3,0.7c-0.2,0.2-0.3,0.4-0.6,0.6c-0.2,0.2-0.5,0.3-0.8,0.4c0.1,0.1,0.3,0.2,0.4,0.3
		s0.2,0.2,0.3,0.4l1.9,3h-1.8c-0.3,0-0.6-0.1-0.7-0.4l-1.5-2.5c-0.1-0.1-0.1-0.2-0.2-0.2s-0.2-0.1-0.4-0.1h-0.5v3.2H59.3z
		 M61.4,89.1h0.8c0.3,0,0.5,0,0.7-0.1c0.2-0.1,0.4-0.2,0.5-0.3s0.2-0.3,0.3-0.4s0.1-0.3,0.1-0.5c0-0.4-0.1-0.7-0.4-0.9
		c-0.3-0.2-0.6-0.3-1.2-0.3h-0.8V89.1z"/>
	<path fill="#616567" d="M66.3,86.6V85h6.9v1.6h-2.5v7.1h-2v-7.1H66.3z"/>
	<path fill="#616567" d="M74.1,93.7V85h5.6v1.6h-3.6v2h2.8v1.5h-2.8v2.1h3.6v1.6H74.1z"/>
	<path fill="#616567" d="M82.5,93.7l3.4-8.7H88l3.4,8.7h-1.6c-0.2,0-0.3,0-0.4-0.1s-0.2-0.2-0.2-0.3l-0.5-1.5h-3.3l-0.5,1.5
		c0,0.1-0.1,0.2-0.2,0.3c-0.1,0.1-0.3,0.1-0.4,0.1H82.5z M85.7,90.4h2.4L87.3,88c-0.1-0.2-0.1-0.3-0.2-0.5S87,87,86.9,86.8
		c-0.1,0.2-0.1,0.5-0.2,0.7s-0.1,0.4-0.2,0.5L85.7,90.4z"/>
	<path fill="#616567" d="M91.3,89.4c0-0.6,0.1-1.2,0.3-1.8c0.2-0.5,0.5-1,0.9-1.4s0.9-0.7,1.4-0.9s1.2-0.3,1.9-0.3s1.3,0.1,1.9,0.3
		c0.6,0.2,1,0.5,1.4,0.9s0.7,0.9,0.9,1.4c0.2,0.5,0.3,1.1,0.3,1.8c0,0.6-0.1,1.2-0.3,1.8s-0.5,1-0.9,1.4c-0.4,0.4-0.9,0.7-1.4,0.9
		s-1.2,0.3-1.9,0.3s-1.3-0.1-1.9-0.3s-1-0.5-1.4-0.9c-0.4-0.4-0.7-0.9-0.9-1.4S91.3,90,91.3,89.4z M93.3,89.4c0,0.4,0.1,0.8,0.2,1.2
		s0.3,0.6,0.5,0.9s0.5,0.4,0.8,0.5c0.3,0.1,0.7,0.2,1,0.2c0.4,0,0.7-0.1,1-0.2c0.3-0.1,0.6-0.3,0.8-0.5s0.4-0.5,0.5-0.9
		c0.1-0.3,0.2-0.7,0.2-1.2s-0.1-0.8-0.2-1.2c-0.1-0.3-0.3-0.6-0.5-0.9s-0.5-0.4-0.8-0.6s-0.6-0.2-1-0.2s-0.7,0.1-1,0.2
		s-0.6,0.3-0.8,0.6s-0.4,0.5-0.5,0.9C93.4,88.6,93.3,88.9,93.3,89.4z"/>
	<path fill="#616567" d="M44.3,108.7V100h2v7.1h3.2v1.6H44.3z"/>
	<path fill="#616567" d="M49.8,108.7l3.4-8.7h2.1l3.4,8.7H57c-0.2,0-0.3,0-0.4-0.1c-0.1-0.1-0.2-0.2-0.2-0.3l-0.5-1.5h-3.3l-0.5,1.5
		c0,0.1-0.1,0.2-0.2,0.3c-0.1,0.1-0.3,0.1-0.4,0.1H49.8z M53,105.4h2.4l-0.8-2.4c-0.1-0.2-0.1-0.3-0.2-0.5s-0.1-0.4-0.2-0.7
		c-0.1,0.2-0.1,0.5-0.2,0.7s-0.1,0.4-0.2,0.5L53,105.4z"/>
	<path fill="#616567" d="M58.9,105.2V100h2v5.2c0,0.3,0,0.6,0.1,0.8c0.1,0.2,0.2,0.4,0.3,0.6c0.1,0.2,0.3,0.3,0.5,0.4
		c0.2,0.1,0.5,0.1,0.7,0.1c0.3,0,0.5,0,0.7-0.1c0.2-0.1,0.4-0.2,0.5-0.4c0.1-0.2,0.3-0.4,0.3-0.6c0.1-0.2,0.1-0.5,0.1-0.8V100h2v5.2
		c0,0.5-0.1,1-0.3,1.5s-0.4,0.8-0.7,1.2s-0.7,0.6-1.2,0.8s-1,0.3-1.6,0.3c-0.6,0-1.1-0.1-1.6-0.3c-0.5-0.2-0.9-0.4-1.2-0.8
		c-0.3-0.3-0.6-0.7-0.7-1.2C59,106.2,58.9,105.7,58.9,105.2z"/>
	<path fill="#616567" d="M67.7,108.7V100h3.4c0.7,0,1.3,0.1,1.9,0.3s1,0.5,1.4,0.9s0.7,0.8,0.9,1.4c0.2,0.5,0.3,1.1,0.3,1.7
		c0,0.6-0.1,1.2-0.3,1.7c-0.2,0.5-0.5,1-0.9,1.4s-0.9,0.7-1.4,0.9s-1.2,0.3-1.9,0.3H67.7z M69.8,107.2h1.4c0.4,0,0.7-0.1,1-0.2
		c0.3-0.1,0.6-0.3,0.8-0.6s0.4-0.5,0.5-0.9s0.2-0.7,0.2-1.2s-0.1-0.8-0.2-1.2s-0.3-0.6-0.5-0.9s-0.5-0.4-0.8-0.6
		c-0.3-0.1-0.7-0.2-1-0.2h-1.4V107.2z"/>
	<path fill="#616567" d="M76.2,104.4c0-0.6,0.1-1.2,0.3-1.8c0.2-0.5,0.5-1,0.9-1.4s0.9-0.7,1.4-0.9s1.2-0.3,1.9-0.3s1.3,0.1,1.9,0.3
		s1,0.5,1.4,0.9s0.7,0.9,0.9,1.4c0.2,0.5,0.3,1.1,0.3,1.8c0,0.6-0.1,1.2-0.3,1.8s-0.5,1-0.9,1.4s-0.9,0.7-1.4,0.9s-1.2,0.3-1.9,0.3
		s-1.3-0.1-1.9-0.3s-1-0.5-1.4-0.9s-0.7-0.9-0.9-1.4S76.2,105,76.2,104.4z M78.3,104.4c0,0.4,0.1,0.8,0.2,1.2
		c0.1,0.3,0.3,0.6,0.5,0.9s0.5,0.4,0.8,0.5s0.7,0.2,1,0.2c0.4,0,0.7-0.1,1-0.2s0.6-0.3,0.8-0.5s0.4-0.5,0.5-0.9
		c0.1-0.3,0.2-0.7,0.2-1.2s-0.1-0.8-0.2-1.2c-0.1-0.3-0.3-0.6-0.5-0.9c-0.2-0.2-0.5-0.4-0.8-0.6s-0.6-0.2-1-0.2s-0.7,0.1-1,0.2
		s-0.6,0.3-0.8,0.6c-0.2,0.2-0.4,0.5-0.5,0.9C78.3,103.6,78.3,103.9,78.3,104.4z"/>
</g>
<path fill-rule="evenodd" clip-rule="evenodd" fill="#FFFFFF" d="M45.2,40.6c0-1.7,0.2-2.7,0.5-3.1C46,37.2,47,37,48.8,37h3.6V17.8
	h21.6V37h3.6c1.7,0,2.8,0.2,3.1,0.5c0.3,0.3,0.5,1.4,0.5,3.1 M80,40.6c0-1.1-0.1-1.8-0.4-2.1c-0.2-0.2-0.9-0.4-2.1-0.4H48.8
	c-1.1,0-1.8,0.1-2.1,0.4c-0.2,0.2-0.4,0.9-0.4,2.1 M40.5,45.8v-1c0-0.7,0.1-1.2,0.3-1.5c0.2-0.2,0.7-0.3,1.5-0.3H84
	c0.7,0,1.2,0.1,1.5,0.3c0.2,0.2,0.3,0.7,0.3,1.5v1c0,1.2-0.6,1.8-1.8,1.8H42.3C41.1,47.6,40.5,47,40.5,45.8z M53.5,37h19.3V18.9
	H53.5V37z M56.5,23.7v-1.2h13.3v1.2H56.5z M56.5,28.6v-1.2h13.3v1.2H56.5z M56.6,33.4v-1.2h13.2v1.2H56.6z"/>
</svg>
