<?xml version="1.0" encoding="utf-8"?>
<!-- Generator: Adobe Illustrator 18.0.0, SVG Export Plug-In . SVG Version: 6.00 Build 0)  -->
<!DOCTYPE svg PUBLIC "-//W3C//DTD SVG 1.1//EN" "http://www.w3.org/Graphics/SVG/1.1/DTD/svg11.dtd">
<svg version="1.1" id="Camada_1" xmlns="http://www.w3.org/2000/svg" xmlns:xlink="http://www.w3.org/1999/xlink" x="0px" y="0px"
	 viewBox="0 0 120.3 112.2" enable-background="new 0 0 120.3 112.2" xml:space="preserve">
<path fill-rule="evenodd" clip-rule="evenodd" fill="#17A2BF" d="M31,0h63c5.5,0,10,4.5,10,10v45c0,5.5-4.5,10-10,10H31
	c-5.5,0-10-4.5-10-10V10C21,4.5,25.5,0,31,0z"/>
<g>
	<path fill="#616567" d="M28.4,92.7V84H34v1.6h-3.6v2.2h3v1.6h-3v3.4H28.4z"/>
	<path fill="#616567" d="M33.4,92.7l3.4-8.7h2.1l3.4,8.7h-1.6c-0.2,0-0.3,0-0.4-0.1S40,92.4,40,92.3l-0.5-1.5h-3.3l-0.5,1.5
		c0,0.1-0.1,0.2-0.2,0.3c-0.1,0.1-0.3,0.1-0.4,0.1H33.4z M36.6,89.4H39L38.2,87c-0.1-0.2-0.1-0.3-0.2-0.5s-0.1-0.4-0.2-0.7
		c-0.1,0.2-0.1,0.5-0.2,0.7s-0.1,0.4-0.2,0.5L36.6,89.4z"/>
	<path fill="#616567" d="M42.9,92.7V84h2v7.1h3.2v1.6H42.9z"/>
	<path fill="#616567" d="M49.1,92.7V84h5.6v1.6h-3.6v2h2.8v1.5h-2.8v2.1h3.6v1.6H49.1z"/>
	<path fill="#616567" d="M57.7,88.4c0-0.7,0.1-1.3,0.3-1.8s0.5-1,0.9-1.4s0.9-0.7,1.4-0.9s1.2-0.3,1.9-0.3c0.3,0,0.6,0,0.9,0.1
		c0.3,0.1,0.6,0.1,0.8,0.2s0.5,0.2,0.7,0.4c0.2,0.1,0.4,0.3,0.6,0.5L64.6,86c0,0.1-0.1,0.1-0.2,0.2s-0.1,0.1-0.2,0.1
		c-0.1,0-0.1,0-0.2,0s-0.1-0.1-0.2-0.1s-0.2-0.1-0.2-0.1s-0.2-0.1-0.3-0.1s-0.3-0.1-0.4-0.1s-0.3,0-0.6,0c-0.4,0-0.7,0.1-1,0.2
		c-0.3,0.1-0.6,0.3-0.8,0.6c-0.2,0.2-0.4,0.5-0.5,0.9s-0.2,0.7-0.2,1.2c0,0.4,0.1,0.8,0.2,1.2c0.1,0.3,0.3,0.6,0.5,0.9
		c0.2,0.2,0.5,0.4,0.7,0.5c0.3,0.1,0.6,0.2,0.9,0.2c0.2,0,0.4,0,0.5,0c0.2,0,0.3,0,0.4-0.1c0.1,0,0.3-0.1,0.4-0.2s0.2-0.2,0.4-0.3
		c0,0,0.1-0.1,0.2-0.1c0.1,0,0.1,0,0.2,0c0,0,0.1,0,0.1,0c0,0,0.1,0,0.1,0.1l0.8,0.8c-0.4,0.5-0.8,0.8-1.3,1
		c-0.5,0.2-1.2,0.4-1.9,0.4c-0.7,0-1.3-0.1-1.8-0.3c-0.5-0.2-1-0.5-1.3-0.9c-0.4-0.4-0.6-0.9-0.8-1.4C57.8,89.6,57.7,89,57.7,88.4z"
		/>
	<path fill="#616567" d="M65.7,88.4c0-0.6,0.1-1.2,0.3-1.8c0.2-0.5,0.5-1,0.9-1.4s0.9-0.7,1.4-0.9s1.2-0.3,1.9-0.3s1.3,0.1,1.9,0.3
		c0.6,0.2,1,0.5,1.4,0.9s0.7,0.9,0.9,1.4c0.2,0.5,0.3,1.1,0.3,1.8c0,0.6-0.1,1.2-0.3,1.8s-0.5,1-0.9,1.4c-0.4,0.4-0.9,0.7-1.4,0.9
		s-1.2,0.3-1.9,0.3s-1.3-0.1-1.9-0.3s-1-0.5-1.4-0.9c-0.4-0.4-0.7-0.9-0.9-1.4S65.7,89,65.7,88.4z M67.7,88.4c0,0.4,0.1,0.8,0.2,1.2
		s0.3,0.6,0.5,0.9s0.5,0.4,0.8,0.5c0.3,0.1,0.7,0.2,1,0.2c0.4,0,0.7-0.1,1-0.2c0.3-0.1,0.6-0.3,0.8-0.5s0.4-0.5,0.5-0.9
		c0.1-0.3,0.2-0.7,0.2-1.2s-0.1-0.8-0.2-1.2c-0.1-0.3-0.3-0.6-0.5-0.9s-0.5-0.4-0.8-0.6s-0.6-0.2-1-0.2s-0.7,0.1-1,0.2
		s-0.6,0.3-0.8,0.6s-0.4,0.5-0.5,0.9C67.8,87.6,67.7,87.9,67.7,88.4z"/>
	<path fill="#616567" d="M75.7,92.7V84h1.5c0.1,0,0.2,0,0.2,0s0.1,0,0.2,0s0.1,0.1,0.1,0.1s0.1,0.1,0.1,0.2l2.3,4.4
		c0.1,0.2,0.2,0.3,0.2,0.5s0.1,0.3,0.2,0.5c0.1-0.2,0.1-0.3,0.2-0.5s0.2-0.3,0.2-0.5l2.2-4.4c0-0.1,0.1-0.1,0.1-0.2s0.1-0.1,0.1-0.1
		s0.1,0,0.2,0s0.1,0,0.2,0h1.5v8.7h-1.8v-5c0-0.2,0-0.5,0-0.8l-2.3,4.5c-0.1,0.1-0.2,0.2-0.3,0.3s-0.3,0.1-0.4,0.1h-0.3
		c-0.2,0-0.3,0-0.4-0.1s-0.2-0.2-0.3-0.3l-2.3-4.5c0,0.1,0,0.3,0,0.4s0,0.3,0,0.4v5H75.7z"/>
	<path fill="#616567" d="M88.6,92.7L92,84H94l3.4,8.7h-1.6c-0.2,0-0.3,0-0.4-0.1s-0.2-0.2-0.2-0.3l-0.5-1.5h-3.3l-0.5,1.5
		c0,0.1-0.1,0.2-0.2,0.3c-0.1,0.1-0.3,0.1-0.4,0.1H88.6z M91.8,89.4h2.4L93.4,87c-0.1-0.2-0.1-0.3-0.2-0.5S93.1,86,93,85.8
		c-0.1,0.2-0.1,0.5-0.2,0.7s-0.1,0.4-0.2,0.5L91.8,89.4z"/>
	<path fill="#616567" d="M31,107.7V99h3.4c0.7,0,1.3,0.1,1.9,0.3s1,0.5,1.4,0.9c0.4,0.4,0.7,0.8,0.9,1.4s0.3,1.1,0.3,1.7
		c0,0.6-0.1,1.2-0.3,1.7s-0.5,1-0.9,1.4c-0.4,0.4-0.9,0.7-1.4,0.9s-1.2,0.3-1.9,0.3H31z M33,106.2h1.4c0.4,0,0.7-0.1,1-0.2
		c0.3-0.1,0.6-0.3,0.8-0.6c0.2-0.2,0.4-0.5,0.5-0.9c0.1-0.3,0.2-0.7,0.2-1.2s-0.1-0.8-0.2-1.2c-0.1-0.3-0.3-0.6-0.5-0.9
		c-0.2-0.2-0.5-0.4-0.8-0.6c-0.3-0.1-0.7-0.2-1-0.2H33V106.2z"/>
	<path fill="#616567" d="M40,107.7V99h2v8.7H40z"/>
	<path fill="#616567" d="M43.7,107.7V99h2.9c0.6,0,1.2,0.1,1.6,0.2c0.4,0.1,0.8,0.3,1.1,0.5s0.5,0.5,0.6,0.8s0.2,0.7,0.2,1
		c0,0.3,0,0.6-0.1,0.8c-0.1,0.3-0.2,0.5-0.3,0.7c-0.2,0.2-0.3,0.4-0.6,0.6c-0.2,0.2-0.5,0.3-0.8,0.4c0.1,0.1,0.3,0.2,0.4,0.3
		s0.2,0.2,0.3,0.4l1.9,3H49c-0.3,0-0.6-0.1-0.7-0.4l-1.5-2.5c-0.1-0.1-0.1-0.2-0.2-0.2s-0.2-0.1-0.4-0.1h-0.5v3.2H43.7z M45.7,103.1
		h0.8c0.3,0,0.5,0,0.7-0.1c0.2-0.1,0.4-0.2,0.5-0.3c0.1-0.1,0.2-0.3,0.3-0.4s0.1-0.3,0.1-0.5c0-0.4-0.1-0.7-0.4-0.9
		s-0.6-0.3-1.2-0.3h-0.8V103.1z"/>
	<path fill="#616567" d="M51.7,107.7V99h5.6v1.6h-3.6v2h2.8v1.5h-2.8v2.1h3.6v1.6H51.7z"/>
	<path fill="#616567" d="M57.9,100.6V99h6.9v1.6h-2.5v7.1h-2v-7.1H57.9z"/>
	<path fill="#616567" d="M64.8,103.4c0-0.6,0.1-1.2,0.3-1.8c0.2-0.5,0.5-1,0.9-1.4s0.9-0.7,1.4-0.9s1.2-0.3,1.9-0.3s1.3,0.1,1.9,0.3
		s1,0.5,1.4,0.9s0.7,0.9,0.9,1.4c0.2,0.5,0.3,1.1,0.3,1.8c0,0.6-0.1,1.2-0.3,1.8s-0.5,1-0.9,1.4s-0.9,0.7-1.4,0.9s-1.2,0.3-1.9,0.3
		s-1.3-0.1-1.9-0.3s-1-0.5-1.4-0.9s-0.7-0.9-0.9-1.4S64.8,104,64.8,103.4z M66.9,103.4c0,0.4,0.1,0.8,0.2,1.2
		c0.1,0.3,0.3,0.6,0.5,0.9s0.5,0.4,0.8,0.5s0.7,0.2,1,0.2c0.4,0,0.7-0.1,1-0.2s0.6-0.3,0.8-0.5s0.4-0.5,0.5-0.9
		c0.1-0.3,0.2-0.7,0.2-1.2s-0.1-0.8-0.2-1.2c-0.1-0.3-0.3-0.6-0.5-0.9c-0.2-0.2-0.5-0.4-0.8-0.6s-0.6-0.2-1-0.2s-0.7,0.1-1,0.2
		s-0.6,0.3-0.8,0.6c-0.2,0.2-0.4,0.5-0.5,0.9C67,102.6,66.9,102.9,66.9,103.4z"/>
	<path fill="#616567" d="M74.9,107.7V99h2.9c0.6,0,1.2,0.1,1.6,0.2c0.4,0.1,0.8,0.3,1.1,0.5s0.5,0.5,0.6,0.8c0.1,0.3,0.2,0.7,0.2,1
		c0,0.3,0,0.6-0.1,0.8s-0.2,0.5-0.3,0.7c-0.2,0.2-0.3,0.4-0.6,0.6c-0.2,0.2-0.5,0.3-0.8,0.4c0.1,0.1,0.3,0.2,0.4,0.3
		s0.2,0.2,0.3,0.4l1.9,3h-1.8c-0.3,0-0.6-0.1-0.7-0.4l-1.5-2.5c-0.1-0.1-0.1-0.2-0.2-0.2s-0.2-0.1-0.4-0.1h-0.5v3.2H74.9z
		 M76.9,103.1h0.8c0.3,0,0.5,0,0.7-0.1c0.2-0.1,0.4-0.2,0.5-0.3c0.1-0.1,0.2-0.3,0.3-0.4s0.1-0.3,0.1-0.5c0-0.4-0.1-0.7-0.4-0.9
		s-0.6-0.3-1.2-0.3h-0.8V103.1z"/>
	<path fill="#616567" d="M83,107.7V99h2v8.7H83z"/>
	<path fill="#616567" d="M86,107.7l3.4-8.7h2.1l3.4,8.7h-1.6c-0.2,0-0.3,0-0.4-0.1c-0.1-0.1-0.2-0.2-0.2-0.3l-0.5-1.5h-3.3l-0.5,1.5
		c0,0.1-0.1,0.2-0.2,0.3c-0.1,0.1-0.3,0.1-0.4,0.1H86z M89.2,104.4h2.4l-0.8-2.4c-0.1-0.2-0.1-0.3-0.2-0.5s-0.1-0.4-0.2-0.7
		c-0.1,0.2-0.1,0.5-0.2,0.7s-0.1,0.4-0.2,0.5L89.2,104.4z"/>
</g>
<path fill="#FFFFFF" d="M78.7,37.6c-0.7-1.1-2.8-1.9-5.2-2.7c-1.7,1.5-3.7,2.8-5.3,4.4c-0.5,0.5-1.3-0.3-0.8-0.7
	c1.5-1.5,3.3-2.7,5-4.1c-0.3-0.1-0.5-0.2-0.8-0.3c-3.1-1.2-3.8-1.7-3.8-1.7l0-2.8c0,0,1.2-0.8,1.5-3.5c0.7,0.2,1.5-1,1.5-1.7
	c0-0.6-0.1-2.4-1-2.2c0.2-1.3,0.3-2.5,0.2-3.1c-0.2-2.3-2.6-4.7-6.1-4.7c-3.6,0-5.9,2.4-6.1,4.7c-0.1,0.6,0.1,1.8,0.2,3.1
	c-0.9-0.2-1,1.6-1,2.2c0,0.6,0.8,1.9,1.5,1.7c0.4,2.7,1.5,3.5,1.5,3.5l0,2.8c0,0-0.6,0.4-3.1,1.4c0.7,0.7,1.4,1.5,2,2.2
	c0.8,1,1.6,2.4,3,2.7c0.7,0.2,0.4,1.2-0.3,1c-1.4-0.3-2.1-1.4-3-2.4c-0.9-1.1-1.8-2.1-2.8-3.1c-3,1.2-5.8,2-6.7,3.3
	c-0.8,1.2-0.6,10.5-0.6,10.5H63c0-1.7-0.1-3.4-0.1-5.1c0-2.4,3.8-2.4,3.8,0c0,1.7,0,3.4,0.1,5.1h12.4C79.3,48.1,79.5,38.8,78.7,37.6
	z M66.4,41.1c-1.1,0.1-2.1,0.1-3.2,0c-0.6,0-0.6-1,0-1c1.1,0,2.1,0.1,3.2,0C67,40.1,67,41.1,66.4,41.1z"/>
</svg>
