<?xml version="1.0" encoding="utf-8"?>
<!-- Generator: Adobe Illustrator 18.0.0, SVG Export Plug-In . SVG Version: 6.00 Build 0)  -->
<!DOCTYPE svg PUBLIC "-//W3C//DTD SVG 1.1//EN" "http://www.w3.org/Graphics/SVG/1.1/DTD/svg11.dtd">
<svg version="1.1" id="Camada_1" xmlns="http://www.w3.org/2000/svg" xmlns:xlink="http://www.w3.org/1999/xlink" x="0px" y="0px"
	 viewBox="0 0 120.3 112.2" enable-background="new 0 0 120.3 112.2" xml:space="preserve">
<path fill-rule="evenodd" clip-rule="evenodd" fill="#17A2BF" d="M31,0h63c5.5,0,10,4.5,10,10v45c0,5.5-4.5,10-10,10H31
	c-5.5,0-10-4.5-10-10V10C21,4.5,25.5,0,31,0z"/>
<g>
	<path fill="#616567" d="M24.3,91.7l0.6-0.9c0-0.1,0.1-0.1,0.2-0.2s0.2-0.1,0.3-0.1c0.1,0,0.2,0,0.4,0.1s0.3,0.2,0.4,0.3
		s0.3,0.2,0.5,0.3c0.2,0.1,0.4,0.1,0.7,0.1c0.4,0,0.7-0.1,0.9-0.2c0.2-0.2,0.3-0.4,0.3-0.8c0-0.2-0.1-0.4-0.2-0.5
		c-0.1-0.1-0.3-0.2-0.4-0.3c-0.2-0.1-0.4-0.2-0.6-0.2c-0.2-0.1-0.5-0.1-0.7-0.2c-0.2-0.1-0.5-0.2-0.7-0.3c-0.2-0.1-0.4-0.3-0.6-0.4
		c-0.2-0.2-0.3-0.4-0.4-0.7s-0.2-0.6-0.2-1c0-0.3,0.1-0.7,0.2-1c0.1-0.3,0.3-0.6,0.6-0.8c0.3-0.2,0.6-0.4,1-0.6
		c0.4-0.1,0.8-0.2,1.3-0.2c0.3,0,0.5,0,0.8,0.1c0.3,0,0.5,0.1,0.7,0.2s0.4,0.2,0.6,0.3s0.4,0.2,0.5,0.4l-0.5,0.9
		c-0.1,0.1-0.1,0.2-0.2,0.2c-0.1,0-0.2,0.1-0.3,0.1c-0.1,0-0.2,0-0.3-0.1c-0.1-0.1-0.2-0.1-0.4-0.2s-0.3-0.1-0.5-0.2
		s-0.4-0.1-0.6-0.1c-0.4,0-0.7,0.1-0.8,0.2c-0.2,0.2-0.3,0.4-0.3,0.7c0,0.2,0.1,0.3,0.2,0.4s0.3,0.2,0.4,0.3s0.4,0.2,0.6,0.2
		c0.2,0.1,0.5,0.1,0.7,0.2s0.5,0.2,0.7,0.3s0.4,0.3,0.6,0.4c0.2,0.2,0.3,0.4,0.4,0.7c0.1,0.3,0.2,0.6,0.2,0.9c0,0.4-0.1,0.8-0.2,1.1
		s-0.3,0.7-0.6,0.9c-0.3,0.3-0.6,0.5-1,0.6s-0.8,0.2-1.3,0.2c-0.3,0-0.6,0-0.8-0.1c-0.3-0.1-0.6-0.1-0.8-0.2s-0.5-0.2-0.7-0.4
		S24.5,91.9,24.3,91.7z"/>
	<path fill="#616567" d="M31,88.4c0-0.6,0.1-1.2,0.3-1.8c0.2-0.5,0.5-1,0.9-1.4s0.9-0.7,1.4-0.9s1.2-0.3,1.9-0.3s1.3,0.1,1.9,0.3
		c0.6,0.2,1,0.5,1.4,0.9s0.7,0.9,0.9,1.4c0.2,0.5,0.3,1.1,0.3,1.8c0,0.6-0.1,1.2-0.3,1.8s-0.5,1-0.9,1.4c-0.4,0.4-0.9,0.7-1.4,0.9
		s-1.2,0.3-1.9,0.3s-1.3-0.1-1.9-0.3s-1-0.5-1.4-0.9c-0.4-0.4-0.7-0.9-0.9-1.4S31,89,31,88.4z M33.1,88.4c0,0.4,0.1,0.8,0.2,1.2
		s0.3,0.6,0.5,0.9s0.5,0.4,0.8,0.5c0.3,0.1,0.7,0.2,1,0.2c0.4,0,0.7-0.1,1-0.2c0.3-0.1,0.6-0.3,0.8-0.5s0.4-0.5,0.5-0.9
		c0.1-0.3,0.2-0.7,0.2-1.2s-0.1-0.8-0.2-1.2c-0.1-0.3-0.3-0.6-0.5-0.9s-0.5-0.4-0.8-0.6s-0.6-0.2-1-0.2s-0.7,0.1-1,0.2
		s-0.6,0.3-0.8,0.6s-0.4,0.5-0.5,0.9C33.2,87.6,33.1,87.9,33.1,88.4z"/>
	<path fill="#616567" d="M41.1,92.7V84h2v7.1h3.2v1.6H41.1z"/>
	<path fill="#616567" d="M47.5,92.7V84h2v8.7H47.5z"/>
	<path fill="#616567" d="M50.6,88.4c0-0.7,0.1-1.3,0.3-1.8s0.5-1,0.9-1.4s0.9-0.7,1.4-0.9s1.2-0.3,1.9-0.3c0.3,0,0.6,0,0.9,0.1
		c0.3,0.1,0.6,0.1,0.8,0.2s0.5,0.2,0.7,0.4c0.2,0.1,0.4,0.3,0.6,0.5L57.5,86c0,0.1-0.1,0.1-0.2,0.2s-0.1,0.1-0.2,0.1
		c-0.1,0-0.1,0-0.2,0s-0.1-0.1-0.2-0.1s-0.2-0.1-0.2-0.1s-0.2-0.1-0.3-0.1s-0.3-0.1-0.4-0.1s-0.3,0-0.6,0c-0.4,0-0.7,0.1-1,0.2
		c-0.3,0.1-0.6,0.3-0.8,0.6c-0.2,0.2-0.4,0.5-0.5,0.9s-0.2,0.7-0.2,1.2c0,0.4,0.1,0.8,0.2,1.2c0.1,0.3,0.3,0.6,0.5,0.9
		c0.2,0.2,0.5,0.4,0.7,0.5c0.3,0.1,0.6,0.2,0.9,0.2c0.2,0,0.4,0,0.5,0c0.2,0,0.3,0,0.4-0.1c0.1,0,0.3-0.1,0.4-0.2s0.2-0.2,0.4-0.3
		c0,0,0.1-0.1,0.2-0.1c0.1,0,0.1,0,0.2,0c0,0,0.1,0,0.1,0c0,0,0.1,0,0.1,0.1l0.8,0.8c-0.4,0.5-0.8,0.8-1.3,1
		c-0.5,0.2-1.2,0.4-1.9,0.4c-0.7,0-1.3-0.1-1.8-0.3c-0.5-0.2-1-0.5-1.3-0.9c-0.4-0.4-0.6-0.9-0.8-1.4C50.7,89.6,50.6,89,50.6,88.4z"
		/>
	<path fill="#616567" d="M59.2,92.7V84h2v8.7H59.2z"/>
	<path fill="#616567" d="M62.3,85.6V84h6.9v1.6h-2.5v7.1h-2v-7.1H62.3z"/>
	<path fill="#616567" d="M68.4,92.7l3.4-8.7h2.1l3.4,8.7h-1.6c-0.2,0-0.3,0-0.4-0.1S75,92.4,75,92.3l-0.5-1.5h-3.3l-0.5,1.5
		c0,0.1-0.1,0.2-0.2,0.3c-0.1,0.1-0.3,0.1-0.4,0.1H68.4z M71.6,89.4H74L73.2,87c-0.1-0.2-0.1-0.3-0.2-0.5s-0.1-0.4-0.2-0.7
		c-0.1,0.2-0.1,0.5-0.2,0.7s-0.1,0.4-0.2,0.5L71.6,89.4z"/>
	<path fill="#616567" d="M77.1,88.4c0-0.7,0.1-1.3,0.3-1.8s0.5-1,0.9-1.4s0.9-0.7,1.4-0.9s1.2-0.3,1.9-0.3c0.3,0,0.6,0,0.9,0.1
		c0.3,0.1,0.6,0.1,0.8,0.2s0.5,0.2,0.7,0.4c0.2,0.1,0.4,0.3,0.6,0.5L83.9,86c0,0.1-0.1,0.1-0.2,0.2s-0.1,0.1-0.2,0.1
		c-0.1,0-0.1,0-0.2,0s-0.1-0.1-0.2-0.1S83,86,82.9,85.9s-0.2-0.1-0.3-0.1s-0.3-0.1-0.4-0.1s-0.3,0-0.6,0c-0.4,0-0.7,0.1-1,0.2
		c-0.3,0.1-0.6,0.3-0.8,0.6c-0.2,0.2-0.4,0.5-0.5,0.9s-0.2,0.7-0.2,1.2c0,0.4,0.1,0.8,0.2,1.2c0.1,0.3,0.3,0.6,0.5,0.9
		c0.2,0.2,0.5,0.4,0.7,0.5c0.3,0.1,0.6,0.2,0.9,0.2c0.2,0,0.4,0,0.5,0c0.2,0,0.3,0,0.4-0.1c0.1,0,0.3-0.1,0.4-0.2s0.2-0.2,0.4-0.3
		c0,0,0.1-0.1,0.2-0.1c0.1,0,0.1,0,0.2,0c0,0,0.1,0,0.1,0c0,0,0.1,0,0.1,0.1l0.8,0.8c-0.4,0.5-0.8,0.8-1.3,1
		c-0.5,0.2-1.2,0.4-1.9,0.4c-0.7,0-1.3-0.1-1.8-0.3c-0.5-0.2-1-0.5-1.3-0.9c-0.4-0.4-0.6-0.9-0.8-1.4C77.2,89.6,77.1,89,77.1,88.4z"
		/>
	<path fill="#616567" d="M84.7,92.7l3.4-8.7h2.1l3.4,8.7H92c-0.2,0-0.3,0-0.4-0.1s-0.2-0.2-0.2-0.3l-0.5-1.5h-3.3L87,92.3
		c0,0.1-0.1,0.2-0.2,0.3c-0.1,0.1-0.3,0.1-0.4,0.1H84.7z M88,89.4h2.4L89.5,87c-0.1-0.2-0.1-0.3-0.2-0.5s-0.1-0.4-0.2-0.7
		C89.1,86,89,86.3,89,86.5s-0.1,0.4-0.2,0.5L88,89.4z"/>
	<path fill="#616567" d="M93.5,88.4c0-0.6,0.1-1.2,0.3-1.8c0.2-0.5,0.5-1,0.9-1.4s0.9-0.7,1.4-0.9s1.2-0.3,1.9-0.3s1.3,0.1,1.9,0.3
		c0.6,0.2,1,0.5,1.4,0.9s0.7,0.9,0.9,1.4c0.2,0.5,0.3,1.1,0.3,1.8c0,0.6-0.1,1.2-0.3,1.8s-0.5,1-0.9,1.4c-0.4,0.4-0.9,0.7-1.4,0.9
		s-1.2,0.3-1.9,0.3s-1.3-0.1-1.9-0.3s-1-0.5-1.4-0.9c-0.4-0.4-0.7-0.9-0.9-1.4S93.5,89,93.5,88.4z M95.5,88.4c0,0.4,0.1,0.8,0.2,1.2
		s0.3,0.6,0.5,0.9s0.5,0.4,0.8,0.5c0.3,0.1,0.7,0.2,1,0.2c0.4,0,0.7-0.1,1-0.2c0.3-0.1,0.6-0.3,0.8-0.5s0.4-0.5,0.5-0.9
		c0.1-0.3,0.2-0.7,0.2-1.2s-0.1-0.8-0.2-1.2c-0.1-0.3-0.3-0.6-0.5-0.9s-0.5-0.4-0.8-0.6s-0.6-0.2-1-0.2s-0.7,0.1-1,0.2
		s-0.6,0.3-0.8,0.6s-0.4,0.5-0.5,0.9C95.6,87.6,95.5,87.9,95.5,88.4z"/>
	<path fill="#616567" d="M31.7,107.7V99H35c0.7,0,1.3,0.1,1.9,0.3s1,0.5,1.4,0.9c0.4,0.4,0.7,0.8,0.9,1.4s0.3,1.1,0.3,1.7
		c0,0.6-0.1,1.2-0.3,1.7s-0.5,1-0.9,1.4c-0.4,0.4-0.9,0.7-1.4,0.9s-1.2,0.3-1.9,0.3H31.7z M33.7,106.2H35c0.4,0,0.7-0.1,1-0.2
		c0.3-0.1,0.6-0.3,0.8-0.6c0.2-0.2,0.4-0.5,0.5-0.9c0.1-0.3,0.2-0.7,0.2-1.2s-0.1-0.8-0.2-1.2c-0.1-0.3-0.3-0.6-0.5-0.9
		c-0.2-0.2-0.5-0.4-0.8-0.6c-0.3-0.1-0.7-0.2-1-0.2h-1.4V106.2z"/>
	<path fill="#616567" d="M40.6,107.7V99h5.6v1.6h-3.6v2h2.8v1.5h-2.8v2.1h3.6v1.6H40.6z"/>
	<path fill="#616567" d="M49.6,107.7V99h3.2c0.6,0,1.1,0.1,1.5,0.2s0.8,0.3,1,0.5c0.3,0.2,0.5,0.5,0.6,0.7c0.1,0.3,0.2,0.6,0.2,1
		c0,0.2,0,0.4-0.1,0.6c-0.1,0.2-0.1,0.4-0.3,0.5c-0.1,0.2-0.3,0.3-0.5,0.4c-0.2,0.1-0.4,0.2-0.7,0.3c0.6,0.1,1,0.4,1.3,0.7
		c0.3,0.3,0.4,0.7,0.4,1.2c0,0.4-0.1,0.7-0.2,1c-0.1,0.3-0.4,0.6-0.6,0.8s-0.6,0.4-1,0.6s-0.9,0.2-1.4,0.2H49.6z M51.7,102.7h1.1
		c0.2,0,0.4,0,0.6,0c0.2,0,0.3-0.1,0.5-0.2c0.1-0.1,0.2-0.2,0.3-0.3c0.1-0.1,0.1-0.3,0.1-0.5c0-0.2,0-0.4-0.1-0.5s-0.1-0.2-0.2-0.3
		c-0.1-0.1-0.2-0.1-0.4-0.2s-0.4-0.1-0.6-0.1h-1.2V102.7z M51.7,106.2h1.4c0.3,0,0.5,0,0.7-0.1s0.3-0.2,0.4-0.3s0.2-0.2,0.2-0.4
		s0.1-0.3,0.1-0.4c0-0.2,0-0.3-0.1-0.4s-0.1-0.2-0.2-0.3s-0.2-0.2-0.4-0.2s-0.4-0.1-0.6-0.1h-1.4V106.2z"/>
	<path fill="#616567" d="M57.5,107.7V99h2v7.1h3.2v1.6H57.5z"/>
	<path fill="#616567" d="M62.8,103.4c0-0.6,0.1-1.2,0.3-1.8c0.2-0.5,0.5-1,0.9-1.4s0.9-0.7,1.4-0.9s1.2-0.3,1.9-0.3s1.3,0.1,1.9,0.3
		s1,0.5,1.4,0.9s0.7,0.9,0.9,1.4c0.2,0.5,0.3,1.1,0.3,1.8c0,0.6-0.1,1.2-0.3,1.8s-0.5,1-0.9,1.4s-0.9,0.7-1.4,0.9s-1.2,0.3-1.9,0.3
		s-1.3-0.1-1.9-0.3s-1-0.5-1.4-0.9s-0.7-0.9-0.9-1.4S62.8,104,62.8,103.4z M64.9,103.4c0,0.4,0.1,0.8,0.2,1.2
		c0.1,0.3,0.3,0.6,0.5,0.9s0.5,0.4,0.8,0.5s0.7,0.2,1,0.2c0.4,0,0.7-0.1,1-0.2s0.6-0.3,0.8-0.5s0.4-0.5,0.5-0.9
		c0.1-0.3,0.2-0.7,0.2-1.2s-0.1-0.8-0.2-1.2c-0.1-0.3-0.3-0.6-0.5-0.9c-0.2-0.2-0.5-0.4-0.8-0.6s-0.6-0.2-1-0.2s-0.7,0.1-1,0.2
		s-0.6,0.3-0.8,0.6c-0.2,0.2-0.4,0.5-0.5,0.9C64.9,102.6,64.9,102.9,64.9,103.4z"/>
	<path fill="#616567" d="M72.4,103.4c0-0.7,0.1-1.3,0.3-1.8c0.2-0.5,0.5-1,0.9-1.4s0.9-0.7,1.4-0.9s1.2-0.3,1.9-0.3
		c0.3,0,0.6,0,0.9,0.1c0.3,0.1,0.6,0.1,0.8,0.2c0.3,0.1,0.5,0.2,0.7,0.4c0.2,0.1,0.4,0.3,0.6,0.5l-0.7,0.9c0,0.1-0.1,0.1-0.2,0.2
		s-0.1,0.1-0.2,0.1c-0.1,0-0.1,0-0.2,0s-0.1-0.1-0.2-0.1c-0.1,0-0.2-0.1-0.2-0.1s-0.2-0.1-0.3-0.1c-0.1,0-0.3-0.1-0.4-0.1
		s-0.3,0-0.6,0c-0.4,0-0.7,0.1-1,0.2c-0.3,0.1-0.6,0.3-0.8,0.6c-0.2,0.2-0.4,0.5-0.5,0.9s-0.2,0.7-0.2,1.2c0,0.4,0.1,0.8,0.2,1.2
		s0.3,0.6,0.5,0.9c0.2,0.2,0.5,0.4,0.7,0.5c0.3,0.1,0.6,0.2,0.9,0.2c0.2,0,0.4,0,0.5,0c0.2,0,0.3-0.1,0.4-0.1s0.3-0.1,0.4-0.2
		s0.2-0.2,0.4-0.3c0,0,0.1-0.1,0.2-0.1c0.1,0,0.1,0,0.2,0c0,0,0.1,0,0.1,0s0.1,0,0.1,0.1l0.8,0.8c-0.4,0.5-0.8,0.8-1.3,1
		c-0.5,0.2-1.2,0.4-1.9,0.4c-0.7,0-1.3-0.1-1.8-0.3s-1-0.5-1.3-0.9s-0.6-0.9-0.8-1.4C72.5,104.6,72.4,104,72.4,103.4z"/>
	<path fill="#616567" d="M80.3,103.4c0-0.6,0.1-1.2,0.3-1.8c0.2-0.5,0.5-1,0.9-1.4s0.9-0.7,1.4-0.9s1.2-0.3,1.9-0.3s1.3,0.1,1.9,0.3
		s1,0.5,1.4,0.9s0.7,0.9,0.9,1.4c0.2,0.5,0.3,1.1,0.3,1.8c0,0.6-0.1,1.2-0.3,1.8s-0.5,1-0.9,1.4s-0.9,0.7-1.4,0.9s-1.2,0.3-1.9,0.3
		s-1.3-0.1-1.9-0.3s-1-0.5-1.4-0.9s-0.7-0.9-0.9-1.4S80.3,104,80.3,103.4z M82.4,103.4c0,0.4,0.1,0.8,0.2,1.2
		c0.1,0.3,0.3,0.6,0.5,0.9s0.5,0.4,0.8,0.5s0.7,0.2,1,0.2c0.4,0,0.7-0.1,1-0.2s0.6-0.3,0.8-0.5s0.4-0.5,0.5-0.9
		c0.1-0.3,0.2-0.7,0.2-1.2s-0.1-0.8-0.2-1.2c-0.1-0.3-0.3-0.6-0.5-0.9c-0.2-0.2-0.5-0.4-0.8-0.6s-0.6-0.2-1-0.2s-0.7,0.1-1,0.2
		s-0.6,0.3-0.8,0.6c-0.2,0.2-0.4,0.5-0.5,0.9C82.4,102.6,82.4,102.9,82.4,103.4z"/>
	<path fill="#616567" d="M89.7,106.7l0.6-0.9c0-0.1,0.1-0.1,0.2-0.2s0.2-0.1,0.3-0.1c0.1,0,0.2,0,0.4,0.1s0.3,0.2,0.4,0.3
		s0.3,0.2,0.5,0.3s0.4,0.1,0.7,0.1c0.4,0,0.7-0.1,0.9-0.2c0.2-0.2,0.3-0.4,0.3-0.8c0-0.2-0.1-0.4-0.2-0.5c-0.1-0.1-0.3-0.2-0.4-0.3
		c-0.2-0.1-0.4-0.2-0.6-0.2c-0.2-0.1-0.5-0.1-0.7-0.2s-0.5-0.2-0.7-0.3c-0.2-0.1-0.4-0.3-0.6-0.4c-0.2-0.2-0.3-0.4-0.4-0.7
		c-0.1-0.3-0.2-0.6-0.2-1c0-0.3,0.1-0.7,0.2-1s0.3-0.6,0.6-0.8s0.6-0.4,1-0.6c0.4-0.1,0.8-0.2,1.3-0.2c0.3,0,0.5,0,0.8,0.1
		c0.3,0,0.5,0.1,0.7,0.2c0.2,0.1,0.4,0.2,0.6,0.3c0.2,0.1,0.4,0.2,0.5,0.4l-0.5,0.9c-0.1,0.1-0.1,0.2-0.2,0.2
		c-0.1,0-0.2,0.1-0.3,0.1c-0.1,0-0.2,0-0.3-0.1c-0.1-0.1-0.2-0.1-0.4-0.2c-0.1-0.1-0.3-0.1-0.5-0.2c-0.2-0.1-0.4-0.1-0.6-0.1
		c-0.4,0-0.7,0.1-0.8,0.2c-0.2,0.2-0.3,0.4-0.3,0.7c0,0.2,0.1,0.3,0.2,0.4c0.1,0.1,0.3,0.2,0.4,0.3c0.2,0.1,0.4,0.2,0.6,0.2
		c0.2,0.1,0.5,0.1,0.7,0.2c0.2,0.1,0.5,0.2,0.7,0.3s0.4,0.3,0.6,0.4s0.3,0.4,0.4,0.7c0.1,0.3,0.2,0.6,0.2,0.9c0,0.4-0.1,0.8-0.2,1.1
		c-0.1,0.4-0.3,0.7-0.6,0.9c-0.3,0.3-0.6,0.5-1,0.6s-0.8,0.2-1.3,0.2c-0.3,0-0.6,0-0.8-0.1c-0.3-0.1-0.6-0.1-0.8-0.2
		s-0.5-0.2-0.7-0.4S89.9,106.9,89.7,106.7z"/>
</g>
<g>
	<path fill="#FFFFFF" d="M74.6,18.5H50.4c-1,0-1.9,0.8-1.9,1.8v23.6c0,1,0.8,1.8,1.9,1.8h1.9c0,1,0.8,1.8,1.9,1.8
		c1,0,1.9-0.8,1.9-1.8H69c0,1,0.8,1.8,1.9,1.8c1,0,1.9-0.8,1.9-1.8h1.9c1,0,1.9-0.8,1.9-1.8V20.3C76.5,19.3,75.7,18.5,74.6,18.5z
		 M72.8,42.1H52.2V33h20.5V42.1z M72.8,31.2H52.2v-9.1h20.5V31.2z"/>
	<path fill="#FFFFFF" d="M70.9,34.8H54.1v5.4h16.8V34.8z M65.3,38.4h-5.6v-1.8h5.6V38.4z"/>
	<path fill="#FFFFFF" d="M70.9,23.9H54.1v5.4h16.8V23.9z M65.3,27.6h-5.6v-1.8h5.6V27.6z"/>
</g>
<g>
	<path fill="#616567" d="M91.7,81.6c0.1,0.1,0.2,0.1,0.3,0.2c0.1,0.1,0.1,0.2,0.2,0.2c0,0.1,0.1,0.2,0.1,0.2c0,0.1-0.1,0.3-0.2,0.4
		s-0.3,0.2-0.5,0.3c-0.2,0.1-0.4,0.1-0.7,0.2c-0.3,0-0.5,0.1-0.8,0.1c-0.3,0-0.5,0-0.7,0c-0.2,0-0.4-0.1-0.5-0.1
		c-0.1-0.1-0.2-0.1-0.3-0.2c-0.1-0.1-0.2-0.1-0.2-0.2c-0.1-0.1-0.1-0.1-0.2-0.2c0-0.1-0.1-0.1-0.2-0.2c-0.1-0.1-0.1-0.1-0.2-0.1
		c-0.1,0-0.2,0-0.3,0c-0.2,0-0.4,0-0.5,0.1c-0.1,0.1-0.2,0.1-0.2,0.2c0,0.1,0,0.1,0.1,0.2c0,0,0.1,0.1,0.1,0.1s0.1,0.1,0.1,0.1
		c0,0,0.1,0.1,0.1,0.1c0,0,0,0.1-0.1,0.1c0,0-0.1,0-0.2,0.1l-0.7,0.1c-0.1,0-0.2-0.1-0.3-0.2c-0.1-0.1-0.2-0.1-0.2-0.2
		c-0.1-0.1-0.1-0.1-0.1-0.2c0-0.1,0-0.1,0-0.2c0-0.1,0.1-0.3,0.2-0.4c0.1-0.1,0.3-0.2,0.4-0.3c0.2-0.1,0.4-0.1,0.6-0.2
		c0.2,0,0.5-0.1,0.7-0.1c0.3,0,0.6,0,0.8,0c0.2,0,0.4,0.1,0.5,0.1c0.1,0.1,0.2,0.1,0.3,0.2c0.1,0.1,0.1,0.1,0.2,0.2
		c0.1,0.1,0.1,0.1,0.1,0.2c0,0.1,0.1,0.1,0.2,0.2c0.1,0.1,0.1,0.1,0.2,0.1c0.1,0,0.2,0,0.4,0c0.3,0,0.5,0,0.6-0.1
		c0.1-0.1,0.2-0.1,0.2-0.2c0-0.1,0-0.1-0.1-0.2c-0.1-0.1-0.1-0.1-0.2-0.2c-0.1,0-0.1-0.1-0.2-0.1c-0.1,0-0.1-0.1-0.1-0.1
		c0,0,0-0.1,0.1-0.1c0,0,0.1,0,0.1-0.1l0.7-0.2C91.5,81.4,91.6,81.5,91.7,81.6z"/>
</g>
<g>
	<path fill="#616567" d="M79.7,92.2c-0.1,0.1-0.2,0.1-0.4,0.2c0.1,0,0.2,0.1,0.2,0.1l0.1,1.3c0,0.2,0.1,0.3,0.2,0.5s0.2,0.3,0.4,0.4
		l1,0.8L81,92.9c0.3,0,0.5,0,0.8-0.1c0,0,0,0,0,0c0,0,0,0,0,0C81,92.8,80.3,92.6,79.7,92.2z"/>
</g>
</svg>
