<?xml version="1.0" encoding="utf-8"?>
<!-- Generator: Adobe Illustrator 18.0.0, SVG Export Plug-In . SVG Version: 6.00 Build 0)  -->
<!DOCTYPE svg PUBLIC "-//W3C//DTD SVG 1.1//EN" "http://www.w3.org/Graphics/SVG/1.1/DTD/svg11.dtd">
<svg version="1.1" id="Camada_1" xmlns="http://www.w3.org/2000/svg" xmlns:xlink="http://www.w3.org/1999/xlink" x="0px" y="0px"
	 viewBox="0 0 179.5 140.7" enable-background="new 0 0 179.5 140.7" xml:space="preserve">
<path fill-rule="evenodd" clip-rule="evenodd" fill="#16A5C4" d="M33.5,0h110c5.5,0,10,4.5,10,10v82c0,5.5-4.5,10-10,10h-110
	c-5.5,0-10-4.5-10-10V10C23.5,4.5,28,0,33.5,0z"/>
<path fill-rule="evenodd" clip-rule="evenodd" fill="#FFFFFF" d="M98.2,32.2L98.2,32.2v2l3.2,0l0-10.2l-3.2,0l0,5.1V32.2z
	 M74.8,32.2l0-4.8l0-3.4l-3.2,0v8.2l0,2l3.2,0L74.8,32.2z M74.7,38.6h23.5c-1.7-0.6-3-2.3-3-4.3c0-0.9,0.2-1.8,0.7-2.5v-3H77v3
	c0.5,0.7,0.7,1.6,0.7,2.5C77.7,36.3,76.5,38,74.7,38.6z M101.3,38.6h7.7l0-9.9l-5.4,0v3c0.5,0.7,0.7,1.6,0.7,2.5
	C104.3,36.3,103,38,101.3,38.6z M109,75l0-34.1H64v18.7h12.8c0.4,0,0.8,0.1,1.1,0.3c0,0,0.1,0,0.1,0.1l0,0l0.1,0.1
	c0.5,0.4,0.8,1.1,0.8,1.8V75L109,75z M76.8,73.4V61.8l-11.3,0L76.8,73.4z M68.7,34.3c0-0.9,0.3-1.8,0.7-2.5v-3H64v9.9h7.7
	C70,38,68.7,36.3,68.7,34.3z"/>
<g>
	<path fill="#616567" d="M15.6,136.7v-14.6h3.4v14.6H15.6z"/>
	<path fill="#616567" d="M21.7,136.7v-14.6h1.8c0.1,0,0.3,0,0.4,0c0.1,0,0.2,0,0.3,0.1c0.1,0,0.2,0.1,0.2,0.2s0.2,0.2,0.2,0.3
		l6.9,8.8c0-0.3,0-0.6-0.1-0.8s0-0.5,0-0.7v-7.7h3v14.6h-1.8c-0.3,0-0.5,0-0.7-0.1c-0.2-0.1-0.4-0.2-0.5-0.4l-6.9-8.7
		c0,0.3,0,0.5,0,0.7c0,0.2,0,0.5,0,0.7v7.8H21.7z"/>
	<path fill="#616567" d="M36.8,136.7v-14.6h9.4v2.6h-6v3.7h5v2.6h-5v5.7H36.8z"/>
	<path fill="#616567" d="M47.2,129.4c0-1.1,0.2-2,0.5-2.9c0.4-0.9,0.9-1.7,1.5-2.4s1.5-1.2,2.4-1.6s2-0.6,3.1-0.6s2.2,0.2,3.1,0.6
		c0.9,0.4,1.7,0.9,2.4,1.6c0.7,0.7,1.2,1.5,1.5,2.4s0.5,1.9,0.5,2.9c0,1.1-0.2,2-0.5,2.9s-0.9,1.7-1.5,2.4c-0.7,0.7-1.5,1.2-2.4,1.6
		c-0.9,0.4-2,0.6-3.1,0.6s-2.2-0.2-3.1-0.6c-0.9-0.4-1.7-0.9-2.4-1.6c-0.7-0.7-1.2-1.5-1.5-2.4S47.2,130.4,47.2,129.4z M50.6,129.4
		c0,0.7,0.1,1.4,0.3,2s0.5,1.1,0.8,1.5c0.3,0.4,0.8,0.7,1.3,0.9c0.5,0.2,1.1,0.3,1.7,0.3c0.6,0,1.2-0.1,1.7-0.3
		c0.5-0.2,0.9-0.5,1.3-0.9c0.4-0.4,0.6-0.9,0.8-1.5c0.2-0.6,0.3-1.2,0.3-1.9s-0.1-1.4-0.3-1.9c-0.2-0.6-0.5-1.1-0.8-1.5
		c-0.4-0.4-0.8-0.7-1.3-0.9c-0.5-0.2-1.1-0.3-1.7-0.3s-1.2,0.1-1.7,0.3c-0.5,0.2-0.9,0.5-1.3,0.9c-0.3,0.4-0.6,0.9-0.8,1.5
		C50.7,128,50.6,128.7,50.6,129.4z"/>
	<path fill="#616567" d="M63.9,136.7v-14.6h4.8c1.1,0,2,0.1,2.7,0.3s1.4,0.5,1.8,0.9c0.5,0.4,0.8,0.8,1,1.4c0.2,0.5,0.3,1.1,0.3,1.7
		c0,0.5-0.1,0.9-0.2,1.3c-0.1,0.4-0.3,0.8-0.6,1.2c-0.3,0.4-0.6,0.7-0.9,1c-0.4,0.3-0.8,0.5-1.3,0.7c0.2,0.1,0.4,0.3,0.6,0.4
		s0.4,0.4,0.5,0.6l3.1,5.1h-3.1c-0.6,0-1-0.2-1.2-0.6l-2.4-4.2c-0.1-0.2-0.2-0.3-0.4-0.4c-0.1-0.1-0.3-0.1-0.6-0.1h-0.9v5.4H63.9z
		 M67.3,128.9h1.4c0.5,0,0.9-0.1,1.2-0.2c0.3-0.1,0.6-0.3,0.8-0.5s0.4-0.4,0.4-0.7s0.1-0.6,0.1-0.9c0-0.6-0.2-1.1-0.6-1.5
		c-0.4-0.4-1.1-0.5-1.9-0.5h-1.4V128.9z"/>
	<path fill="#616567" d="M77.2,136.7v-14.6h2.6c0.1,0,0.3,0,0.4,0c0.1,0,0.2,0,0.3,0.1c0.1,0,0.2,0.1,0.2,0.2
		c0.1,0.1,0.1,0.2,0.2,0.3l3.8,7.4c0.1,0.3,0.3,0.5,0.4,0.8s0.2,0.6,0.4,0.8c0.1-0.3,0.2-0.6,0.4-0.9c0.1-0.3,0.3-0.5,0.4-0.8
		l3.7-7.4c0.1-0.1,0.1-0.2,0.2-0.3c0.1-0.1,0.2-0.1,0.2-0.2c0.1,0,0.2-0.1,0.3-0.1c0.1,0,0.2,0,0.4,0h2.6v14.6h-3v-8.4
		c0-0.4,0-0.8,0.1-1.3l-3.9,7.5c-0.1,0.2-0.3,0.4-0.5,0.5s-0.4,0.2-0.7,0.2h-0.5c-0.3,0-0.5-0.1-0.7-0.2s-0.4-0.3-0.5-0.5l-3.9-7.5
		c0,0.2,0,0.5,0.1,0.7c0,0.2,0,0.4,0,0.6v8.4H77.2z"/>
	<path fill="#616567" d="M94.8,136.7l5.6-14.6h3.5l5.6,14.6h-2.6c-0.3,0-0.5-0.1-0.7-0.2c-0.2-0.1-0.3-0.3-0.4-0.5l-0.9-2.5h-5.5
		l-0.9,2.5c-0.1,0.2-0.2,0.4-0.4,0.5c-0.2,0.1-0.4,0.2-0.7,0.2H94.8z M100.2,131.1h4l-1.3-4c-0.1-0.3-0.2-0.6-0.3-0.9
		s-0.2-0.7-0.3-1.1c-0.1,0.4-0.2,0.8-0.3,1.1c-0.1,0.3-0.2,0.6-0.3,0.9L100.2,131.1z"/>
	<path fill="#616567" d="M109.3,129.4c0-1.1,0.2-2.1,0.6-3s0.9-1.7,1.6-2.4c0.7-0.7,1.5-1.2,2.4-1.5c0.9-0.4,2-0.5,3.1-0.5
		c0.5,0,1.1,0,1.5,0.1s0.9,0.2,1.4,0.4c0.4,0.2,0.8,0.4,1.2,0.6s0.7,0.5,0.9,0.8l-1.1,1.5c-0.1,0.1-0.2,0.2-0.3,0.3
		s-0.2,0.1-0.4,0.1c-0.1,0-0.2,0-0.3-0.1c-0.1-0.1-0.2-0.1-0.3-0.2c-0.1-0.1-0.3-0.2-0.4-0.2s-0.3-0.2-0.5-0.2s-0.4-0.1-0.7-0.2
		c-0.3-0.1-0.6-0.1-0.9-0.1c-0.6,0-1.2,0.1-1.7,0.3c-0.5,0.2-0.9,0.5-1.3,0.9s-0.6,0.9-0.8,1.5c-0.2,0.6-0.3,1.2-0.3,1.9
		c0,0.7,0.1,1.4,0.3,2s0.5,1.1,0.8,1.5c0.3,0.4,0.8,0.7,1.2,0.9s1,0.3,1.5,0.3c0.3,0,0.6,0,0.8,0s0.5-0.1,0.7-0.2
		c0.2-0.1,0.4-0.2,0.6-0.3s0.4-0.3,0.6-0.4c0.1-0.1,0.2-0.1,0.3-0.2s0.2-0.1,0.3-0.1c0.1,0,0.2,0,0.2,0c0.1,0,0.2,0.1,0.2,0.2
		l1.3,1.4c-0.6,0.8-1.3,1.4-2.2,1.7c-0.9,0.4-1.9,0.6-3.1,0.6c-1.1,0-2.1-0.2-3-0.6c-0.9-0.4-1.6-0.9-2.2-1.6
		c-0.6-0.7-1.1-1.5-1.4-2.4C109.4,131.4,109.3,130.4,109.3,129.4z"/>
	<path fill="#616567" d="M122.5,129.4c0-1.1,0.2-2,0.5-2.9c0.4-0.9,0.9-1.7,1.5-2.4s1.5-1.2,2.4-1.6s2-0.6,3.1-0.6s2.2,0.2,3.1,0.6
		c0.9,0.4,1.7,0.9,2.4,1.6c0.7,0.7,1.2,1.5,1.5,2.4s0.5,1.9,0.5,2.9c0,1.1-0.2,2-0.5,2.9s-0.9,1.7-1.5,2.4c-0.7,0.7-1.5,1.2-2.4,1.6
		c-0.9,0.4-2,0.6-3.1,0.6s-2.2-0.2-3.1-0.6c-0.9-0.4-1.7-0.9-2.4-1.6c-0.7-0.7-1.2-1.5-1.5-2.4S122.5,130.4,122.5,129.4z M126,129.4
		c0,0.7,0.1,1.4,0.3,2s0.5,1.1,0.8,1.5c0.3,0.4,0.8,0.7,1.3,0.9c0.5,0.2,1.1,0.3,1.7,0.3c0.6,0,1.2-0.1,1.7-0.3
		c0.5-0.2,0.9-0.5,1.3-0.9c0.4-0.4,0.6-0.9,0.8-1.5c0.2-0.6,0.3-1.2,0.3-1.9s-0.1-1.4-0.3-1.9c-0.2-0.6-0.5-1.1-0.8-1.5
		c-0.4-0.4-0.8-0.7-1.3-0.9c-0.5-0.2-1.1-0.3-1.7-0.3s-1.2,0.1-1.7,0.3c-0.5,0.2-0.9,0.5-1.3,0.9c-0.3,0.4-0.6,0.9-0.8,1.5
		C126,128,126,128.7,126,129.4z"/>
	<path fill="#616567" d="M139.3,136.7v-14.6h9.4v2.6h-6v3.3h4.6v2.5h-4.6v3.5h6v2.6H139.3z"/>
	<path fill="#616567" d="M149.5,134.9l1-1.6c0.1-0.1,0.2-0.2,0.3-0.3c0.1-0.1,0.3-0.1,0.4-0.1c0.2,0,0.4,0.1,0.6,0.2
		s0.4,0.3,0.7,0.4s0.6,0.3,0.9,0.4c0.3,0.1,0.7,0.2,1.2,0.2c0.6,0,1.1-0.1,1.4-0.4c0.3-0.3,0.5-0.7,0.5-1.3c0-0.3-0.1-0.6-0.3-0.8
		c-0.2-0.2-0.4-0.4-0.7-0.5s-0.6-0.3-1-0.4c-0.4-0.1-0.8-0.2-1.2-0.4c-0.4-0.1-0.8-0.3-1.2-0.5c-0.4-0.2-0.7-0.4-1-0.7
		c-0.3-0.3-0.6-0.7-0.7-1.2c-0.2-0.5-0.3-1-0.3-1.7c0-0.5,0.1-1.1,0.3-1.6c0.2-0.5,0.5-1,1-1.4c0.4-0.4,1-0.7,1.6-1
		c0.6-0.2,1.3-0.4,2.2-0.4c0.5,0,0.9,0,1.3,0.1c0.4,0.1,0.8,0.2,1.2,0.3c0.4,0.1,0.7,0.3,1.1,0.5s0.6,0.4,0.9,0.6l-0.8,1.6
		c-0.1,0.2-0.2,0.3-0.3,0.4c-0.1,0.1-0.3,0.1-0.4,0.1c-0.2,0-0.3,0-0.5-0.1c-0.2-0.1-0.4-0.2-0.6-0.3s-0.5-0.2-0.8-0.3
		c-0.3-0.1-0.6-0.1-1-0.1c-0.6,0-1.1,0.1-1.4,0.4s-0.5,0.6-0.5,1.1c0,0.3,0.1,0.5,0.3,0.7s0.4,0.4,0.7,0.5s0.6,0.3,1,0.4
		c0.4,0.1,0.8,0.2,1.2,0.4c0.4,0.1,0.8,0.3,1.2,0.5c0.4,0.2,0.7,0.4,1,0.7s0.6,0.7,0.7,1.1s0.3,0.9,0.3,1.5c0,0.7-0.1,1.3-0.4,1.9
		c-0.2,0.6-0.6,1.1-1,1.5c-0.4,0.4-1,0.8-1.6,1c-0.7,0.2-1.4,0.4-2.2,0.4c-0.5,0-0.9,0-1.4-0.1c-0.5-0.1-0.9-0.2-1.4-0.4
		c-0.4-0.2-0.9-0.4-1.2-0.6C150.1,135.4,149.8,135.2,149.5,134.9z"/>
</g>
<g>
	<path fill="#616567" d="M127.2,119.8c-0.1-0.1-0.2-0.3-0.3-0.4c-0.1-0.1-0.2-0.3-0.2-0.4c0-0.1-0.1-0.3-0.1-0.4
		c0-0.3,0.1-0.5,0.2-0.7c0.1-0.2,0.3-0.4,0.5-0.5c0.2-0.1,0.5-0.2,0.8-0.3c0.3-0.1,0.6-0.1,0.9-0.1c0.3,0,0.6,0,0.8,0.1
		c0.2,0.1,0.4,0.1,0.5,0.2c0.2,0.1,0.3,0.2,0.4,0.3c0.1,0.1,0.2,0.2,0.2,0.4c0.1,0.1,0.1,0.3,0.2,0.4c0.1,0.1,0.1,0.2,0.2,0.3
		c0.1,0.1,0.2,0.2,0.2,0.2c0.1,0.1,0.2,0.1,0.4,0.1c0.2,0,0.4,0,0.5-0.1c0.1-0.1,0.2-0.2,0.2-0.4c0-0.1,0-0.2-0.1-0.3
		c0-0.1-0.1-0.2-0.2-0.2c-0.1-0.1-0.1-0.1-0.2-0.2c0-0.1-0.1-0.1-0.1-0.2c0-0.1,0-0.1,0.1-0.1c0,0,0.1-0.1,0.2-0.1l0.8-0.3
		c0.1,0.1,0.2,0.2,0.3,0.3c0.1,0.1,0.2,0.2,0.2,0.3c0.1,0.1,0.1,0.2,0.2,0.4c0,0.1,0.1,0.3,0.1,0.4c0,0.3-0.1,0.5-0.2,0.7
		c-0.1,0.2-0.3,0.4-0.5,0.5c-0.2,0.1-0.4,0.2-0.7,0.3c-0.3,0.1-0.5,0.1-0.8,0.1c-0.3,0-0.6,0-0.9-0.1c-0.2-0.1-0.4-0.1-0.6-0.2
		c-0.2-0.1-0.3-0.2-0.4-0.3c-0.1-0.1-0.2-0.2-0.2-0.4c-0.1-0.1-0.1-0.3-0.2-0.4c-0.1-0.1-0.1-0.2-0.2-0.3s-0.2-0.2-0.3-0.2
		c-0.1-0.1-0.2-0.1-0.4-0.1c-0.3,0-0.5,0.1-0.6,0.2c-0.1,0.1-0.2,0.3-0.2,0.4c0,0.1,0,0.3,0.1,0.4c0.1,0.1,0.1,0.2,0.2,0.3
		c0.1,0.1,0.1,0.2,0.2,0.2c0.1,0.1,0.1,0.1,0.1,0.2c0,0,0,0.1-0.1,0.1c0,0-0.1,0.1-0.1,0.1l-0.8,0.3
		C127.5,120,127.3,119.9,127.2,119.8z"/>
</g>
<g>
	<path fill="#616567" d="M116.7,135.3c-0.2-0.2-0.4-0.4-0.7-0.5c-0.3-0.1-0.5-0.3-0.6-0.5c0,0-0.1,0-0.1,0c-0.4,0-0.8,0-1.2-0.2
		c-0.4-0.1-0.8-0.4-1.1-0.7c0,0,0,0,0,0c-0.4,0.4-0.8,0.8-1.1,1.3c-0.1,0.1-0.1,0.3-0.2,0.4c0.1,0.1,0.3,0.2,0.4,0.3
		c0.2,0.1,0.4,0.3,0.6,0.4l-0.1,2c0,0.3,0,0.5,0.2,0.8c0.1,0.2,0.3,0.4,0.5,0.6l1.5,1.4l0.1-4.1c0.4,0,0.8,0,1.3,0
		c0.3,0,0.7-0.1,1-0.2C116.9,136,116.8,135.7,116.7,135.3z"/>
</g>
</svg>
