<?xml version="1.0" encoding="utf-8"?>
<!-- Generator: Adobe Illustrator 18.0.0, SVG Export Plug-In . SVG Version: 6.00 Build 0)  -->
<!DOCTYPE svg PUBLIC "-//W3C//DTD SVG 1.1//EN" "http://www.w3.org/Graphics/SVG/1.1/DTD/svg11.dtd">
<svg version="1.1" id="Camada_1" xmlns="http://www.w3.org/2000/svg" xmlns:xlink="http://www.w3.org/1999/xlink" x="0px" y="0px"
	 viewBox="0 0 179.5 140.7" enable-background="new 0 0 179.5 140.7" xml:space="preserve">
<path fill-rule="evenodd" clip-rule="evenodd" fill="#16A5C4" d="M33.5,0h110c5.5,0,10,4.5,10,10v82c0,5.5-4.5,10-10,10h-110
	c-5.5,0-10-4.5-10-10V10C23.5,4.5,28,0,33.5,0z"/>
<g>
	<path fill="#616567" d="M31.7,134.9l1-1.6c0.1-0.1,0.2-0.2,0.3-0.3c0.1-0.1,0.3-0.1,0.4-0.1c0.2,0,0.4,0.1,0.6,0.2
		c0.2,0.1,0.4,0.3,0.7,0.4s0.6,0.3,0.9,0.4c0.3,0.1,0.7,0.2,1.2,0.2c0.6,0,1.1-0.1,1.4-0.4s0.5-0.7,0.5-1.3c0-0.3-0.1-0.6-0.3-0.8
		c-0.2-0.2-0.4-0.4-0.7-0.5s-0.6-0.3-1-0.4s-0.8-0.2-1.2-0.4c-0.4-0.1-0.8-0.3-1.2-0.5s-0.7-0.4-1-0.7s-0.6-0.7-0.7-1.2
		c-0.2-0.5-0.3-1-0.3-1.7c0-0.5,0.1-1.1,0.3-1.6c0.2-0.5,0.5-1,1-1.4s1-0.7,1.6-1c0.6-0.2,1.3-0.4,2.2-0.4c0.5,0,0.9,0,1.3,0.1
		c0.4,0.1,0.8,0.2,1.2,0.3s0.7,0.3,1.1,0.5c0.3,0.2,0.6,0.4,0.9,0.6l-0.8,1.6c-0.1,0.2-0.2,0.3-0.3,0.4c-0.1,0.1-0.3,0.1-0.4,0.1
		c-0.2,0-0.3,0-0.5-0.1c-0.2-0.1-0.4-0.2-0.6-0.3s-0.5-0.2-0.8-0.3c-0.3-0.1-0.6-0.1-1-0.1c-0.6,0-1.1,0.1-1.4,0.4s-0.5,0.6-0.5,1.1
		c0,0.3,0.1,0.5,0.3,0.7s0.4,0.4,0.7,0.5s0.6,0.3,1,0.4c0.4,0.1,0.8,0.2,1.2,0.4c0.4,0.1,0.8,0.3,1.2,0.5c0.4,0.2,0.7,0.4,1,0.7
		c0.3,0.3,0.6,0.7,0.7,1.1s0.3,0.9,0.3,1.5c0,0.7-0.1,1.3-0.4,1.9c-0.2,0.6-0.6,1.1-1,1.5c-0.4,0.4-1,0.8-1.6,1s-1.4,0.4-2.2,0.4
		c-0.5,0-0.9,0-1.4-0.1c-0.5-0.1-0.9-0.2-1.4-0.4c-0.4-0.2-0.9-0.4-1.2-0.6C32.3,135.4,31.9,135.2,31.7,134.9z"/>
	<path fill="#616567" d="M43.3,130.7v-8.6h3.4v8.6c0,0.5,0.1,1,0.2,1.4c0.1,0.4,0.3,0.7,0.6,1c0.2,0.3,0.6,0.5,0.9,0.7
		c0.4,0.2,0.8,0.2,1.2,0.2c0.5,0,0.9-0.1,1.2-0.2c0.4-0.1,0.7-0.4,0.9-0.7c0.2-0.3,0.4-0.6,0.6-1s0.2-0.9,0.2-1.4v-8.7h3.4v8.6
		c0,0.9-0.1,1.7-0.4,2.5c-0.3,0.7-0.7,1.4-1.2,1.9c-0.5,0.5-1.2,1-2,1.3s-1.6,0.4-2.6,0.4c-1,0-1.8-0.1-2.6-0.4s-1.4-0.7-2-1.3
		c-0.5-0.5-1-1.2-1.2-1.9C43.5,132.4,43.3,131.6,43.3,130.7z"/>
	<path fill="#616567" d="M57.2,129.4c0-1.1,0.2-2.1,0.5-3c0.4-0.9,0.9-1.7,1.6-2.4c0.7-0.7,1.5-1.2,2.4-1.5c1-0.4,2-0.5,3.2-0.5
		c0.6,0,1.2,0,1.7,0.1c0.5,0.1,1,0.2,1.5,0.4c0.5,0.2,0.9,0.4,1.2,0.6s0.7,0.5,1,0.8l-1,1.5c-0.1,0.1-0.2,0.3-0.3,0.3
		s-0.3,0.1-0.4,0.1c-0.2,0-0.4-0.1-0.6-0.2c-0.3-0.2-0.5-0.3-0.8-0.4c-0.2-0.1-0.5-0.2-0.7-0.3s-0.5-0.1-0.8-0.2
		c-0.3,0-0.6-0.1-0.9-0.1c-0.6,0-1.2,0.1-1.7,0.3s-0.9,0.5-1.3,0.9c-0.4,0.4-0.6,0.9-0.8,1.5c-0.2,0.6-0.3,1.2-0.3,1.9
		c0,0.8,0.1,1.5,0.3,2.1c0.2,0.6,0.5,1.1,0.9,1.5c0.4,0.4,0.8,0.7,1.3,0.9c0.5,0.2,1.1,0.3,1.7,0.3c0.5,0,0.9,0,1.2-0.1
		c0.4-0.1,0.7-0.2,1-0.3v-2.1h-1.4c-0.2,0-0.4-0.1-0.5-0.2c-0.1-0.1-0.2-0.3-0.2-0.5v-1.9h5.2v6.2c-0.4,0.3-0.8,0.5-1.2,0.7
		c-0.4,0.2-0.8,0.4-1.3,0.5s-0.9,0.2-1.5,0.3s-1.1,0.1-1.7,0.1c-1.1,0-2.1-0.2-3-0.6c-0.9-0.4-1.7-0.9-2.4-1.6s-1.2-1.4-1.6-2.4
		C57.4,131.4,57.2,130.4,57.2,129.4z"/>
	<path fill="#616567" d="M72.3,136.7v-14.6h9.4v2.6h-6v3.3h4.6v2.5h-4.6v3.5h6v2.6H72.3z"/>
	<path fill="#616567" d="M82.6,134.9l1-1.6c0.1-0.1,0.2-0.2,0.3-0.3c0.1-0.1,0.3-0.1,0.4-0.1c0.2,0,0.4,0.1,0.6,0.2
		c0.2,0.1,0.4,0.3,0.7,0.4s0.6,0.3,0.9,0.4c0.3,0.1,0.7,0.2,1.2,0.2c0.6,0,1.1-0.1,1.4-0.4c0.3-0.3,0.5-0.7,0.5-1.3
		c0-0.3-0.1-0.6-0.3-0.8c-0.2-0.2-0.4-0.4-0.7-0.5s-0.6-0.3-1-0.4s-0.8-0.2-1.2-0.4c-0.4-0.1-0.8-0.3-1.2-0.5s-0.7-0.4-1-0.7
		s-0.6-0.7-0.7-1.2c-0.2-0.5-0.3-1-0.3-1.7c0-0.5,0.1-1.1,0.3-1.6c0.2-0.5,0.5-1,1-1.4s1-0.7,1.6-1c0.6-0.2,1.3-0.4,2.2-0.4
		c0.5,0,0.9,0,1.3,0.1c0.4,0.1,0.8,0.2,1.2,0.3c0.4,0.1,0.7,0.3,1.1,0.5s0.6,0.4,0.9,0.6l-0.8,1.6c-0.1,0.2-0.2,0.3-0.3,0.4
		c-0.1,0.1-0.3,0.1-0.4,0.1c-0.2,0-0.3,0-0.5-0.1c-0.2-0.1-0.4-0.2-0.6-0.3s-0.5-0.2-0.8-0.3c-0.3-0.1-0.6-0.1-1-0.1
		c-0.6,0-1.1,0.1-1.4,0.4s-0.5,0.6-0.5,1.1c0,0.3,0.1,0.5,0.3,0.7s0.4,0.4,0.7,0.5s0.6,0.3,1,0.4c0.4,0.1,0.8,0.2,1.2,0.4
		c0.4,0.1,0.8,0.3,1.2,0.5c0.4,0.2,0.7,0.4,1,0.7s0.6,0.7,0.7,1.1s0.3,0.9,0.3,1.5c0,0.7-0.1,1.3-0.4,1.9c-0.2,0.6-0.6,1.1-1,1.5
		c-0.4,0.4-1,0.8-1.6,1c-0.7,0.2-1.4,0.4-2.2,0.4c-0.5,0-0.9,0-1.4-0.1c-0.5-0.1-0.9-0.2-1.4-0.4c-0.4-0.2-0.9-0.4-1.2-0.6
		C83.2,135.4,82.8,135.2,82.6,134.9z"/>
	<path fill="#616567" d="M93.4,124.8v-2.7H105v2.7h-4.1v11.9h-3.4v-11.9H93.4z"/>
	<path fill="#616567" d="M105.1,129.4c0-1.1,0.2-2,0.5-2.9c0.4-0.9,0.9-1.7,1.5-2.4s1.5-1.2,2.4-1.6s2-0.6,3.1-0.6s2.2,0.2,3.1,0.6
		c0.9,0.4,1.7,0.9,2.4,1.6c0.7,0.7,1.2,1.5,1.5,2.4s0.5,1.9,0.5,2.9c0,1.1-0.2,2-0.5,2.9s-0.9,1.7-1.5,2.4c-0.7,0.7-1.5,1.2-2.4,1.6
		c-0.9,0.4-2,0.6-3.1,0.6s-2.2-0.2-3.1-0.6c-0.9-0.4-1.7-0.9-2.4-1.6c-0.7-0.7-1.2-1.5-1.5-2.4S105.1,130.4,105.1,129.4z
		 M108.5,129.4c0,0.7,0.1,1.4,0.3,2s0.5,1.1,0.8,1.5c0.3,0.4,0.8,0.7,1.3,0.9c0.5,0.2,1.1,0.3,1.7,0.3c0.6,0,1.2-0.1,1.7-0.3
		c0.5-0.2,0.9-0.5,1.3-0.9c0.4-0.4,0.6-0.9,0.8-1.5c0.2-0.6,0.3-1.2,0.3-1.9s-0.1-1.4-0.3-1.9c-0.2-0.6-0.5-1.1-0.8-1.5
		c-0.4-0.4-0.8-0.7-1.3-0.9c-0.5-0.2-1.1-0.3-1.7-0.3s-1.2,0.1-1.7,0.3c-0.5,0.2-0.9,0.5-1.3,0.9c-0.3,0.4-0.6,0.9-0.8,1.5
		C108.6,128,108.5,128.7,108.5,129.4z"/>
	<path fill="#616567" d="M121.8,136.7v-14.6h9.4v2.6h-6v3.3h4.6v2.5h-4.6v3.5h6v2.6H121.8z"/>
	<path fill="#616567" d="M132.1,134.9l1-1.6c0.1-0.1,0.2-0.2,0.3-0.3c0.1-0.1,0.3-0.1,0.4-0.1c0.2,0,0.4,0.1,0.6,0.2
		s0.4,0.3,0.7,0.4s0.6,0.3,0.9,0.4c0.3,0.1,0.7,0.2,1.2,0.2c0.6,0,1.1-0.1,1.4-0.4c0.3-0.3,0.5-0.7,0.5-1.3c0-0.3-0.1-0.6-0.3-0.8
		c-0.2-0.2-0.4-0.4-0.7-0.5s-0.6-0.3-1-0.4c-0.4-0.1-0.8-0.2-1.2-0.4c-0.4-0.1-0.8-0.3-1.2-0.5c-0.4-0.2-0.7-0.4-1-0.7
		c-0.3-0.3-0.6-0.7-0.7-1.2c-0.2-0.5-0.3-1-0.3-1.7c0-0.5,0.1-1.1,0.3-1.6c0.2-0.5,0.5-1,1-1.4c0.4-0.4,1-0.7,1.6-1
		c0.6-0.2,1.3-0.4,2.2-0.4c0.5,0,0.9,0,1.3,0.1c0.4,0.1,0.8,0.2,1.2,0.3c0.4,0.1,0.7,0.3,1.1,0.5s0.6,0.4,0.9,0.6l-0.8,1.6
		c-0.1,0.2-0.2,0.3-0.3,0.4c-0.1,0.1-0.3,0.1-0.4,0.1c-0.2,0-0.3,0-0.5-0.1c-0.2-0.1-0.4-0.2-0.6-0.3s-0.5-0.2-0.8-0.3
		c-0.3-0.1-0.6-0.1-1-0.1c-0.6,0-1.1,0.1-1.4,0.4s-0.5,0.6-0.5,1.1c0,0.3,0.1,0.5,0.3,0.7s0.4,0.4,0.7,0.5s0.6,0.3,1,0.4
		c0.4,0.1,0.8,0.2,1.2,0.4c0.4,0.1,0.8,0.3,1.2,0.5c0.4,0.2,0.7,0.4,1,0.7s0.6,0.7,0.7,1.1s0.3,0.9,0.3,1.5c0,0.7-0.1,1.3-0.4,1.9
		c-0.2,0.6-0.6,1.1-1,1.5c-0.4,0.4-1,0.8-1.6,1c-0.7,0.2-1.4,0.4-2.2,0.4c-0.5,0-0.9,0-1.4-0.1c-0.5-0.1-0.9-0.2-1.4-0.4
		c-0.4-0.2-0.9-0.4-1.2-0.6C132.7,135.4,132.4,135.2,132.1,134.9z"/>
</g>
<g>
	<path fill="#616567" d="M109.2,119.8c-0.1-0.1-0.2-0.3-0.3-0.4c-0.1-0.1-0.2-0.3-0.2-0.4c0-0.1-0.1-0.3-0.1-0.4
		c0-0.3,0.1-0.5,0.2-0.7c0.1-0.2,0.3-0.4,0.5-0.5c0.2-0.1,0.5-0.2,0.8-0.3c0.3-0.1,0.6-0.1,0.9-0.1c0.3,0,0.6,0,0.8,0.1
		c0.2,0.1,0.4,0.1,0.5,0.2c0.2,0.1,0.3,0.2,0.4,0.3c0.1,0.1,0.2,0.2,0.2,0.4c0.1,0.1,0.1,0.3,0.2,0.4c0.1,0.1,0.1,0.2,0.2,0.3
		c0.1,0.1,0.2,0.2,0.2,0.2c0.1,0.1,0.2,0.1,0.4,0.1c0.2,0,0.4,0,0.5-0.1c0.1-0.1,0.2-0.2,0.2-0.4c0-0.1,0-0.2-0.1-0.3
		c0-0.1-0.1-0.2-0.2-0.2c-0.1-0.1-0.1-0.1-0.2-0.2c0-0.1-0.1-0.1-0.1-0.2c0-0.1,0-0.1,0.1-0.1c0,0,0.1-0.1,0.2-0.1l0.8-0.3
		c0.1,0.1,0.2,0.2,0.3,0.3c0.1,0.1,0.2,0.2,0.2,0.3c0.1,0.1,0.1,0.2,0.2,0.4c0,0.1,0.1,0.3,0.1,0.4c0,0.3-0.1,0.5-0.2,0.7
		c-0.1,0.2-0.3,0.4-0.5,0.5c-0.2,0.1-0.4,0.2-0.7,0.3c-0.3,0.1-0.5,0.1-0.8,0.1c-0.3,0-0.6,0-0.9-0.1c-0.2-0.1-0.4-0.1-0.6-0.2
		c-0.2-0.1-0.3-0.2-0.4-0.3c-0.1-0.1-0.2-0.2-0.2-0.4c-0.1-0.1-0.1-0.3-0.2-0.4c-0.1-0.1-0.1-0.2-0.2-0.3c-0.1-0.1-0.2-0.2-0.3-0.2
		c-0.1-0.1-0.2-0.1-0.4-0.1c-0.3,0-0.5,0.1-0.6,0.2c-0.1,0.1-0.2,0.3-0.2,0.4c0,0.1,0,0.3,0.1,0.4c0.1,0.1,0.1,0.2,0.2,0.3
		c0.1,0.1,0.1,0.2,0.2,0.2c0.1,0.1,0.1,0.1,0.1,0.2c0,0,0,0.1-0.1,0.1c0,0-0.1,0.1-0.1,0.1l-0.8,0.3
		C109.5,120,109.3,119.9,109.2,119.8z"/>
</g>
<path fill-rule="evenodd" clip-rule="evenodd" fill="#FFFFFF" d="M87.2,54.7c4.2,1,10.5,3.3,18.2,9V32.1c-7.7,5.7-14,8.1-18.2,9
	V54.7z M80.7,68.9L80.7,68.9l-0.1-0.2c-0.6-0.9-1.3-2.9-1.6-6.9l0,0v-4.5h-4.2l-2.4,0v14.2l6.7,0c0,0,0,0,0.1,0l0.1,0l0.1,0
	c0,0,0.1,0,0.1,0c0.9,0,1.7-0.7,1.7-1.6c0-0.3-0.1-0.5-0.2-0.8C80.9,69,80.8,68.9,80.7,68.9z M64.5,44.2v7.4c0,2,1.8,3.7,3.9,3.7
	h2.7h3.7h10.3V40.5H68.4C66.3,40.5,64.5,42.2,64.5,44.2z M110.6,27.5h-2.1c-0.5,0-0.9,0.4-0.9,0.9v39c0,0.5,0.4,0.9,0.9,0.9h2.1
	c0.5,0,0.9-0.4,0.9-0.9v-39C111.5,27.9,111.1,27.5,110.6,27.5z"/>
</svg>
